<svg width="678" height="715" viewBox="0 0 678 715" fill="none" xmlns="http://www.w3.org/2000/svg">
<g opacity="0.2" clip-path="url(#clip0_256_109)">
<path d="M135.371 494.097C137.965 498.933 141.488 502.632 142.012 503.28C154.241 464.225 194.944 361.153 312.513 244.056C461.34 95.7483 654.189 15.1964 657.096 14.2197C654.841 13.0653 653.561 12.7893 647.859 11.2924L640.417 14.4983C640.417 14.4983 618.732 24.2542 610.229 28.4341C601.727 32.614 439.932 106.499 307.691 236.468C175.885 365.996 135.486 493.588 135.182 494.19L135.371 494.097Z" fill="url(#paint0_linear_256_109)"/>
<path d="M665.897 17.5877C665.897 17.5877 620.001 40.8307 612.343 45.7272C604.496 50.7167 474.806 122.171 364.204 265.492C235.29 432.526 228.401 591.397 228.301 592.578C230.617 596.418 232.379 598.268 235.567 601.227C235.551 600.556 245.654 429.015 372.682 265.85C499.956 102.338 672.721 20.7963 672.721 20.7963C672.721 20.7963 671.746 19.9179 665.897 17.5877Z" fill="url(#paint1_linear_256_109)"/>
<path d="M294.92 634.739C294.986 629.275 301.481 455.886 410.159 295.179C527.897 121.192 689.258 36.6564 691.525 35.5418C689.953 33.5991 687.74 31.5184 685.527 29.4376C683.26 30.5523 509.609 126.335 402.677 288.221C295.44 450.709 284.762 627.738 284.472 629.012C287.136 631.323 287.849 631.878 294.92 634.739Z" fill="url(#paint2_linear_256_109)"/>
<path d="M414.007 665.364C413.723 658.487 408.057 546.753 426.049 472.726C444.751 396.314 467.484 309.546 542.084 207.236C616.002 105.715 706.959 53.3021 707.962 52.5829C706.914 51.2878 704.03 47.7262 701.425 45.1598C700.291 45.7171 611.4 99.377 536.144 200.877C460.584 302.98 423.371 405.467 409.353 522.578C395.582 639.342 405.093 665.446 405.035 665.701C407.391 665.674 409.368 665.834 414.007 665.364Z" fill="url(#paint3_linear_256_109)"/>
</g>
<defs>
<linearGradient id="paint0_linear_256_109" x1="467.797" y1="343.114" x2="370.88" y2="145.981" gradientUnits="userSpaceOnUse">
<stop offset="0.166667" stop-color="#993333" stop-opacity="0"/>
<stop offset="0.578125" stop-color="#993333" stop-opacity="0.69"/>
<stop offset="0.875" stop-color="#993333" stop-opacity="0.69"/>
<stop offset="1" stop-color="#993333" stop-opacity="0"/>
</linearGradient>
<linearGradient id="paint1_linear_256_109" x1="559.706" y1="441.87" x2="412.389" y2="142.22" gradientUnits="userSpaceOnUse">
<stop offset="0.166667" stop-color="#993333" stop-opacity="0"/>
<stop offset="0.578125" stop-color="#993333" stop-opacity="0.69"/>
<stop offset="0.875" stop-color="#993333" stop-opacity="0.69"/>
<stop offset="1" stop-color="#993333" stop-opacity="0"/>
</linearGradient>
<linearGradient id="paint2_linear_256_109" x1="608.178" y1="480.732" x2="444.551" y2="147.909" gradientUnits="userSpaceOnUse">
<stop offset="0.166667" stop-color="#993333" stop-opacity="0"/>
<stop offset="0.578125" stop-color="#993333" stop-opacity="0.69"/>
<stop offset="0.875" stop-color="#993333" stop-opacity="0.69"/>
<stop offset="1" stop-color="#993333" stop-opacity="0"/>
</linearGradient>
<linearGradient id="paint3_linear_256_109" x1="693.256" y1="528.076" x2="503.643" y2="142.395" gradientUnits="userSpaceOnUse">
<stop offset="0.166667" stop-color="#993333" stop-opacity="0"/>
<stop offset="0.578125" stop-color="#993333" stop-opacity="0.69"/>
<stop offset="0.875" stop-color="#993333" stop-opacity="0.69"/>
<stop offset="1" stop-color="#993333" stop-opacity="0"/>
</linearGradient>
<clipPath id="clip0_256_109">
<rect width="741.929" height="497.605" fill="white" transform="matrix(-0.897411 0.441195 -0.629202 -0.777242 979.118 387.537)"/>
</clipPath>
</defs>
</svg>
