<svg id="Camada_2" xmlns="http://www.w3.org/2000/svg" viewBox="0 0 231.6 60.29"><defs><style>
      .cls-1 {
        fill: #fff;
      }
    </style></defs><g id="Camada_1-2"><g><path class="cls-1" d="M74.36,17.8V0l12.1,12.67V1.12h2.55V18.82l-12.1-12.67v11.65h-2.55Z"></path><path class="cls-1" d="M102.63,4.66h-5.98v4.36h5.81v1.54h-5.81v5.7h5.98v1.54h-7.61V3.12h7.61v1.54Z"></path><path class="cls-1" d="M108.16,12.12c0,1.23,0,2.57,1.17,3.56,.59,.51,1.61,.84,2.42,.84s1.83-.33,2.42-.84c1.17-.99,1.17-2.33,1.17-3.56V3.12h1.63V12.56c0,1.23-.13,2.42-.92,3.52-.88,1.21-2.42,1.98-4.29,1.98s-3.41-.77-4.29-1.98c-.79-1.1-.92-2.29-.92-3.52V3.12h1.63V12.12Z"></path><path class="cls-1" d="M124,3.12c.99,0,2.46,.07,3.56,.81,.86,.57,1.61,1.69,1.61,3.26,0,2.24-1.47,3.89-3.7,4.05l4.67,6.56h-1.98l-4.47-6.42h-.42v6.42h-1.63V3.12h2.35Zm-.73,6.8h1.03c2.02,0,3.23-.97,3.23-2.68,0-.81-.24-1.63-1.17-2.16-.66-.37-1.41-.42-2.11-.42h-.99v5.26Z"></path><path class="cls-1" d="M132.79,10.47c0-4.38,3.41-7.59,7.64-7.59s7.64,3.21,7.64,7.59-3.39,7.59-7.64,7.59-7.64-3.23-7.64-7.59Zm1.67,0c0,3.37,2.66,6.05,5.96,6.05s5.96-2.68,5.96-6.05-2.66-6.05-5.96-6.05-5.96,2.68-5.96,6.05Z"></path><path class="cls-1" d="M90.9,30.47c0,4.9-3.67,8.65-8.67,8.65s-8.67-3.75-8.67-8.65,3.67-8.65,8.67-8.65,8.67,3.75,8.67,8.65Zm-2.55,0c0-3.7-2.55-6.3-6.12-6.3s-6.12,2.6-6.12,6.3,2.55,6.3,6.12,6.3,6.12-2.6,6.12-6.3Z"></path><path class="cls-1" d="M97.38,24.12c.99,0,2.46,.07,3.56,.81,.86,.57,1.61,1.69,1.61,3.26,0,2.24-1.47,3.89-3.7,4.05l4.67,6.56h-1.98l-4.47-6.42h-.42v6.42h-1.63v-14.68h2.35Zm-.73,6.8h1.03c2.02,0,3.23-.97,3.23-2.68,0-.81-.24-1.63-1.17-2.16-.66-.37-1.41-.42-2.11-.42h-.99v5.26Z"></path><path class="cls-1" d="M110.58,25.66v13.14h-1.63v-13.14h-3.56v-1.54h8.76v1.54h-3.56Z"></path><path class="cls-1" d="M118.87,30.08h7.52v-5.96h1.63v14.68h-1.63v-7.17h-7.52v7.17h-1.63v-14.68h1.63v5.96Z"></path><path class="cls-1" d="M131.92,31.47c0-4.38,3.41-7.59,7.64-7.59s7.63,3.21,7.63,7.59-3.39,7.59-7.63,7.59-7.64-3.23-7.64-7.59Zm1.67,0c0,3.37,2.66,6.05,5.96,6.05s5.96-2.68,5.96-6.05-2.66-6.05-5.96-6.05-5.96,2.68-5.96,6.05Z"></path><path class="cls-1" d="M153.74,24.12c1.47,0,2.71,.18,3.7,1.03,1.08,.92,1.34,2.22,1.34,3.15,0,2.07-1.3,4.11-4.64,4.11h-1.43v6.38h-1.63v-14.68h2.66Zm-1.03,6.75h1.34c1.94,0,3.1-.97,3.1-2.66,0-2.33-2.18-2.55-3.23-2.55h-1.21v5.21Z"></path><path class="cls-1" d="M168.97,34.66h-6.25l-1.76,4.14h-1.8l6.75-15.38,6.58,15.38h-1.8l-1.72-4.14Zm-.64-1.54l-2.46-5.88-2.51,5.88h4.97Z"></path><path class="cls-1" d="M183.07,25.66h-5.98v4.36h5.81v1.54h-5.81v5.7h5.98v1.54h-7.61v-14.68h7.61v1.54Z"></path><path class="cls-1" d="M186.96,24.12h2.99c1.47,0,3.56,.15,5.41,1.72,1.34,1.12,2.51,2.99,2.51,5.63,0,3.08-1.52,4.73-2.57,5.63-1.34,1.14-2.75,1.69-5.37,1.69h-2.97v-14.68Zm1.63,13.14h1.43c1.17,0,2.77-.13,4.2-1.32,1.1-.92,1.98-2.38,1.98-4.47,0-3.52-2.46-5.81-6.18-5.81h-1.43v11.6Z"></path><path class="cls-1" d="M203.4,24.12v14.68h-1.63v-14.68h1.63Z"></path><path class="cls-1" d="M219.3,27.35c-.46-.46-1.17-1.01-1.91-1.36-.77-.35-1.67-.57-2.53-.57-3.39,0-5.9,2.73-5.9,6.12,0,3.98,3.23,5.98,5.92,5.98,.99,0,1.96-.29,2.73-.68,.84-.42,1.43-.97,1.69-1.23v2.02c-1.63,1.17-3.32,1.43-4.42,1.43-4.36,0-7.59-3.3-7.59-7.55s3.28-7.63,7.68-7.63c.88,0,2.57,.11,4.33,1.45v2.02Z"></path><path class="cls-1" d="M229.75,27.02c-.2-.4-.53-.84-.86-1.1-.29-.22-.81-.51-1.65-.51-1.45,0-2.46,.9-2.46,2.27,0,.57,.15,.9,.55,1.28,.44,.44,.99,.68,1.54,.92l1.41,.62c.86,.37,1.65,.77,2.27,1.39,.75,.75,1.06,1.61,1.06,2.66,0,2.71-2,4.51-4.64,4.51-.97,0-2.18-.2-3.19-1.19-.73-.7-1.17-1.72-1.36-2.6l1.58-.44c.11,.77,.46,1.43,.88,1.87,.64,.64,1.36,.81,2.11,.81,2,0,2.95-1.43,2.95-2.9,0-.66-.2-1.23-.73-1.72-.42-.4-.99-.66-1.76-1.01l-1.32-.62c-.57-.26-1.3-.57-1.96-1.21-.64-.62-1.01-1.3-1.01-2.4,0-2.27,1.74-3.78,4.11-3.78,.9,0,1.63,.18,2.35,.66,.59,.4,1.1,.99,1.43,1.63l-1.3,.86Z"></path><path class="cls-1" d="M96.7,54.12c0,1.23,0,2.57,1.17,3.56,.59,.51,1.61,.84,2.42,.84s1.83-.33,2.42-.84c1.17-.99,1.17-2.33,1.17-3.56v-9h1.63v9.44c0,1.23-.13,2.42-.92,3.52-.88,1.21-2.42,1.98-4.29,1.98s-3.41-.77-4.29-1.98c-.79-1.1-.92-2.29-.92-3.52v-9.44h1.63v9Z"></path><path class="cls-1" d="M112.54,45.12c.99,0,2.46,.07,3.56,.81,.86,.57,1.61,1.69,1.61,3.26,0,2.24-1.47,3.89-3.7,4.05l4.66,6.56h-1.98l-4.47-6.42h-.42v6.42h-1.63v-14.68h2.35Zm-.73,6.8h1.03c2.02,0,3.23-.97,3.23-2.68,0-.81-.24-1.63-1.17-2.16-.66-.37-1.41-.42-2.11-.42h-.99v5.26Z"></path><path class="cls-1" d="M129.7,52.42h6.12v.35c0,1.63-.48,3.39-1.41,4.64-.44,.59-2.09,2.64-5.46,2.64-4.36,0-7.61-3.32-7.61-7.59s3.28-7.59,7.66-7.59c1.41,0,3.06,.35,4.49,1.45,.66,.51,1.28,1.17,1.69,1.74l-1.21,1.1c-.42-.59-.9-1.12-1.39-1.52-.7-.57-1.8-1.23-3.56-1.23-3.54,0-6.01,2.66-6.01,6.07,0,4,3.19,6.03,5.96,6.03,1.96,0,3.65-.99,4.49-2.46,.26-.46,.55-1.17,.59-2.09h-4.36v-1.54Z"></path><path class="cls-1" d="M147.32,46.66h-5.98v4.36h5.81v1.54h-5.81v5.7h5.98v1.54h-7.61v-14.68h7.61v1.54Z"></path><path class="cls-1" d="M153.57,45.12c.99,0,2.46,.07,3.56,.81,.86,.57,1.61,1.69,1.61,3.26,0,2.24-1.47,3.89-3.7,4.05l4.67,6.56h-1.98l-4.47-6.42h-.42v6.42h-1.63v-14.68h2.35Zm-.73,6.8h1.03c2.02,0,3.23-.97,3.23-2.68,0-.81-.24-1.63-1.17-2.16-.66-.37-1.41-.42-2.11-.42h-.99v5.26Z"></path><path class="cls-1" d="M164.79,45.12v14.68h-1.63v-14.68h1.63Z"></path><path class="cls-1" d="M177.09,46.66h-5.98v4.36h5.81v1.54h-5.81v5.7h5.98v1.54h-7.61v-14.68h7.61v1.54Z"></path><path class="cls-1" d="M187.54,48.02c-.2-.4-.53-.84-.86-1.1-.29-.22-.81-.51-1.65-.51-1.45,0-2.46,.9-2.46,2.27,0,.57,.15,.9,.55,1.28,.44,.44,.99,.68,1.54,.92l1.41,.62c.86,.37,1.65,.77,2.27,1.39,.75,.75,1.06,1.61,1.06,2.66,0,2.71-2,4.51-4.64,4.51-.97,0-2.18-.2-3.19-1.19-.73-.7-1.17-1.72-1.36-2.6l1.58-.44c.11,.77,.46,1.43,.88,1.87,.64,.64,1.36,.81,2.11,.81,2,0,2.95-1.43,2.95-2.9,0-.66-.2-1.23-.73-1.72-.42-.4-.99-.66-1.76-1.01l-1.32-.62c-.57-.26-1.3-.57-1.96-1.21-.64-.62-1.01-1.3-1.01-2.4,0-2.27,1.74-3.78,4.11-3.78,.9,0,1.63,.18,2.35,.66,.59,.4,1.1,.99,1.43,1.63l-1.3,.86Z"></path><path class="cls-1" d="M86.61,47.04c-.19-.19-1.12-1.07-1.66-1.29-.44-.18-1.32-.77-2.52-.76-1.87,0-3.75,.77-3.61,2.29,.11,1.27,2.61,1.87,3.4,2.13l2.14,.64c1.23,.4,2.31,.75,3.2,1.41,1.07,.8,1.7,1.88,1.7,3.23,0,3.41-3.31,5.38-7.17,5.32-1.39-.02-3.22-.13-4.93-1.41-1.03-.77-1.92-1.92-2.01-3.56l2.43-.45c.11,.25,.13,1.02,1.12,1.99,1.06,.83,2.31,.97,3.38,.97,2.88,0,4.44-1.24,4.4-2.76-.05-2.07-2.41-2.27-3.71-2.76l-2-.63c-.82-.28-1.76-.44-3.05-1.32-1.08-.73-1.6-1.57-1.6-2.74,0-2.59,2.42-4.8,6.35-4.73,1.3,.02,2.92,.47,3.88,1.05,.82,.49,1.91,1.44,2.34,2.24l-2.08,1.14Z"></path></g><g><path class="cls-1" d="M31.96,39.97c14.77-6.71,23.26-17.78,23.3-17.83-.51-1.42-1.14-2.79-1.87-4.1-.06,.08-8.84,11.51-22.47,18.82-13.58,7.29-27.59,7.97-27.77,7.97,.28,.55,.58,1.09,.9,1.62h0s13.11,.25,27.91-6.48Z"></path><path class="cls-1" d="M37,22.26c4.45-4.34,9.28-11.95,9.58-12.43-4.92-4.06-11.23-6.49-18.1-6.49C12.75,3.34,0,16.09,0,31.82c0,3.21,.54,6.3,1.52,9.18,.09,0,7.69-.52,16.61-4.86,8.97-4.37,14.28-9.4,18.87-13.87Z"></path><path class="cls-1" d="M52.63,16.75c-1.41-2.26-3.13-4.3-5.09-6.08,0,.02-.68,2.07-6.86,9.37-6.21,7.34-13.05,12.94-22.08,17.27-8.97,4.3-16.52,4.96-16.61,4.96,.18,.47,.38,.93,.59,1.38,.18,0,13.05-.34,27.8-8.07,13.62-7.14,21.99-18.47,22.26-18.83Z"></path><path class="cls-1" d="M35.23,44.72c12.11-3.95,19.19-9.47,21.69-11.67,.02-.41,.03-.82,.03-1.23,0-2.89-.43-5.67-1.23-8.3-.05,.07-7.79,10.43-22.85,17.33-12.92,5.92-23.63,6.43-24.3,6.51-.67,.07-3.8,.12-3.87,.12,.22,.33,.44,.65,.67,.97,.21,.02,14.52,1.28,29.87-3.72Z"></path><path class="cls-1" d="M8.71,49.91c-.68,0-2.22,0-2.22,0h0c5.22,6.33,13.13,10.37,21.98,10.37,14.68,0,26.76-11.11,28.31-25.38-.04,.04-7.71,6.74-21.21,11.05-13.54,4.33-26.18,3.95-26.86,3.95Z"></path></g></g></svg>