<svg id="Camada_1" xmlns="http://www.w3.org/2000/svg" viewBox="0 0 324.99 110.01"><defs><style>
      .cls-1 {
        fill: #fff;
      }
      .cls-2 {
        fill: #933;
      }
    </style></defs><g><path class="cls-1" d="M108.4,37.29V13.61l16.1,16.86V15.11h3.39v23.55l-16.1-16.86v15.5h-3.39Z"></path><path class="cls-1" d="M146.04,19.81h-7.97v5.8h7.73v2.05h-7.73v7.58h7.97v2.05h-10.13V17.76h10.13v2.05Z"></path><path class="cls-1" d="M153.38,29.74c0,1.64,0,3.43,1.55,4.74,.79,.67,2.14,1.11,3.22,1.11s2.43-.44,3.22-1.11c1.55-1.32,1.55-3.1,1.55-4.74v-11.98h2.17v12.56c0,1.64-.18,3.22-1.23,4.69-1.17,1.61-3.22,2.64-5.71,2.64s-4.54-1.02-5.71-2.64c-1.05-1.46-1.23-3.05-1.23-4.69v-12.56h2.17v11.98Z"></path><path class="cls-1" d="M174.46,17.76c1.32,0,3.28,.09,4.74,1.08,1.14,.76,2.14,2.25,2.14,4.33,0,2.99-1.96,5.18-4.92,5.39l6.21,8.73h-2.64l-5.94-8.55h-.56v8.55h-2.17V17.76h3.13Zm-.97,9.05h1.38c2.69,0,4.3-1.29,4.3-3.57,0-1.08-.32-2.17-1.55-2.87-.88-.5-1.87-.56-2.81-.56h-1.32v7Z"></path><path class="cls-1" d="M186.18,27.54c0-5.83,4.54-10.1,10.16-10.1s10.16,4.28,10.16,10.1-4.51,10.1-10.16,10.1-10.16-4.3-10.16-10.1Zm2.23,0c0,4.48,3.54,8.05,7.94,8.05s7.94-3.57,7.94-8.05-3.54-8.05-7.94-8.05-7.94,3.57-7.94,8.05Z"></path><path class="cls-1" d="M130.42,54.16c0,6.52-4.89,11.51-11.54,11.51s-11.54-4.99-11.54-11.51,4.89-11.51,11.54-11.51,11.54,4.99,11.54,11.51Zm-3.39,0c0-4.92-3.39-8.38-8.15-8.38s-8.15,3.46-8.15,8.38,3.39,8.38,8.15,8.38,8.15-3.46,8.15-8.38Z"></path><path class="cls-1" d="M139.04,45.71c1.32,0,3.28,.09,4.74,1.08,1.14,.76,2.14,2.25,2.14,4.33,0,2.99-1.96,5.18-4.92,5.39l6.21,8.73h-2.64l-5.94-8.55h-.56v8.55h-2.17v-19.53h3.13Zm-.97,9.05h1.38c2.69,0,4.3-1.29,4.3-3.57,0-1.08-.32-2.17-1.55-2.87-.88-.5-1.87-.56-2.81-.56h-1.32v7Z"></path><path class="cls-1" d="M156.61,47.76v17.48h-2.17v-17.48h-4.74v-2.05h11.65v2.05h-4.74Z"></path><path class="cls-1" d="M167.65,53.64h10.01v-7.94h2.17v19.53h-2.17v-9.55h-10.01v9.55h-2.17v-19.53h2.17v7.94Z"></path><path class="cls-1" d="M185.01,55.49c0-5.83,4.54-10.1,10.16-10.1s10.16,4.28,10.16,10.1-4.51,10.1-10.16,10.1-10.16-4.3-10.16-10.1Zm2.23,0c0,4.48,3.54,8.05,7.94,8.05s7.94-3.57,7.94-8.05-3.54-8.05-7.94-8.05-7.94,3.57-7.94,8.05Z"></path><path class="cls-1" d="M214.05,45.71c1.96,0,3.6,.23,4.92,1.38,1.44,1.23,1.79,2.96,1.79,4.19,0,2.75-1.73,5.48-6.18,5.48h-1.9v8.49h-2.17v-19.53h3.54Zm-1.38,8.99h1.79c2.58,0,4.13-1.29,4.13-3.54,0-3.1-2.9-3.4-4.31-3.4h-1.61v6.94Z"></path><path class="cls-1" d="M234.32,59.74h-8.32l-2.34,5.51h-2.4l8.99-20.47,8.76,20.47h-2.4l-2.28-5.51Zm-.85-2.05l-3.28-7.82-3.34,7.82h6.62Z"></path><path class="cls-1" d="M253.08,47.76h-7.97v5.8h7.73v2.05h-7.73v7.58h7.97v2.05h-10.13v-19.53h10.13v2.05Z"></path><path class="cls-1" d="M258.26,45.71h3.98c1.96,0,4.74,.21,7.2,2.28,1.79,1.49,3.34,3.98,3.34,7.5,0,4.1-2.02,6.3-3.43,7.5-1.79,1.52-3.66,2.25-7.14,2.25h-3.95v-19.53Zm2.17,17.48h1.9c1.55,0,3.69-.18,5.59-1.76,1.46-1.23,2.64-3.16,2.64-5.94,0-4.69-3.28-7.73-8.23-7.73h-1.9v15.43Z"></path><path class="cls-1" d="M280.14,45.71v19.53h-2.17v-19.53h2.17Z"></path><path class="cls-1" d="M301.31,50.01c-.61-.61-1.55-1.35-2.55-1.81-1.02-.47-2.23-.76-3.37-.76-4.51,0-7.85,3.63-7.85,8.14,0,5.3,4.3,7.97,7.88,7.97,1.32,0,2.61-.38,3.63-.91,1.11-.56,1.9-1.29,2.25-1.64v2.69c-2.17,1.55-4.42,1.9-5.89,1.9-5.8,0-10.1-4.39-10.1-10.04s4.36-10.16,10.22-10.16c1.17,0,3.43,.15,5.77,1.93v2.69Z"></path><path class="cls-1" d="M315.21,49.57c-.26-.53-.7-1.11-1.14-1.46-.38-.29-1.08-.67-2.2-.67-1.93,0-3.28,1.2-3.28,3.02,0,.76,.2,1.2,.73,1.7,.59,.59,1.32,.91,2.05,1.23l1.87,.82c1.14,.5,2.2,1.03,3.02,1.84,1,1,1.41,2.14,1.41,3.54,0,3.6-2.66,6-6.18,6-1.29,0-2.9-.26-4.25-1.58-.97-.94-1.55-2.28-1.82-3.46l2.11-.59c.15,1.02,.61,1.9,1.17,2.49,.85,.85,1.82,1.08,2.81,1.08,2.66,0,3.92-1.9,3.92-3.87,0-.88-.26-1.64-.97-2.28-.56-.53-1.32-.88-2.34-1.35l-1.76-.82c-.76-.35-1.73-.76-2.61-1.61-.85-.82-1.35-1.73-1.35-3.19,0-3.02,2.31-5.04,5.48-5.04,1.2,0,2.17,.23,3.13,.88,.79,.53,1.46,1.32,1.9,2.17l-1.73,1.14Z"></path><path class="cls-1" d="M138.14,85.63c0,1.64,0,3.43,1.55,4.74,.79,.67,2.14,1.11,3.22,1.11s2.43-.44,3.22-1.11c1.55-1.32,1.55-3.1,1.55-4.74v-11.98h2.17v12.56c0,1.64-.18,3.22-1.23,4.69-1.17,1.61-3.22,2.64-5.71,2.64s-4.54-1.02-5.71-2.64c-1.05-1.46-1.23-3.05-1.23-4.69v-12.56h2.17v11.98Z"></path><path class="cls-1" d="M159.22,73.66c1.32,0,3.28,.09,4.74,1.08,1.14,.76,2.14,2.25,2.14,4.33,0,2.99-1.96,5.18-4.92,5.39l6.21,8.73h-2.64l-5.94-8.55h-.56v8.55h-2.17v-19.53h3.13Zm-.97,9.05h1.38c2.69,0,4.3-1.29,4.3-3.57,0-1.08-.32-2.17-1.55-2.87-.88-.5-1.87-.56-2.81-.56h-1.32v7Z"></path><path class="cls-1" d="M182.06,83.38h8.14v.47c0,2.17-.64,4.51-1.87,6.18-.59,.79-2.78,3.51-7.26,3.51-5.8,0-10.13-4.42-10.13-10.1s4.36-10.1,10.19-10.1c1.87,0,4.07,.47,5.97,1.93,.88,.67,1.7,1.55,2.25,2.31l-1.61,1.46c-.56-.79-1.2-1.49-1.84-2.02-.94-.76-2.4-1.64-4.74-1.64-4.71,0-7.99,3.54-7.99,8.08,0,5.33,4.25,8.02,7.94,8.02,2.61,0,4.86-1.32,5.97-3.28,.35-.61,.73-1.55,.79-2.78h-5.8v-2.05Z"></path><path class="cls-1" d="M205.51,75.71h-7.97v5.8h7.73v2.05h-7.73v7.58h7.97v2.05h-10.13v-19.53h10.13v2.05Z"></path><path class="cls-1" d="M213.83,73.66c1.32,0,3.28,.09,4.74,1.08,1.14,.76,2.14,2.25,2.14,4.33,0,2.99-1.96,5.18-4.92,5.39l6.21,8.73h-2.64l-5.94-8.55h-.56v8.55h-2.17v-19.53h3.13Zm-.97,9.05h1.38c2.69,0,4.3-1.29,4.3-3.57,0-1.08-.32-2.17-1.55-2.87-.88-.5-1.87-.56-2.81-.56h-1.32v7Z"></path><path class="cls-1" d="M228.76,73.66v19.53h-2.17v-19.53h2.17Z"></path><path class="cls-1" d="M245.13,75.71h-7.97v5.8h7.73v2.05h-7.73v7.58h7.97v2.05h-10.13v-19.53h10.13v2.05Z"></path><path class="cls-1" d="M259.03,77.52c-.26-.53-.7-1.11-1.14-1.46-.38-.29-1.08-.67-2.2-.67-1.93,0-3.28,1.2-3.28,3.02,0,.76,.2,1.2,.73,1.7,.59,.59,1.32,.91,2.05,1.23l1.87,.82c1.14,.5,2.2,1.03,3.02,1.84,1,1,1.41,2.14,1.41,3.54,0,3.6-2.66,6-6.18,6-1.29,0-2.9-.26-4.25-1.58-.97-.94-1.55-2.28-1.82-3.46l2.11-.59c.15,1.02,.61,1.9,1.17,2.49,.85,.85,1.82,1.08,2.81,1.08,2.66,0,3.92-1.9,3.92-3.87,0-.88-.26-1.64-.97-2.28-.56-.53-1.32-.88-2.34-1.35l-1.76-.82c-.76-.35-1.73-.76-2.61-1.61-.85-.82-1.35-1.73-1.35-3.19,0-3.02,2.31-5.04,5.48-5.04,1.2,0,2.17,.23,3.13,.88,.79,.53,1.46,1.32,1.9,2.17l-1.73,1.14Z"></path><path class="cls-1" d="M124.71,76.21c-.26-.25-1.49-1.42-2.21-1.72-.58-.24-1.75-1.02-3.35-1.01-2.49,.01-4.99,1.02-4.81,3.05,.15,1.69,3.48,2.49,4.53,2.84l2.84,.86c1.64,.53,3.08,.99,4.26,1.87,1.43,1.06,2.26,2.5,2.26,4.29,0,4.54-4.41,7.16-9.55,7.09-1.85-.03-4.28-.18-6.56-1.87-1.37-1.02-2.56-2.55-2.68-4.74l3.24-.6c.14,.33,.17,1.36,1.49,2.64,1.42,1.1,3.07,1.29,4.5,1.29,3.83,0,5.91-1.65,5.86-3.67-.07-2.76-3.2-3.03-4.93-3.67l-2.66-.84c-1.09-.38-2.34-.58-4.06-1.75-1.44-.98-2.13-2.09-2.13-3.65,.01-3.45,3.22-6.39,8.45-6.29,1.72,.03,3.89,.63,5.16,1.39,1.09,.65,2.55,1.92,3.12,2.99l-2.77,1.52Z"></path></g><g><path class="cls-2" d="M60.02,66.15c19.7-8.94,31.02-23.71,31.07-23.78-.69-1.9-1.52-3.73-2.49-5.47-.08,.11-11.79,15.35-29.96,25.1-18.11,9.72-36.79,10.62-37.03,10.63,.38,.73,.77,1.45,1.19,2.16h0s17.48,.33,37.22-8.63Z"></path><path class="cls-2" d="M66.74,42.53c5.93-5.78,12.37-15.94,12.77-16.57-6.56-5.41-14.97-8.66-24.14-8.66-20.97,0-37.97,17-37.97,37.97,0,4.29,.72,8.4,2.03,12.24,.12,0,10.26-.69,22.14-6.49,11.95-5.83,19.04-12.53,25.16-18.5Z"></path><path class="cls-2" d="M87.59,35.18c-1.88-3.01-4.17-5.74-6.79-8.11,0,.03-.91,2.76-9.14,12.5-8.28,9.78-17.41,17.26-29.44,23.02-11.97,5.73-22.03,6.61-22.16,6.62,.25,.62,.51,1.23,.78,1.84,.24,0,17.4-.45,37.07-10.76,18.17-9.52,29.33-24.63,29.68-25.11Z"></path><path class="cls-2" d="M64.38,72.47c16.15-5.27,25.59-12.63,28.92-15.57,.02-.54,.04-1.09,.04-1.64,0-3.85-.58-7.56-1.64-11.07-.07,.1-10.39,13.91-30.47,23.11-17.23,7.89-31.51,8.58-32.41,8.68-.89,.1-5.06,.16-5.15,.17,.29,.44,.59,.87,.89,1.29,.28,.02,19.36,1.71,39.83-4.97Z"></path><path class="cls-2" d="M29.02,79.4c-.9,0-2.96,.01-2.96,.01h0c6.96,8.45,17.51,13.83,29.31,13.83,19.58,0,35.69-14.82,37.74-33.85-.06,.05-10.28,8.98-28.28,14.74-18.06,5.77-34.91,5.27-35.81,5.27Z"></path></g></svg>