<svg id="Camada_2" xmlns="http://www.w3.org/2000/svg" viewBox="0 0 63.61 63.61"><defs><style>
      .cls-1 {
        fill: #933;
      }
    </style></defs><g id="Camada_1-2"><g><path class="cls-1" d="M35.7,40.92c16.5-7.49,25.98-19.86,26.02-19.92-.57-1.59-1.27-3.12-2.08-4.58-.07,.09-9.88,12.86-25.1,21.02-15.17,8.14-30.81,8.9-31.02,8.91,.32,.61,.65,1.22,1,1.81h0s14.64,.28,31.18-7.23Z"></path><path class="cls-1" d="M41.32,21.13c4.97-4.84,10.36-13.35,10.7-13.88C46.53,2.72,39.48,0,31.8,0,14.24,0,0,14.24,0,31.8c0,3.59,.6,7.04,1.7,10.26,.1,0,8.59-.58,18.55-5.43,10.01-4.88,15.95-10.5,21.08-15.5Z"></path><path class="cls-1" d="M58.79,14.98c-1.58-2.52-3.49-4.81-5.69-6.79,0,.02-.76,2.31-7.66,10.47-6.93,8.19-14.58,14.45-24.66,19.28-10.02,4.8-18.46,5.53-18.56,5.54,.21,.52,.42,1.03,.66,1.54,.2,0,14.57-.38,31.05-9.02,15.22-7.97,24.57-20.63,24.86-21.03Z"></path><path class="cls-1" d="M39.35,46.22c13.53-4.41,21.44-10.58,24.22-13.04,.02-.46,.03-.91,.03-1.37,0-3.22-.48-6.34-1.38-9.27-.06,.08-8.7,11.65-25.52,19.35-14.44,6.61-26.4,7.18-27.15,7.27-.74,.08-4.24,.14-4.32,.14,.24,.37,.49,.73,.75,1.08,.23,.02,16.22,1.43,33.36-4.16Z"></path><path class="cls-1" d="M9.73,52.01c-.76,0-2.48,0-2.48,0h0c5.83,7.08,14.67,11.59,24.55,11.59,16.4,0,29.89-12.41,31.61-28.35-.05,.04-8.61,7.53-23.69,12.34-15.13,4.83-29.24,4.41-30,4.41Z"></path></g></g></svg>