<?xml version="1.0" encoding="UTF-8"?>
<svg id="Camada_2" data-name="Camada 2" xmlns="http://www.w3.org/2000/svg" viewBox="0 0 327 192.68">
  <defs>
    <style>
      .cls-1 {
        fill: lime;
        fill-rule: evenodd;
      }
    </style>
  </defs>
  
  <g id="FUNDO">
    <path class="cls-1" d="m28.5,0l149.95,14.96,1.09.13,1.33-.04,1.29,1.08.11.43.76.81.23.19,1.16.4.19.29,1.21.31.56.75.46-.13,1.08-.29.9.29,1.08-.11,1.35,1.07h.73l.58,1.29,1.98.63,1.15.31.79.88.87.4,1.88-.04.92-.58.6.54.46.94,2.73.17.6.56,1.38.31.9.63,23.05,10.82,1.5,1.83,3.52,2.81,3.76,17.7-.49,7.72-.57,1.4-.63,1.26-.9,1.23-2.21,1.06-1.13,1.41.98,1.73,19.83-5.33,2.51-.82.48-2.84,10.87-3.16,4.83-3.62,1.08-.79,1.58-.29,2.58-2.41,1.13-.94,1.43-.61.98-.97,2.02-.3,16.85.29,1.29-1.23.48-.1.52-.4.73-.04,1.04.25.67-.46.31-.85,1.85-2,.73-.25,1.48-1.82.5-1.29.19-1.29,1.46-.77-.06-.98,1-1.29,2.06-2.3.44-.92.98-.96.35-.1.69.48.81.77,1.21-.33,1.58.42.5-.46,2.25,2.16.08,1.87-1.25,7.28-.29.83.5.13.37.67.5.62-.04.96-.12.58.12.54-.29.5.27.38.06.02h-.03s2.16,1.24,2.16,1.24l-.39,1.29.81.88.48-.79,1.1.65-.77.96-1.02.15-.4-.69-1.4.81-.87-.08-1.04.71-.62.33-.87-.37-.96,1.29h-.79l-.33-1.29h-1.29l-1,1.08-1.08.17-.29-.92.33-1.12-1.5,1.87-1.08,1.79-.67.46-.33-.54-.67,1.29h-.67l-.17-1.21-.62,1.16-.54.71-.79-.25-.08-.75-.67,1.04h-.62l-.71,1.54-2.12,1.66-.75,2.04-.71.87-.25.83-.58.46-.13.71h.75l.08.87-2.04,1.83v.54l1.46.83.62,1.87.17.96,1.66-.04.46-1.29-.13-1,.54-.17.54,1.95-.71,1.21-2.7,1.33-.71-.25.04-.79-.54-1.08-1.08,2-1.04,1.08-.75-.12.13-.79v-1.12l-1.17-1.25v1.33l-.17,1.54.46.54-.67.25-2.37.17-1.46.33-1.08-.29-2.29.17-.46-.38-.67.04-1.83,1.29-1.25.04-1.79.96-1.02.33-.93.79-.04.77-1.54.87.46.77.73.6.17.71-.64.81.04.41-.5,1.09.17.52-.44.73-.46,1.21h-.5l-.56.65-.5,1.73-.81.25-.44.67-.48-.02-.13.73-.92,1.15-.1-.31-.86.63.63-1.55-.48-.52-.83.21-1.33-1.34-.47-.84.33-.85,1.88-2.02-1.26.64-1.03.95-.54,1.09.14,1.18.52.56.15,1.57.56.6.74,1.93-.04,1.46-.96,2.16-1.29.75-.91,2.33-.67,1.12v.71l-.33.46-.08-.46-.12-.42-1.17,2.08-.13.54-.29.46-.13-1.12.3-1.26.66-1.11-.17-.73.71-.92-.19-.27,1-.54-1.38.02-.4-.81.35-.54-.04-.25-.52.04-.15-.48-.37.46-.94-1.19-.02-1.09.81-1.19.27-1.65-.92-1.52.65-1.23.96-.58-.29-.38.27-1.09-.31-.44.04.33-.31,1.09-1.15.92-.75.54-.48-.06.54.81-.21.67-.18,1.68.25.66-.17.79.08,1.12-.12,2.25-.33.08-1.37-1.62-1.12-.17-.71-1.29-.54-.04-.21-.58.5-1.21-.83,1.12v1l.83.37.66,1.08,1.29.5,1.29,1.58.83.5.17,1-.33,1.21-.83-.08-.37-1-.54-.25.5,1.41,1.25.79.33.79-.38.33-.08.54-1.21-.25,1.46,1.25-.46.79-.71-.33-.58-1.04-1.41-.04-.96-.46.79.96.93.32h.69s.46,1.43.46,1.43l1,.25.79-.21.54.47.3,1.07-.44,1.11-.6-.29-.04.56.48.48.21,1.25-.35.6h-.75l-.27.31-1.54.42-.58.54-.73-.25-.56-1.21-.4.25-.04,1.73-.21.67,1.15-.36,2.33-.35.46.21.17,1.71.56.25.06-.73.6-1.15.29-.08.44.98-.27,1.23-.38.02-1.21,1.02-.42.86-.49.4-.79-.5-.79.12-.46-1.25-.13.79-.79.33-.79-.37-.79-.04.62.75,1.37.25.37.58-.58.5.25.42-1.54.67-1.04-.42.87.83,1.46.12,1.04-.96.25.42.41.17-1.08,1.25-1,.04-.13-.37-.71.08-.37.29-1.41.13-2.7,1.62-2.91,2.37-.96,1.79-.5.08-.58-.37-1.66.21-1.12,1-2.16,2.87v.66l-.92.79-.58-.04-.08.75-1,1.12-.67-.29-.62.17-.29.54-1.21-.12-.62.83-1.75.21-.29.62-1.12-.08-.21.71h-1.37l-.33.29.42.29-.13.96-.79,1.12-.5.08-.5.71-.96.25-1,1.62-.83,1.66v1.95l-.29,3.58.17,1.62-.33,2.49.62,1.58.25,2.5.5,1.04.58,2.79.75,1,.42,1.04-.5,1.33-.17,1.75.41.58.62,3.7,1.16.75.37,1.7-.67.67.29.42-.21,2.04-.29.54.13,1-1,2.04-.54,1.37-.71,1.04-.17,1.46-.96.33-1.08.37-1.08-.29-.54-.71-1.21-.33.67-.29-1.4-1.13.15-.98-.42-.77-.98-.04-.44-.4.06-1.52-.17-1.17-1.42-1.09-.11-.69.46-.54.21-.96.85-.84-1.08.29-.46-.33v.48l-.37.52-.29-1.06-.46.13-.23-.56-.71-.83-.08-1.11-.33-.71,1.42-2.02-.04-1.06-.83-.35-.44.35.21.48-.67.94-.31.29-.69-1.17.04-.86,1.13-2.11.77-2.69.1-1.34-.75-1.44-.85-.15-.52-.83.04-.42h-.5l-.83-.61-.14-1.19-.4-.13-.6-.61-.58-2-1.31-.46-.75-.42-1.15.19-.77.6v.27l-.19.19-.48-.21-1.48,1.48-1.06.13-1.67.25-.27-.42.15-.44.17.38.27-.1-.29-.54-.56-.81-1.42-.98.19-.06.75.35.19-.38-1.08-.77-.21-.61-.5-.06-.15.52.56.77-.88-.5-.9-.79h-1.48l-1.5-.21.21-.29,1.35.08.69-.21-.27-.35-1.25-.08-1.27.9-.52-.27-1.73.23-.67-.48-.83.35-1.62-.08-.92.37-1.12-.96-.04-.67.17-.75-.71-.12-.5,1-.54.92-.83-.17-.71.25-1.29-.21-3.41.62-.96.83-1.91.79-1.04,1.08v.79l.75-.29.66-.67.38.08.41.54,1,.42-.38.42-1.83.71.04,1,.33.83,1.83.62,1.37,1.04-.08.37-.87.25-.37.71-.04-1.12-.58-.37-.67.08-.58-.79-.83-.33-.83-1.25-1.04.08.5.96-.04,1.41-.87.5-.45-.73-.96-.69-.85.63-.58.67-1.44-.44-.79-.48-.96.17-.6-.27.46-.58.77-.61-.4-.63-1.17.13-.35-.44v-.86l-.38-.42-.79.29-.62-.21.44-.67-.62-.27-1.17.44-.08.58.19.71-1.03.14-3.33-.33-.46-.54-2.7-.67h-1.5l-1.95.42-.79.54-.83.08-.96,1.37-1.29.17.21-1.04-.29-.87.66-.92-.42-1.21-.08.71-1.12.96h-.58l-.62-.83.66,1.71-.04,1.16.25,1.16-.75.62h-.75l-1.83,1.66-2.45,1.21-.75-.04-1.08.91-.79.08,1-.87-.87-.62-.54.29-.42-.29-1.08.62.62.58-1.21.46-.62-.5.08,1.45-1.04.5-.58-.37-1.04,1.29.67.75-1.17.91-.83.37.38,2.2-.79,1.12-.5,1.66-.67,1.41.5.87-.13,2.5.29.79-.37,1.25-.59,1.71-.51-.25-.35-.71-1.05-.25-1.08-.54-1.9-.64-.94-.93-.73-.41-.73.1-.68-.26-.14-.15-.49-.58.06-1.5-1.16-3.38-.1-.35v-.3s.11-1.07.11-1.07l.1-1.02-.96-1-.54-.96-.27-1.13-.9-.48-.25-.73-.48-.31-.75-2.11-.29-.79-.63-.31-.08-1.36-.15-.88-.31-.5-.44-1.21-.9-1.38-1.13-.94-.5-.86-.76-.39-.74.14-.25-.33-.44-.22-1.09.08-.99-.15h-1.04s-.32.69-.32.69l-.46.08-.11-.18-.43-.1-.67.24-.6.6-.83,1.56-.5.64.11.3-.13.49-.57.15-.82.66-.11.36-.54.22-.49-.08-.34-.4-1.17-.6-.97-.31-.16-.4-1.18-.6h-.66s-.39-.41-.39-.41l-.07-.37-.21-.42-.55-.22-.36.02-.48-.48h-.35s.04-.3.04-.3l-.26-.82-.79-.94-1-1.19v-.42l.67-.17.33-.25-.04-.88-.67-.63-.19-.44-.33-.06-.4-.48-.13-1.27-.52-.83-.79-.52-.71-.21.29-.44.06-.52-.87-.73-.9-.33.19-.56-.52-.77-.6-.02-.1-.52-.5-.61-.92-1.31-1.08-.67-9.34-.29-.11,2.11-16.52-.5-19.63-8.98.21-.46-.29-.5-13.83.24-.12-.93.29-1.41-.25-1.75-2-3.04-1.29-1.33-.75.17-.58.04-.37-.21.04-1-.25-.62-1.41-.42-.96-.04-1.54-.83v-1l-.71-.79h-1.54l-.85-.16-.92-.56-1.17-.33-1.98.02-.58-.42-.31-.96.25-.17.29-.94.42-1.75-.35-1.19-.94-1.06-.08-.31.23-.4-.49-.38-.87-1.21-1.21-2.58-.25-2-.92-.67-.17-.71.08-1.08-.29-1.21.04-.5.5.08.75-.83-.04-.92-.62-.62-.87-.54-.25-1.12-.54-.29-.13-.92.29-1.04-.12-.54.54-.54-.12-.71.41-.58.5.33.5,1.04.96.5-.37-.5-.38-.87-.17-1.5-.46-.33.08-.79h.5l.42.37,1-.29,1.04-.25-1.46-.17-.29-.42-.92-.04-.13-.46-.29.25-.75-.46-.04,1.29v1.25l-.29-.17-.46.04-.21-.58-1.33-1.25-.29-.83.33-.71-.17-1.12-2.41-3.7-.25-.67.21-.75.5-.87-.12-1.16-.5-1v-.54l.67-1.04.21-1.29-.08-2.33-.92-2.12-1-1.37v-1.29l.62-1.33,1.71-1.16.58-1.54-.38-.25-.17-.75.62-.62.62-1.29.25-2.37-.42-1.41.04-.91.5-.67-.79-1.25.08-1.5.58-2.2-.17-2.2.41-1.01,1.5-1.92.33-1.17.58-.58.67-1.92,1.08-1.25.75-1.5.42-3.08,1.42-2.75.25-2.58,1.58-3.5.58-1.25.91-1.58-.13-.83v-.87l1.17-1.5-.04-.91.37-.29.67.5,1.95.08.83.58.71-.12,1.04.62.54,1.29-.21-1.41-.58-.75-1.21-.21-.96-.79-1.58-.13-1.58-.42-.13-.62.42-.46.37.17.66-.79.04-1.12.33-.87-.91-.37-.42-.5.29-.91h.58l.46-.67-.08-.42-.75-.21-.08-.75.25-1.46-.29-1.5.58-2.95-.62-2.12-.04-1.04.92-2.12.17-1.17.42-.12,2.66,2.33,1.41.92,2.58.17.92.46.54,1.04.54-.25.54.04.38.71-.33.67-1.21.46-1.08,1.08-.04.58h.91l.42-.71,1.21-1,.58-.13.13.92-.87.75-.67,1.37-.04,1.41-.38.42-.17-.87-.75.62-.25-.46-.83,1.04.33.58.96.5,1.25-.83.37-1,.62-.71.04-1.29.66-.58.33-1.46.96-.62.96-1.16-.54-.66-.08-.79-.37-.33.67-.91.37-.46-.83-.58-.17-.96,1-.75.12-.79-1.25-.91-.45-2.05h0Zm271.44,82.08l.23.44.64-.05.5-.49h.8s-.52-.54-.52-.54h-.96s-.23.31-.23.31l-.46.33h0Zm-17.51,4.74l-.48.44.83-.26.38-.38,1.27-.06,1.17-.35,1.9-.04.87-.5,1.65.06.42-.38.49.1,1.55-.49.62-.58-.96.34-.6-.27-1.12.48.41-.61.44-.5-.04-.29-1.62.9-1.81.02-1.48.44-1.21-.29-1.65.69-1.27.19-.65.81.17.51.73.04h0ZM28.54,5.78l-1.1.94-.02,1.59.79,1.73.46-.38-.65-2.15.21-.96.65-.27-.33-.5h0Zm109.51,168.44l.48-.33,1.21-1.48.83-1.11-1.19.88-1.33,2.05h0Zm-1.31,3.01l.4-.27.54-1.42-.04-.56-.9,2.25h0Zm-.51,7.85l-.54-1.95.17-2.58.71-2.75-1.04,2.58-.13,2.62s.87,2.08.83,2.08Z"/>
  </g>
</svg>