<svg width="548" height="118" viewBox="0 0 548 118" fill="none" xmlns="http://www.w3.org/2000/svg">
<path d="M51 9L548 9L548 109L51 109L75.5069 78.5455L51 57.8636L69.1351 39L51 9Z" fill="#642424"/>
<path d="M218.851 42C218.851 40.1333 219.264 38.52 220.091 37.16C220.944 35.8 222.051 34.76 223.411 34.04C224.771 33.2933 226.251 32.92 227.851 32.92C229.184 32.92 230.371 33.0933 231.411 33.44C232.451 33.7867 233.384 34.2533 234.211 34.84C235.064 35.4267 235.798 36.0667 236.411 36.76V30.32C235.264 29.4133 234.011 28.7067 232.651 28.2C231.318 27.6933 229.624 27.44 227.571 27.44C225.438 27.44 223.451 27.7867 221.611 28.48C219.798 29.1733 218.211 30.1733 216.851 31.48C215.518 32.7867 214.478 34.3333 213.731 36.12C213.011 37.88 212.651 39.84 212.651 42C212.651 44.16 213.011 46.1333 213.731 47.92C214.478 49.68 215.518 51.2133 216.851 52.52C218.211 53.8267 219.798 54.8267 221.611 55.52C223.451 56.2133 225.438 56.56 227.571 56.56C229.624 56.56 231.318 56.3067 232.651 55.8C234.011 55.2933 235.264 54.5867 236.411 53.68V47.24C235.798 47.9333 235.064 48.5733 234.211 49.16C233.384 49.7467 232.451 50.2133 231.411 50.56C230.371 50.9067 229.184 51.08 227.851 51.08C226.251 51.08 224.771 50.72 223.411 50C222.051 49.2533 220.944 48.2 220.091 46.84C219.264 45.4533 218.851 43.84 218.851 42ZM240.382 46.8C240.382 48.6933 240.822 50.3733 241.702 51.84C242.609 53.28 243.823 54.4 245.343 55.2C246.889 56 248.636 56.4 250.583 56.4C252.529 56.4 254.263 56 255.783 55.2C257.329 54.4 258.543 53.28 259.423 51.84C260.329 50.3733 260.783 48.6933 260.783 46.8C260.783 44.88 260.329 43.2 259.423 41.76C258.543 40.32 257.329 39.2 255.783 38.4C254.263 37.6 252.529 37.2 250.583 37.2C248.636 37.2 246.889 37.6 245.343 38.4C243.823 39.2 242.609 40.32 241.702 41.76C240.822 43.2 240.382 44.88 240.382 46.8ZM245.663 46.8C245.663 45.76 245.876 44.84 246.303 44.04C246.756 43.24 247.356 42.6267 248.103 42.2C248.849 41.7733 249.676 41.56 250.583 41.56C251.489 41.56 252.316 41.7733 253.063 42.2C253.809 42.6267 254.396 43.24 254.823 44.04C255.276 44.84 255.503 45.76 255.503 46.8C255.503 47.84 255.276 48.76 254.823 49.56C254.396 50.3333 253.809 50.9467 253.063 51.4C252.316 51.8267 251.489 52.04 250.583 52.04C249.676 52.04 248.849 51.8267 248.103 51.4C247.356 50.9467 246.756 50.3333 246.303 49.56C245.876 48.76 245.663 47.84 245.663 46.8ZM276.549 44.8V56H281.909V44.24C281.909 42.0267 281.376 40.3067 280.309 39.08C279.243 37.8267 277.616 37.2 275.429 37.2C274.123 37.2 273.003 37.48 272.069 38.04C271.163 38.5733 270.429 39.36 269.869 40.4V37.6H264.669V56H269.869V44.8C269.869 44.0267 270.016 43.36 270.309 42.8C270.603 42.24 271.029 41.8133 271.589 41.52C272.149 41.2 272.789 41.04 273.509 41.04C274.576 41.04 275.349 41.36 275.829 42C276.309 42.64 276.549 43.5733 276.549 44.8ZM287.933 49.64L285.413 52.88C286.106 53.5467 286.88 54.1733 287.733 54.76C288.613 55.32 289.586 55.7733 290.653 56.12C291.746 56.4667 292.946 56.64 294.253 56.64C296.36 56.64 298.013 56.1333 299.213 55.12C300.413 54.08 301.013 52.64 301.013 50.8C301.013 49.68 300.76 48.7733 300.253 48.08C299.746 47.3867 299.066 46.8133 298.213 46.36C297.386 45.88 296.48 45.4533 295.493 45.08C294.693 44.7333 293.973 44.44 293.333 44.2C292.72 43.96 292.24 43.6933 291.893 43.4C291.573 43.08 291.413 42.72 291.413 42.32C291.413 41.8667 291.573 41.5333 291.893 41.32C292.24 41.08 292.706 40.96 293.293 40.96C294.173 40.96 295.066 41.1867 295.973 41.64C296.906 42.0933 297.706 42.68 298.373 43.4L300.653 40.2C300.066 39.6133 299.386 39.1067 298.613 38.68C297.84 38.2267 297 37.8667 296.093 37.6C295.186 37.3333 294.213 37.2 293.173 37.2C291.946 37.2 290.826 37.4 289.813 37.8C288.826 38.1733 288.04 38.7467 287.453 39.52C286.866 40.2667 286.573 41.1867 286.573 42.28C286.573 43.4267 286.826 44.3733 287.333 45.12C287.866 45.84 288.533 46.4267 289.333 46.88C290.133 47.3067 290.96 47.68 291.813 48C292.72 48.2933 293.466 48.5733 294.053 48.84C294.64 49.1067 295.08 49.4133 295.373 49.76C295.693 50.08 295.853 50.48 295.853 50.96C295.853 51.4933 295.666 51.92 295.293 52.24C294.92 52.5333 294.386 52.68 293.693 52.68C293.16 52.68 292.586 52.5733 291.973 52.36C291.386 52.1467 290.76 51.8267 290.093 51.4C289.426 50.9467 288.706 50.36 287.933 49.64ZM309.951 48.8V37.6H304.591V49.36C304.591 51.5467 305.125 53.2667 306.191 54.52C307.285 55.7733 308.925 56.4 311.111 56.4C312.418 56.4 313.525 56.1333 314.431 55.6C315.338 55.04 316.085 54.24 316.671 53.2V56H321.831V37.6H316.671V48.8C316.671 49.5733 316.511 50.24 316.191 50.8C315.898 51.36 315.471 51.8 314.911 52.12C314.378 52.4133 313.738 52.56 312.991 52.56C311.925 52.56 311.151 52.24 310.671 51.6C310.191 50.9333 309.951 50 309.951 48.8ZM326.935 24.8V56H332.135V24.8H326.935ZM334.888 37.6V41.96H346.248V37.6H334.888ZM338.048 31.2V56H343.048V31.2H338.048ZM347.765 46.8C347.765 48.6933 348.205 50.3733 349.085 51.84C349.992 53.28 351.205 54.4 352.725 55.2C354.272 56 356.019 56.4 357.965 56.4C359.912 56.4 361.645 56 363.165 55.2C364.712 54.4 365.925 53.28 366.805 51.84C367.712 50.3733 368.165 48.6933 368.165 46.8C368.165 44.88 367.712 43.2 366.805 41.76C365.925 40.32 364.712 39.2 363.165 38.4C361.645 37.6 359.912 37.2 357.965 37.2C356.019 37.2 354.272 37.6 352.725 38.4C351.205 39.2 349.992 40.32 349.085 41.76C348.205 43.2 347.765 44.88 347.765 46.8ZM353.045 46.8C353.045 45.76 353.259 44.84 353.685 44.04C354.139 43.24 354.739 42.6267 355.485 42.2C356.232 41.7733 357.059 41.56 357.965 41.56C358.872 41.56 359.699 41.7733 360.445 42.2C361.192 42.6267 361.779 43.24 362.205 44.04C362.659 44.84 362.885 45.76 362.885 46.8C362.885 47.84 362.659 48.76 362.205 49.56C361.779 50.3333 361.192 50.9467 360.445 51.4C359.699 51.8267 358.872 52.04 357.965 52.04C357.059 52.04 356.232 51.8267 355.485 51.4C354.739 50.9467 354.139 50.3333 353.685 49.56C353.259 48.76 353.045 47.84 353.045 46.8ZM377.132 37.6H372.052V56H377.132V37.6ZM382.532 43L384.892 38.6C384.519 38.12 384.026 37.76 383.412 37.52C382.826 37.28 382.199 37.16 381.532 37.16C380.572 37.16 379.639 37.5067 378.732 38.2C377.826 38.8667 377.092 39.7733 376.532 40.92C375.972 42.04 375.692 43.3333 375.692 44.8L377.132 46.24C377.132 45.36 377.239 44.6133 377.452 44C377.692 43.36 378.039 42.8667 378.492 42.52C378.946 42.1733 379.492 42 380.132 42C380.666 42 381.106 42.0933 381.452 42.28C381.826 42.44 382.186 42.68 382.532 43ZM387.398 30.48C387.398 31.3067 387.705 32 388.318 32.56C388.931 33.12 389.665 33.4 390.518 33.4C391.371 33.4 392.091 33.12 392.678 32.56C393.291 32 393.598 31.3067 393.598 30.48C393.598 29.6267 393.291 28.9333 392.678 28.4C392.091 27.84 391.371 27.56 390.518 27.56C389.665 27.56 388.931 27.84 388.318 28.4C387.705 28.9333 387.398 29.6267 387.398 30.48ZM387.958 37.6V56H392.998V37.6H387.958ZM402.178 50.28C402.178 49.7467 402.298 49.3067 402.538 48.96C402.778 48.5867 403.151 48.3067 403.658 48.12C404.164 47.9067 404.818 47.8 405.618 47.8C406.604 47.8 407.538 47.9333 408.418 48.2C409.324 48.4667 410.138 48.8667 410.858 49.4V47C410.591 46.68 410.151 46.3467 409.538 46C408.924 45.6533 408.164 45.36 407.258 45.12C406.378 44.88 405.351 44.76 404.178 44.76C401.884 44.76 400.111 45.28 398.858 46.32C397.604 47.36 396.978 48.7733 396.978 50.56C396.978 51.8133 397.271 52.88 397.858 53.76C398.471 54.6133 399.271 55.2667 400.258 55.72C401.244 56.1733 402.311 56.4 403.458 56.4C404.578 56.4 405.644 56.2 406.658 55.8C407.698 55.4 408.538 54.8 409.178 54C409.844 53.2 410.178 52.2133 410.178 51.04L409.538 48.64C409.538 49.52 409.338 50.28 408.938 50.92C408.538 51.5333 408.018 52.0133 407.378 52.36C406.738 52.68 406.018 52.84 405.218 52.84C404.658 52.84 404.138 52.7467 403.658 52.56C403.204 52.3467 402.844 52.0533 402.578 51.68C402.311 51.28 402.178 50.8133 402.178 50.28ZM400.178 42.8C400.444 42.6133 400.858 42.3867 401.418 42.12C401.978 41.8533 402.644 41.6267 403.418 41.44C404.191 41.2533 405.004 41.16 405.858 41.16C406.418 41.16 406.924 41.2133 407.378 41.32C407.831 41.4267 408.218 41.6 408.538 41.84C408.884 42.08 409.138 42.3867 409.298 42.76C409.458 43.1067 409.538 43.5333 409.538 44.04V56H414.538V42.96C414.538 41.7067 414.191 40.6533 413.498 39.8C412.804 38.92 411.844 38.2533 410.618 37.8C409.391 37.3467 407.991 37.12 406.418 37.12C404.711 37.12 403.164 37.36 401.778 37.84C400.391 38.2933 399.218 38.7733 398.258 39.28L400.178 42.8ZM144.42 90.64H159.22L158.54 86.12H145.1L144.42 90.64ZM151.74 78.08L155.94 87.8L155.86 89.24L159.46 97H165.94L151.74 67.36L137.54 97H143.98L147.66 89L147.54 87.72L151.74 78.08ZM180.378 85.8V97H185.738V85.24C185.738 83.0267 185.204 81.3067 184.138 80.08C183.071 78.8267 181.444 78.2 179.258 78.2C177.951 78.2 176.831 78.48 175.898 79.04C174.991 79.5733 174.258 80.36 173.698 81.4V78.6H168.498V97H173.698V85.8C173.698 85.0267 173.844 84.36 174.138 83.8C174.431 83.24 174.858 82.8133 175.418 82.52C175.978 82.2 176.618 82.04 177.338 82.04C178.404 82.04 179.178 82.36 179.658 83C180.138 83.64 180.378 84.5733 180.378 85.8ZM194.521 91.52C194.521 90.96 194.655 90.48 194.921 90.08C195.215 89.68 195.641 89.36 196.201 89.12C196.761 88.88 197.441 88.76 198.241 88.76C199.335 88.76 200.281 88.8933 201.081 89.16C201.881 89.4267 202.655 89.84 203.401 90.4V87.88C203.161 87.5867 202.748 87.28 202.161 86.96C201.575 86.64 200.855 86.36 200.001 86.12C199.148 85.88 198.228 85.76 197.241 85.76C195.721 85.76 194.361 86 193.161 86.48C191.961 86.96 191.015 87.6533 190.321 88.56C189.655 89.4667 189.321 90.5867 189.321 91.92C189.321 93.0667 189.588 94.0533 190.121 94.88C190.655 95.68 191.415 96.3067 192.401 96.76C193.415 97.1867 194.575 97.4 195.881 97.4C197.161 97.4 198.308 97.1867 199.321 96.76C200.361 96.3067 201.188 95.6667 201.801 94.84C202.415 93.9867 202.721 92.9733 202.721 91.8L202.081 89.64C202.081 90.6533 201.881 91.4667 201.481 92.08C201.081 92.6933 200.535 93.1333 199.841 93.4C199.148 93.6667 198.388 93.8 197.561 93.8C196.921 93.8 196.375 93.72 195.921 93.56C195.468 93.3733 195.121 93.12 194.881 92.8C194.641 92.4533 194.521 92.0267 194.521 91.52ZM192.881 83.84C193.175 83.6533 193.601 83.4267 194.161 83.16C194.748 82.8933 195.415 82.6667 196.161 82.48C196.935 82.2667 197.761 82.16 198.641 82.16C199.655 82.16 200.481 82.4 201.121 82.88C201.761 83.3333 202.081 83.9733 202.081 84.8V97H207.081V83.96C207.081 82.7067 206.735 81.6533 206.041 80.8C205.348 79.92 204.388 79.2533 203.161 78.8C201.961 78.3467 200.561 78.12 198.961 78.12C197.308 78.12 195.801 78.36 194.441 78.84C193.081 79.2933 191.935 79.7733 191.001 80.28L192.881 83.84ZM205.721 69.72L201.601 67.76L195.601 74.16L198.521 75.72L205.721 69.72ZM211.896 65.8V97H217.096V65.8H211.896ZM221.968 71.48C221.968 72.3067 222.275 73 222.888 73.56C223.502 74.12 224.235 74.4 225.088 74.4C225.942 74.4 226.662 74.12 227.248 73.56C227.862 73 228.168 72.3067 228.168 71.48C228.168 70.6267 227.862 69.9333 227.248 69.4C226.662 68.84 225.942 68.56 225.088 68.56C224.235 68.56 223.502 68.84 222.888 69.4C222.275 69.9333 221.968 70.6267 221.968 71.48ZM222.528 78.6V97H227.568V78.6H222.528ZM233.988 90.64L231.468 93.88C232.161 94.5467 232.934 95.1733 233.788 95.76C234.668 96.32 235.641 96.7733 236.708 97.12C237.801 97.4667 239.001 97.64 240.308 97.64C242.414 97.64 244.068 97.1333 245.268 96.12C246.468 95.08 247.068 93.64 247.068 91.8C247.068 90.68 246.814 89.7733 246.308 89.08C245.801 88.3867 245.121 87.8133 244.268 87.36C243.441 86.88 242.534 86.4533 241.548 86.08C240.748 85.7333 240.028 85.44 239.388 85.2C238.774 84.96 238.294 84.6933 237.948 84.4C237.628 84.08 237.468 83.72 237.468 83.32C237.468 82.8667 237.628 82.5333 237.948 82.32C238.294 82.08 238.761 81.96 239.348 81.96C240.228 81.96 241.121 82.1867 242.028 82.64C242.961 83.0933 243.761 83.68 244.428 84.4L246.708 81.2C246.121 80.6133 245.441 80.1067 244.668 79.68C243.894 79.2267 243.054 78.8667 242.148 78.6C241.241 78.3333 240.268 78.2 239.228 78.2C238.001 78.2 236.881 78.4 235.868 78.8C234.881 79.1733 234.094 79.7467 233.508 80.52C232.921 81.2667 232.628 82.1867 232.628 83.28C232.628 84.4267 232.881 85.3733 233.388 86.12C233.921 86.84 234.588 87.4267 235.388 87.88C236.188 88.3067 237.014 88.68 237.868 89C238.774 89.2933 239.521 89.5733 240.108 89.84C240.694 90.1067 241.134 90.4133 241.428 90.76C241.748 91.08 241.908 91.48 241.908 91.96C241.908 92.4933 241.721 92.92 241.348 93.24C240.974 93.5333 240.441 93.68 239.748 93.68C239.214 93.68 238.641 93.5733 238.028 93.36C237.441 93.1467 236.814 92.8267 236.148 92.4C235.481 91.9467 234.761 91.36 233.988 90.64ZM259.326 97.4C261.539 97.4 263.433 96.9733 265.006 96.12C266.606 95.24 267.886 93.9333 268.846 92.2L264.326 90.8C263.793 91.68 263.113 92.3467 262.286 92.8C261.486 93.2267 260.513 93.44 259.366 93.44C258.353 93.44 257.486 93.2133 256.766 92.76C256.046 92.3067 255.499 91.6533 255.126 90.8C254.779 89.9467 254.606 88.9067 254.606 87.68C254.633 86.4 254.819 85.3333 255.166 84.48C255.539 83.6 256.059 82.9467 256.726 82.52C257.419 82.0667 258.273 81.84 259.286 81.84C260.113 81.84 260.833 82.0267 261.446 82.4C262.059 82.7733 262.526 83.28 262.846 83.92C263.193 84.56 263.366 85.3333 263.366 86.24C263.366 86.4267 263.313 86.6667 263.206 86.96C263.126 87.2267 263.033 87.44 262.926 87.6L264.326 85.76H252.366V88.96H268.846C268.873 88.8 268.886 88.5867 268.886 88.32C268.913 88.0533 268.926 87.8 268.926 87.56C268.926 85.5867 268.553 83.9067 267.806 82.52C267.059 81.1067 265.966 80.04 264.526 79.32C263.113 78.5733 261.393 78.2 259.366 78.2C257.339 78.2 255.579 78.6 254.086 79.4C252.593 80.1733 251.433 81.28 250.606 82.72C249.806 84.1333 249.406 85.8267 249.406 87.8C249.406 89.7467 249.806 91.44 250.606 92.88C251.433 94.2933 252.593 95.4 254.086 96.2C255.579 97 257.326 97.4 259.326 97.4ZM284.586 71.48C284.586 72.3067 284.892 73 285.506 73.56C286.119 74.12 286.852 74.4 287.706 74.4C288.559 74.4 289.279 74.12 289.866 73.56C290.479 73 290.786 72.3067 290.786 71.48C290.786 70.6267 290.479 69.9333 289.866 69.4C289.279 68.84 288.559 68.56 287.706 68.56C286.852 68.56 286.119 68.84 285.506 69.4C284.892 69.9333 284.586 70.6267 284.586 71.48ZM285.146 78.6V97H290.186V78.6H285.146ZM307.565 85.8V97H312.925V85.24C312.925 83.0267 312.392 81.3067 311.325 80.08C310.258 78.8267 308.632 78.2 306.445 78.2C305.138 78.2 304.018 78.48 303.085 79.04C302.178 79.5733 301.445 80.36 300.885 81.4V78.6H295.685V97H300.885V85.8C300.885 85.0267 301.032 84.36 301.325 83.8C301.618 83.24 302.045 82.8133 302.605 82.52C303.165 82.2 303.805 82.04 304.525 82.04C305.592 82.04 306.365 82.36 306.845 83C307.325 83.64 307.565 84.5733 307.565 85.8ZM318.949 90.64L316.429 93.88C317.122 94.5467 317.895 95.1733 318.749 95.76C319.629 96.32 320.602 96.7733 321.669 97.12C322.762 97.4667 323.962 97.64 325.269 97.64C327.375 97.64 329.029 97.1333 330.229 96.12C331.429 95.08 332.029 93.64 332.029 91.8C332.029 90.68 331.775 89.7733 331.269 89.08C330.762 88.3867 330.082 87.8133 329.229 87.36C328.402 86.88 327.495 86.4533 326.509 86.08C325.709 85.7333 324.989 85.44 324.349 85.2C323.735 84.96 323.255 84.6933 322.909 84.4C322.589 84.08 322.429 83.72 322.429 83.32C322.429 82.8667 322.589 82.5333 322.909 82.32C323.255 82.08 323.722 81.96 324.309 81.96C325.189 81.96 326.082 82.1867 326.989 82.64C327.922 83.0933 328.722 83.68 329.389 84.4L331.669 81.2C331.082 80.6133 330.402 80.1067 329.629 79.68C328.855 79.2267 328.015 78.8667 327.109 78.6C326.202 78.3333 325.229 78.2 324.189 78.2C322.962 78.2 321.842 78.4 320.829 78.8C319.842 79.1733 319.055 79.7467 318.469 80.52C317.882 81.2667 317.589 82.1867 317.589 83.28C317.589 84.4267 317.842 85.3733 318.349 86.12C318.882 86.84 319.549 87.4267 320.349 87.88C321.149 88.3067 321.975 88.68 322.829 89C323.735 89.2933 324.482 89.5733 325.069 89.84C325.655 90.1067 326.095 90.4133 326.389 90.76C326.709 91.08 326.869 91.48 326.869 91.96C326.869 92.4933 326.682 92.92 326.309 93.24C325.935 93.5333 325.402 93.68 324.709 93.68C324.175 93.68 323.602 93.5733 322.989 93.36C322.402 93.1467 321.775 92.8267 321.109 92.4C320.442 91.9467 319.722 91.36 318.949 90.64ZM333.247 78.6V82.96H344.607V78.6H333.247ZM336.407 72.2V97H341.407V72.2H336.407ZM352.445 78.6H347.365V97H352.445V78.6ZM357.845 84L360.205 79.6C359.831 79.12 359.338 78.76 358.725 78.52C358.138 78.28 357.511 78.16 356.845 78.16C355.885 78.16 354.951 78.5067 354.045 79.2C353.138 79.8667 352.405 80.7733 351.845 81.92C351.285 83.04 351.005 84.3333 351.005 85.8L352.445 87.24C352.445 86.36 352.551 85.6133 352.765 85C353.005 84.36 353.351 83.8667 353.805 83.52C354.258 83.1733 354.805 83 355.445 83C355.978 83 356.418 83.0933 356.765 83.28C357.138 83.44 357.498 83.68 357.845 84ZM368.311 89.8V78.6H362.951V90.36C362.951 92.5467 363.484 94.2667 364.551 95.52C365.644 96.7733 367.284 97.4 369.471 97.4C370.777 97.4 371.884 97.1333 372.791 96.6C373.697 96.04 374.444 95.24 375.031 94.2V97H380.191V78.6H375.031V89.8C375.031 90.5733 374.871 91.24 374.551 91.8C374.257 92.36 373.831 92.8 373.271 93.12C372.737 93.4133 372.097 93.56 371.351 93.56C370.284 93.56 369.511 93.24 369.031 92.6C368.551 91.9333 368.311 91 368.311 89.8ZM412.494 85.24C412.494 83.7467 412.281 82.48 411.854 81.44C411.454 80.3733 410.828 79.5733 409.974 79.04C409.121 78.48 408.014 78.2 406.654 78.2C405.401 78.2 404.281 78.4667 403.294 79C402.334 79.5333 401.521 80.32 400.854 81.36C400.454 80.32 399.814 79.5333 398.934 79C398.054 78.4667 396.934 78.2 395.574 78.2C394.348 78.2 393.294 78.4667 392.414 79C391.534 79.5333 390.828 80.3067 390.294 81.32V78.6H385.294V97H390.294V85.8C390.294 85 390.428 84.32 390.694 83.76C390.961 83.1733 391.334 82.7467 391.814 82.48C392.294 82.1867 392.854 82.04 393.494 82.04C394.454 82.04 395.148 82.36 395.574 83C396.001 83.6133 396.214 84.5467 396.214 85.8V97H401.374V85.8C401.374 85 401.508 84.32 401.774 83.76C402.041 83.1733 402.414 82.7467 402.894 82.48C403.374 82.1867 403.934 82.04 404.574 82.04C405.534 82.04 406.228 82.36 406.654 83C407.081 83.6133 407.294 84.5467 407.294 85.8V97H412.494V85.24ZM426.279 97.4C428.492 97.4 430.386 96.9733 431.959 96.12C433.559 95.24 434.839 93.9333 435.799 92.2L431.279 90.8C430.746 91.68 430.066 92.3467 429.239 92.8C428.439 93.2267 427.466 93.44 426.319 93.44C425.306 93.44 424.439 93.2133 423.719 92.76C422.999 92.3067 422.452 91.6533 422.079 90.8C421.732 89.9467 421.559 88.9067 421.559 87.68C421.586 86.4 421.772 85.3333 422.119 84.48C422.492 83.6 423.012 82.9467 423.679 82.52C424.372 82.0667 425.226 81.84 426.239 81.84C427.066 81.84 427.786 82.0267 428.399 82.4C429.012 82.7733 429.479 83.28 429.799 83.92C430.146 84.56 430.319 85.3333 430.319 86.24C430.319 86.4267 430.266 86.6667 430.159 86.96C430.079 87.2267 429.986 87.44 429.879 87.6L431.279 85.76H419.319V88.96H435.799C435.826 88.8 435.839 88.5867 435.839 88.32C435.866 88.0533 435.879 87.8 435.879 87.56C435.879 85.5867 435.506 83.9067 434.759 82.52C434.012 81.1067 432.919 80.04 431.479 79.32C430.066 78.5733 428.346 78.2 426.319 78.2C424.292 78.2 422.532 78.6 421.039 79.4C419.546 80.1733 418.386 81.28 417.559 82.72C416.759 84.1333 416.359 85.8267 416.359 87.8C416.359 89.7467 416.759 91.44 417.559 92.88C418.386 94.2933 419.546 95.4 421.039 96.2C422.532 97 424.279 97.4 426.279 97.4ZM451.667 85.8V97H457.027V85.24C457.027 83.0267 456.493 81.3067 455.427 80.08C454.36 78.8267 452.733 78.2 450.547 78.2C449.24 78.2 448.12 78.48 447.187 79.04C446.28 79.5733 445.547 80.36 444.987 81.4V78.6H439.787V97H444.987V85.8C444.987 85.0267 445.133 84.36 445.427 83.8C445.72 83.24 446.147 82.8133 446.707 82.52C447.267 82.2 447.907 82.04 448.627 82.04C449.693 82.04 450.467 82.36 450.947 83C451.427 83.64 451.667 84.5733 451.667 85.8ZM459.77 78.6V82.96H471.13V78.6H459.77ZM462.93 72.2V97H467.93V72.2H462.93ZM477.568 91.28C477.568 90.7467 477.688 90.3067 477.928 89.96C478.168 89.5867 478.541 89.3067 479.048 89.12C479.555 88.9067 480.208 88.8 481.008 88.8C481.995 88.8 482.928 88.9333 483.808 89.2C484.715 89.4667 485.528 89.8667 486.248 90.4V88C485.981 87.68 485.541 87.3467 484.928 87C484.315 86.6533 483.555 86.36 482.648 86.12C481.768 85.88 480.741 85.76 479.568 85.76C477.275 85.76 475.501 86.28 474.248 87.32C472.995 88.36 472.368 89.7733 472.368 91.56C472.368 92.8133 472.661 93.88 473.248 94.76C473.861 95.6133 474.661 96.2667 475.648 96.72C476.635 97.1733 477.701 97.4 478.848 97.4C479.968 97.4 481.035 97.2 482.048 96.8C483.088 96.4 483.928 95.8 484.568 95C485.235 94.2 485.568 93.2133 485.568 92.04L484.928 89.64C484.928 90.52 484.728 91.28 484.328 91.92C483.928 92.5333 483.408 93.0133 482.768 93.36C482.128 93.68 481.408 93.84 480.608 93.84C480.048 93.84 479.528 93.7467 479.048 93.56C478.595 93.3467 478.235 93.0533 477.968 92.68C477.701 92.28 477.568 91.8133 477.568 91.28ZM475.568 83.8C475.835 83.6133 476.248 83.3867 476.808 83.12C477.368 82.8533 478.035 82.6267 478.808 82.44C479.581 82.2533 480.395 82.16 481.248 82.16C481.808 82.16 482.315 82.2133 482.768 82.32C483.221 82.4267 483.608 82.6 483.928 82.84C484.275 83.08 484.528 83.3867 484.688 83.76C484.848 84.1067 484.928 84.5333 484.928 85.04V97H489.928V83.96C489.928 82.7067 489.581 81.6533 488.888 80.8C488.195 79.92 487.235 79.2533 486.008 78.8C484.781 78.3467 483.381 78.12 481.808 78.12C480.101 78.12 478.555 78.36 477.168 78.84C475.781 79.2933 474.608 79.7733 473.648 80.28L475.568 83.8ZM494.748 65.8V97H499.948V65.8H494.748Z" fill="white"/>
<path d="M38.5022 60.6326V65.1326V66.0348V68.2875H9.39551H4.89551V72.7875C4.89551 77.9094 5.92678 82.9098 7.95396 87.7587L7.96051 87.7743L7.96718 87.79C10.0125 92.5804 12.9692 96.8832 16.7887 100.69C20.6955 104.584 25.4262 107.603 30.9015 109.786L30.9143 109.791L30.9272 109.796C36.5943 112.015 42.9016 113.077 49.7778 113.077C59.1948 113.077 67.401 111.768 74.2414 108.963C81.0465 106.209 86.4972 102.34 90.2637 97.1951C94.0942 91.9961 96.0151 86.0617 96.0151 79.5403C96.0151 73.9534 94.6608 68.9053 91.7401 64.6244C89.5225 61.196 86.5385 58.3482 82.8995 56.0423C83.7981 55.4226 84.6573 54.7673 85.4758 54.0757L85.4973 54.0576L85.5186 54.0391C90.7633 49.4938 93.3049 43.3827 93.3049 36.1876C93.3049 30.1495 91.5847 24.6377 88.1317 19.7983C84.6569 14.9283 79.67 11.2641 73.4658 8.67112C67.1627 6.03677 59.6684 4.81165 51.1329 4.81165C42.8902 4.81165 35.4821 6.35979 29.0448 9.61854L29.0318 9.62512L29.0189 9.63179C22.7736 12.8443 17.8046 17.2401 14.2638 22.8447C10.715 28.462 8.96084 34.7502 8.96084 41.5898V46.0898H13.4608H38.5022V47.489V48.6127V51.989V60.6326ZM43.1659 72.7875V70.535C46.5701 70.5443 49.1784 70.8428 51.0912 71.3371L51.1837 71.361L51.2771 71.3809C53.4263 71.8399 54.735 72.4547 55.4853 73.0155L55.5595 73.071L55.6359 73.1233C56.5359 73.74 56.9844 74.326 57.2208 74.8308L57.2467 74.886L57.274 74.9405C57.6065 75.6033 57.7448 76.2205 57.7448 76.8392C57.7448 78.3751 57.4229 79.1445 57.1688 79.519C56.8111 79.9486 56.2846 80.3401 55.4089 80.6273C54.2656 80.9346 52.8547 81.1178 51.1329 81.1178C49.7843 81.1178 48.3843 80.8479 46.9064 80.2504C45.9239 79.8237 45.0245 79.1058 44.2136 77.9164C43.6453 76.9684 43.1659 75.3767 43.1659 72.7875ZM45.1985 44.0137V41.5898C45.1985 39.9408 45.7008 38.9518 46.5578 38.179C47.4675 37.3587 48.8017 36.771 50.9974 36.771C52.6503 36.771 53.5063 37.007 53.8597 37.1696L54.0421 37.2535L54.2313 37.3208C54.5305 37.4273 54.702 37.5284 54.7905 37.5914C54.873 37.6501 54.8978 37.6854 54.9035 37.6936C54.9691 37.7869 55.0346 37.9062 55.0346 38.2134C55.0346 38.6047 54.9312 39.0741 54.5334 39.6908C54.1345 40.3092 53.4656 41.007 52.3528 41.7246L52.3 41.7587L52.2481 41.7942C51.3168 42.4324 50.0578 43.0095 48.3744 43.4471L48.3504 43.4534L48.3264 43.4599C47.367 43.7207 46.3264 43.9083 45.1985 44.0137Z" fill="black" stroke="white" stroke-width="9"/>
</svg>
