<svg width="548" height="119" viewBox="0 0 548 119" fill="none" xmlns="http://www.w3.org/2000/svg">
<path d="M54.4232 9.86182L547.745 9.86182L547.745 109.127L54.4232 109.127L83.1274 69.8723L37.8818 51.3728L45.1795 31.0685L54.4232 9.86182Z" fill="#642424"/>
<path d="M192.622 41.7787H200.662C200.422 42.632 200.075 43.4187 199.622 44.1387C199.169 44.8587 198.609 45.4987 197.942 46.0587C197.302 46.6187 196.529 47.0587 195.622 47.3787C194.715 47.672 193.689 47.8187 192.542 47.8187C190.809 47.8187 189.249 47.4187 187.862 46.6187C186.502 45.8187 185.422 44.6987 184.622 43.2587C183.822 41.792 183.422 40.0987 183.422 38.1787C183.422 36.232 183.822 34.552 184.622 33.1387C185.449 31.7254 186.555 30.6454 187.942 29.8987C189.329 29.1254 190.862 28.7387 192.542 28.7387C194.329 28.7387 195.835 29.1254 197.062 29.8987C198.315 30.6454 199.289 31.632 199.982 32.8587L204.862 30.0187C204.009 28.712 202.982 27.592 201.782 26.6587C200.609 25.6987 199.249 24.952 197.702 24.4187C196.182 23.8854 194.462 23.6187 192.542 23.6187C190.382 23.6187 188.382 23.9654 186.542 24.6587C184.702 25.352 183.102 26.3387 181.742 27.6187C180.382 28.8987 179.315 30.4454 178.542 32.2587C177.795 34.0454 177.422 36.0187 177.422 38.1787C177.422 40.3387 177.782 42.3254 178.502 44.1387C179.249 45.952 180.289 47.512 181.622 48.8187C182.982 50.1254 184.569 51.1387 186.382 51.8587C188.222 52.5787 190.222 52.9387 192.382 52.9387C194.675 52.9387 196.715 52.5254 198.502 51.6987C200.289 50.872 201.782 49.7387 202.982 48.2987C204.209 46.832 205.102 45.152 205.662 43.2587C206.249 41.3654 206.502 39.352 206.422 37.2187H192.622V41.7787ZM219.292 52.5787C221.506 52.5787 223.399 52.152 224.972 51.2987C226.572 50.4187 227.852 49.112 228.812 47.3787L224.292 45.9787C223.759 46.8587 223.079 47.5254 222.252 47.9787C221.452 48.4054 220.479 48.6187 219.332 48.6187C218.319 48.6187 217.452 48.392 216.732 47.9387C216.012 47.4854 215.466 46.832 215.092 45.9787C214.746 45.1254 214.572 44.0854 214.572 42.8587C214.599 41.5787 214.786 40.512 215.132 39.6587C215.506 38.7787 216.026 38.1254 216.692 37.6987C217.386 37.2454 218.239 37.0187 219.252 37.0187C220.079 37.0187 220.799 37.2054 221.412 37.5787C222.026 37.952 222.492 38.4587 222.812 39.0987C223.159 39.7387 223.332 40.512 223.332 41.4187C223.332 41.6054 223.279 41.8454 223.172 42.1387C223.092 42.4054 222.999 42.6187 222.892 42.7787L224.292 40.9387H212.332V44.1387H228.812C228.839 43.9787 228.852 43.7654 228.852 43.4987C228.879 43.232 228.892 42.9787 228.892 42.7387C228.892 40.7654 228.519 39.0854 227.772 37.6987C227.026 36.2854 225.932 35.2187 224.492 34.4987C223.079 33.752 221.359 33.3787 219.332 33.3787C217.306 33.3787 215.546 33.7787 214.052 34.5787C212.559 35.352 211.399 36.4587 210.572 37.8987C209.772 39.312 209.372 41.0054 209.372 42.9787C209.372 44.9254 209.772 46.6187 210.572 48.0587C211.399 49.472 212.559 50.5787 214.052 51.3787C215.546 52.1787 217.292 52.5787 219.292 52.5787ZM237.88 33.7787H232.8V52.1787H237.88V33.7787ZM243.28 39.1787L245.64 34.7787C245.266 34.2987 244.773 33.9387 244.16 33.6987C243.573 33.4587 242.946 33.3387 242.28 33.3387C241.32 33.3387 240.386 33.6854 239.48 34.3787C238.573 35.0454 237.84 35.952 237.28 37.0987C236.72 38.2187 236.44 39.512 236.44 40.9787L237.88 42.4187C237.88 41.5387 237.986 40.792 238.2 40.1787C238.44 39.5387 238.786 39.0454 239.24 38.6987C239.693 38.352 240.24 38.1787 240.88 38.1787C241.413 38.1787 241.853 38.272 242.2 38.4587C242.573 38.6187 242.933 38.8587 243.28 39.1787ZM256.48 52.5787C258.693 52.5787 260.586 52.152 262.16 51.2987C263.76 50.4187 265.04 49.112 266 47.3787L261.48 45.9787C260.946 46.8587 260.266 47.5254 259.44 47.9787C258.64 48.4054 257.666 48.6187 256.52 48.6187C255.506 48.6187 254.64 48.392 253.92 47.9387C253.2 47.4854 252.653 46.832 252.28 45.9787C251.933 45.1254 251.76 44.0854 251.76 42.8587C251.786 41.5787 251.973 40.512 252.32 39.6587C252.693 38.7787 253.213 38.1254 253.88 37.6987C254.573 37.2454 255.426 37.0187 256.44 37.0187C257.266 37.0187 257.986 37.2054 258.6 37.5787C259.213 37.952 259.68 38.4587 260 39.0987C260.346 39.7387 260.52 40.512 260.52 41.4187C260.52 41.6054 260.466 41.8454 260.36 42.1387C260.28 42.4054 260.186 42.6187 260.08 42.7787L261.48 40.9387H249.52V44.1387H266C266.026 43.9787 266.04 43.7654 266.04 43.4987C266.066 43.232 266.08 42.9787 266.08 42.7387C266.08 40.7654 265.706 39.0854 264.96 37.6987C264.213 36.2854 263.12 35.2187 261.68 34.4987C260.266 33.752 258.546 33.3787 256.52 33.3787C254.493 33.3787 252.733 33.7787 251.24 34.5787C249.746 35.352 248.586 36.4587 247.76 37.8987C246.96 39.312 246.56 41.0054 246.56 42.9787C246.56 44.9254 246.96 46.6187 247.76 48.0587C248.586 49.472 249.746 50.5787 251.24 51.3787C252.733 52.1787 254.48 52.5787 256.48 52.5787ZM281.867 40.9787V52.1787H287.227V40.4187C287.227 38.2054 286.694 36.4854 285.627 35.2587C284.561 34.0054 282.934 33.3787 280.747 33.3787C279.441 33.3787 278.321 33.6587 277.387 34.2187C276.481 34.752 275.747 35.5387 275.187 36.5787V33.7787H269.987V52.1787H275.187V40.9787C275.187 40.2054 275.334 39.5387 275.627 38.9787C275.921 38.4187 276.347 37.992 276.907 37.6987C277.467 37.3787 278.107 37.2187 278.827 37.2187C279.894 37.2187 280.667 37.5387 281.147 38.1787C281.627 38.8187 281.867 39.752 281.867 40.9787ZM296.251 42.9787C296.251 41.9387 296.491 41.0187 296.971 40.2187C297.451 39.4187 298.091 38.792 298.891 38.3387C299.718 37.8587 300.624 37.6187 301.611 37.6187C302.358 37.6187 303.104 37.7387 303.851 37.9787C304.598 38.2187 305.278 38.5654 305.891 39.0187C306.531 39.4454 307.011 39.952 307.331 40.5387V35.2187C306.691 34.6587 305.851 34.2187 304.811 33.8987C303.798 33.552 302.611 33.3787 301.251 33.3787C299.304 33.3787 297.544 33.7787 295.971 34.5787C294.424 35.3787 293.198 36.4987 292.291 37.9387C291.411 39.3787 290.971 41.0587 290.971 42.9787C290.971 44.872 291.411 46.552 292.291 48.0187C293.198 49.4587 294.424 50.5787 295.971 51.3787C297.544 52.1787 299.304 52.5787 301.251 52.5787C302.611 52.5787 303.798 52.4187 304.811 52.0987C305.851 51.752 306.691 51.2854 307.331 50.6987V45.3787C307.011 45.9654 306.544 46.4854 305.931 46.9387C305.344 47.3654 304.678 47.712 303.931 47.9787C303.184 48.2187 302.411 48.3387 301.611 48.3387C300.624 48.3387 299.718 48.112 298.891 47.6587C298.091 47.2054 297.451 46.5787 296.971 45.7787C296.491 44.9787 296.251 44.0454 296.251 42.9787ZM311.661 26.6587C311.661 27.4854 311.968 28.1787 312.581 28.7387C313.195 29.2987 313.928 29.5787 314.781 29.5787C315.635 29.5787 316.355 29.2987 316.941 28.7387C317.555 28.1787 317.861 27.4854 317.861 26.6587C317.861 25.8054 317.555 25.112 316.941 24.5787C316.355 24.0187 315.635 23.7387 314.781 23.7387C313.928 23.7387 313.195 24.0187 312.581 24.5787C311.968 25.112 311.661 25.8054 311.661 26.6587ZM312.221 33.7787V52.1787H317.261V33.7787H312.221ZM326.441 46.4587C326.441 45.9254 326.561 45.4854 326.801 45.1387C327.041 44.7654 327.414 44.4854 327.921 44.2987C328.427 44.0854 329.081 43.9787 329.881 43.9787C330.867 43.9787 331.801 44.112 332.681 44.3787C333.587 44.6454 334.401 45.0454 335.121 45.5787V43.1787C334.854 42.8587 334.414 42.5254 333.801 42.1787C333.187 41.832 332.427 41.5387 331.521 41.2987C330.641 41.0587 329.614 40.9387 328.441 40.9387C326.147 40.9387 324.374 41.4587 323.121 42.4987C321.867 43.5387 321.241 44.952 321.241 46.7387C321.241 47.992 321.534 49.0587 322.121 49.9387C322.734 50.792 323.534 51.4454 324.521 51.8987C325.507 52.352 326.574 52.5787 327.721 52.5787C328.841 52.5787 329.907 52.3787 330.921 51.9787C331.961 51.5787 332.801 50.9787 333.441 50.1787C334.107 49.3787 334.441 48.392 334.441 47.2187L333.801 44.8187C333.801 45.6987 333.601 46.4587 333.201 47.0987C332.801 47.712 332.281 48.192 331.641 48.5387C331.001 48.8587 330.281 49.0187 329.481 49.0187C328.921 49.0187 328.401 48.9254 327.921 48.7387C327.467 48.5254 327.107 48.232 326.841 47.8587C326.574 47.4587 326.441 46.992 326.441 46.4587ZM324.441 38.9787C324.707 38.792 325.121 38.5654 325.681 38.2987C326.241 38.032 326.907 37.8054 327.681 37.6187C328.454 37.432 329.267 37.3387 330.121 37.3387C330.681 37.3387 331.187 37.392 331.641 37.4987C332.094 37.6054 332.481 37.7787 332.801 38.0187C333.147 38.2587 333.401 38.5654 333.561 38.9387C333.721 39.2854 333.801 39.712 333.801 40.2187V52.1787H338.801V39.1387C338.801 37.8854 338.454 36.832 337.761 35.9787C337.067 35.0987 336.107 34.432 334.881 33.9787C333.654 33.5254 332.254 33.2987 330.681 33.2987C328.974 33.2987 327.427 33.5387 326.041 34.0187C324.654 34.472 323.481 34.952 322.521 35.4587L324.441 38.9787ZM370.82 40.4187C370.82 38.9254 370.607 37.6587 370.18 36.6187C369.78 35.552 369.153 34.752 368.3 34.2187C367.447 33.6587 366.34 33.3787 364.98 33.3787C363.727 33.3787 362.607 33.6454 361.62 34.1787C360.66 34.712 359.847 35.4987 359.18 36.5387C358.78 35.4987 358.14 34.712 357.26 34.1787C356.38 33.6454 355.26 33.3787 353.9 33.3787C352.673 33.3787 351.62 33.6454 350.74 34.1787C349.86 34.712 349.153 35.4854 348.62 36.4987V33.7787H343.62V52.1787H348.62V40.9787C348.62 40.1787 348.753 39.4987 349.02 38.9387C349.287 38.352 349.66 37.9254 350.14 37.6587C350.62 37.3654 351.18 37.2187 351.82 37.2187C352.78 37.2187 353.473 37.5387 353.9 38.1787C354.327 38.792 354.54 39.7254 354.54 40.9787V52.1787H359.7V40.9787C359.7 40.1787 359.833 39.4987 360.1 38.9387C360.367 38.352 360.74 37.9254 361.22 37.6587C361.7 37.3654 362.26 37.2187 362.9 37.2187C363.86 37.2187 364.553 37.5387 364.98 38.1787C365.407 38.792 365.62 39.7254 365.62 40.9787V52.1787H370.82V40.4187ZM384.605 52.5787C386.818 52.5787 388.711 52.152 390.285 51.2987C391.885 50.4187 393.165 49.112 394.125 47.3787L389.605 45.9787C389.071 46.8587 388.391 47.5254 387.565 47.9787C386.765 48.4054 385.791 48.6187 384.645 48.6187C383.631 48.6187 382.765 48.392 382.045 47.9387C381.325 47.4854 380.778 46.832 380.405 45.9787C380.058 45.1254 379.885 44.0854 379.885 42.8587C379.911 41.5787 380.098 40.512 380.445 39.6587C380.818 38.7787 381.338 38.1254 382.005 37.6987C382.698 37.2454 383.551 37.0187 384.565 37.0187C385.391 37.0187 386.111 37.2054 386.725 37.5787C387.338 37.952 387.805 38.4587 388.125 39.0987C388.471 39.7387 388.645 40.512 388.645 41.4187C388.645 41.6054 388.591 41.8454 388.485 42.1387C388.405 42.4054 388.311 42.6187 388.205 42.7787L389.605 40.9387H377.645V44.1387H394.125C394.151 43.9787 394.165 43.7654 394.165 43.4987C394.191 43.232 394.205 42.9787 394.205 42.7387C394.205 40.7654 393.831 39.0854 393.085 37.6987C392.338 36.2854 391.245 35.2187 389.805 34.4987C388.391 33.752 386.671 33.3787 384.645 33.3787C382.618 33.3787 380.858 33.7787 379.365 34.5787C377.871 35.352 376.711 36.4587 375.885 37.8987C375.085 39.312 374.685 41.0054 374.685 42.9787C374.685 44.9254 375.085 46.6187 375.885 48.0587C376.711 49.472 377.871 50.5787 379.365 51.3787C380.858 52.1787 382.605 52.5787 384.605 52.5787ZM409.992 40.9787V52.1787H415.352V40.4187C415.352 38.2054 414.819 36.4854 413.752 35.2587C412.686 34.0054 411.059 33.3787 408.872 33.3787C407.566 33.3787 406.446 33.6587 405.512 34.2187C404.606 34.752 403.872 35.5387 403.312 36.5787V33.7787H398.112V52.1787H403.312V40.9787C403.312 40.2054 403.459 39.5387 403.752 38.9787C404.046 38.4187 404.472 37.992 405.032 37.6987C405.592 37.3787 406.232 37.2187 406.952 37.2187C408.019 37.2187 408.792 37.5387 409.272 38.1787C409.752 38.8187 409.992 39.752 409.992 40.9787ZM418.096 33.7787V38.1387H429.456V33.7787H418.096ZM421.256 27.3787V52.1787H426.256V27.3787H421.256ZM430.974 42.9787C430.974 44.872 431.414 46.552 432.294 48.0187C433.2 49.4587 434.414 50.5787 435.934 51.3787C437.48 52.1787 439.227 52.5787 441.174 52.5787C443.12 52.5787 444.854 52.1787 446.374 51.3787C447.92 50.5787 449.134 49.4587 450.014 48.0187C450.92 46.552 451.374 44.872 451.374 42.9787C451.374 41.0587 450.92 39.3787 450.014 37.9387C449.134 36.4987 447.92 35.3787 446.374 34.5787C444.854 33.7787 443.12 33.3787 441.174 33.3787C439.227 33.3787 437.48 33.7787 435.934 34.5787C434.414 35.3787 433.2 36.4987 432.294 37.9387C431.414 39.3787 430.974 41.0587 430.974 42.9787ZM436.254 42.9787C436.254 41.9387 436.467 41.0187 436.894 40.2187C437.347 39.4187 437.947 38.8054 438.694 38.3787C439.44 37.952 440.267 37.7387 441.174 37.7387C442.08 37.7387 442.907 37.952 443.654 38.3787C444.4 38.8054 444.987 39.4187 445.414 40.2187C445.867 41.0187 446.094 41.9387 446.094 42.9787C446.094 44.0187 445.867 44.9387 445.414 45.7387C444.987 46.512 444.4 47.1254 443.654 47.5787C442.907 48.0054 442.08 48.2187 441.174 48.2187C440.267 48.2187 439.44 48.0054 438.694 47.5787C437.947 47.1254 437.347 46.512 436.894 45.7387C436.467 44.9387 436.254 44.0187 436.254 42.9787ZM254.824 62.9787V94.1787H260.024V62.9787H254.824ZM239.704 84.9787C239.704 87.0054 240.118 88.7387 240.944 90.1787C241.771 91.6187 242.864 92.712 244.224 93.4587C245.584 94.2054 247.024 94.5787 248.544 94.5787C250.091 94.5787 251.451 94.192 252.624 93.4187C253.824 92.6454 254.758 91.5387 255.424 90.0987C256.118 88.6587 256.464 86.952 256.464 84.9787C256.464 82.9787 256.118 81.272 255.424 79.8587C254.758 78.4187 253.824 77.312 252.624 76.5387C251.451 75.7654 250.091 75.3787 248.544 75.3787C247.024 75.3787 245.584 75.752 244.224 76.4987C242.864 77.2454 241.771 78.3387 240.944 79.7787C240.118 81.192 239.704 82.9254 239.704 84.9787ZM245.064 84.9787C245.064 83.8854 245.291 82.9387 245.744 82.1387C246.198 81.3387 246.811 80.7254 247.584 80.2987C248.358 79.872 249.184 79.6587 250.064 79.6587C250.838 79.6587 251.584 79.872 252.304 80.2987C253.051 80.6987 253.651 81.2987 254.104 82.0987C254.584 82.8987 254.824 83.8587 254.824 84.9787C254.824 86.0987 254.584 87.0587 254.104 87.8587C253.651 88.6587 253.051 89.272 252.304 89.6987C251.584 90.0987 250.838 90.2987 250.064 90.2987C249.184 90.2987 248.358 90.0854 247.584 89.6587C246.811 89.232 246.198 88.6187 245.744 87.8187C245.291 87.0187 245.064 86.072 245.064 84.9787ZM273.687 94.5787C275.9 94.5787 277.793 94.152 279.367 93.2987C280.967 92.4187 282.247 91.112 283.207 89.3787L278.687 87.9787C278.153 88.8587 277.473 89.5254 276.647 89.9787C275.847 90.4054 274.873 90.6187 273.727 90.6187C272.713 90.6187 271.847 90.392 271.127 89.9387C270.407 89.4854 269.86 88.832 269.487 87.9787C269.14 87.1254 268.967 86.0854 268.967 84.8587C268.993 83.5787 269.18 82.512 269.527 81.6587C269.9 80.7787 270.42 80.1254 271.087 79.6987C271.78 79.2454 272.633 79.0187 273.647 79.0187C274.473 79.0187 275.193 79.2054 275.807 79.5787C276.42 79.952 276.887 80.4587 277.207 81.0987C277.553 81.7387 277.727 82.512 277.727 83.4187C277.727 83.6054 277.673 83.8454 277.567 84.1387C277.487 84.4054 277.393 84.6187 277.287 84.7787L278.687 82.9387H266.727V86.1387H283.207C283.233 85.9787 283.247 85.7654 283.247 85.4987C283.273 85.232 283.287 84.9787 283.287 84.7387C283.287 82.7654 282.913 81.0854 282.167 79.6987C281.42 78.2854 280.327 77.2187 278.887 76.4987C277.473 75.752 275.753 75.3787 273.727 75.3787C271.7 75.3787 269.94 75.7787 268.447 76.5787C266.953 77.352 265.793 78.4587 264.967 79.8987C264.167 81.312 263.767 83.0054 263.767 84.9787C263.767 86.9254 264.167 88.6187 264.967 90.0587C265.793 91.472 266.953 92.5787 268.447 93.3787C269.94 94.1787 271.687 94.5787 273.687 94.5787ZM304.266 80.1787C304.266 78.312 304.68 76.6987 305.506 75.3387C306.36 73.9787 307.466 72.9387 308.826 72.2187C310.186 71.472 311.666 71.0987 313.266 71.0987C314.6 71.0987 315.786 71.272 316.826 71.6187C317.866 71.9654 318.8 72.432 319.626 73.0187C320.48 73.6054 321.213 74.2454 321.826 74.9387V68.4987C320.68 67.592 319.426 66.8854 318.066 66.3787C316.733 65.872 315.04 65.6187 312.986 65.6187C310.853 65.6187 308.866 65.9654 307.026 66.6587C305.213 67.352 303.626 68.352 302.266 69.6587C300.933 70.9654 299.893 72.512 299.146 74.2987C298.426 76.0587 298.066 78.0187 298.066 80.1787C298.066 82.3387 298.426 84.312 299.146 86.0987C299.893 87.8587 300.933 89.392 302.266 90.6987C303.626 92.0054 305.213 93.0054 307.026 93.6987C308.866 94.392 310.853 94.7387 312.986 94.7387C315.04 94.7387 316.733 94.4854 318.066 93.9787C319.426 93.472 320.68 92.7654 321.826 91.8587V85.4187C321.213 86.112 320.48 86.752 319.626 87.3387C318.8 87.9254 317.866 88.392 316.826 88.7387C315.786 89.0854 314.6 89.2587 313.266 89.2587C311.666 89.2587 310.186 88.8987 308.826 88.1787C307.466 87.432 306.36 86.3787 305.506 85.0187C304.68 83.632 304.266 82.0187 304.266 80.1787ZM325.798 84.9787C325.798 86.872 326.238 88.552 327.118 90.0187C328.025 91.4587 329.238 92.5787 330.758 93.3787C332.305 94.1787 334.051 94.5787 335.998 94.5787C337.945 94.5787 339.678 94.1787 341.198 93.3787C342.745 92.5787 343.958 91.4587 344.838 90.0187C345.745 88.552 346.198 86.872 346.198 84.9787C346.198 83.0587 345.745 81.3787 344.838 79.9387C343.958 78.4987 342.745 77.3787 341.198 76.5787C339.678 75.7787 337.945 75.3787 335.998 75.3787C334.051 75.3787 332.305 75.7787 330.758 76.5787C329.238 77.3787 328.025 78.4987 327.118 79.9387C326.238 81.3787 325.798 83.0587 325.798 84.9787ZM331.078 84.9787C331.078 83.9387 331.291 83.0187 331.718 82.2187C332.171 81.4187 332.771 80.8054 333.518 80.3787C334.265 79.952 335.091 79.7387 335.998 79.7387C336.905 79.7387 337.731 79.952 338.478 80.3787C339.225 80.8054 339.811 81.4187 340.238 82.2187C340.691 83.0187 340.918 83.9387 340.918 84.9787C340.918 86.0187 340.691 86.9387 340.238 87.7387C339.811 88.512 339.225 89.1254 338.478 89.5787C337.731 90.0054 336.905 90.2187 335.998 90.2187C335.091 90.2187 334.265 90.0054 333.518 89.5787C332.771 89.1254 332.171 88.512 331.718 87.7387C331.291 86.9387 331.078 86.0187 331.078 84.9787ZM355.165 75.7787H350.085V94.1787H355.165V75.7787ZM360.565 81.1787L362.925 76.7787C362.551 76.2987 362.058 75.9387 361.445 75.6987C360.858 75.4587 360.231 75.3387 359.565 75.3387C358.605 75.3387 357.671 75.6854 356.765 76.3787C355.858 77.0454 355.125 77.952 354.565 79.0987C354.005 80.2187 353.725 81.512 353.725 82.9787L355.165 84.4187C355.165 83.5387 355.271 82.792 355.485 82.1787C355.725 81.5387 356.071 81.0454 356.525 80.6987C356.978 80.352 357.525 80.1787 358.165 80.1787C358.698 80.1787 359.138 80.272 359.485 80.4587C359.858 80.6187 360.218 80.8587 360.565 81.1787ZM373.765 94.5787C375.978 94.5787 377.872 94.152 379.445 93.2987C381.045 92.4187 382.325 91.112 383.285 89.3787L378.765 87.9787C378.232 88.8587 377.552 89.5254 376.725 89.9787C375.925 90.4054 374.952 90.6187 373.805 90.6187C372.792 90.6187 371.925 90.392 371.205 89.9387C370.485 89.4854 369.938 88.832 369.565 87.9787C369.218 87.1254 369.045 86.0854 369.045 84.8587C369.072 83.5787 369.258 82.512 369.605 81.6587C369.978 80.7787 370.498 80.1254 371.165 79.6987C371.858 79.2454 372.712 79.0187 373.725 79.0187C374.552 79.0187 375.272 79.2054 375.885 79.5787C376.498 79.952 376.965 80.4587 377.285 81.0987C377.632 81.7387 377.805 82.512 377.805 83.4187C377.805 83.6054 377.752 83.8454 377.645 84.1387C377.565 84.4054 377.472 84.6187 377.365 84.7787L378.765 82.9387H366.805V86.1387H383.285C383.312 85.9787 383.325 85.7654 383.325 85.4987C383.352 85.232 383.365 84.9787 383.365 84.7387C383.365 82.7654 382.992 81.0854 382.245 79.6987C381.498 78.2854 380.405 77.2187 378.965 76.4987C377.552 75.752 375.832 75.3787 373.805 75.3787C371.778 75.3787 370.018 75.7787 368.525 76.5787C367.032 77.352 365.872 78.4587 365.045 79.8987C364.245 81.312 363.845 83.0054 363.845 84.9787C363.845 86.9254 364.245 88.6187 365.045 90.0587C365.872 91.472 367.032 92.5787 368.525 93.3787C370.018 94.1787 371.765 94.5787 373.765 94.5787ZM388.192 87.8187L385.672 91.0587C386.366 91.7254 387.139 92.352 387.992 92.9387C388.872 93.4987 389.846 93.952 390.912 94.2987C392.006 94.6454 393.206 94.8187 394.512 94.8187C396.619 94.8187 398.272 94.312 399.472 93.2987C400.672 92.2587 401.272 90.8187 401.272 88.9787C401.272 87.8587 401.019 86.952 400.512 86.2587C400.006 85.5654 399.326 84.992 398.472 84.5387C397.646 84.0587 396.739 83.632 395.752 83.2587C394.952 82.912 394.232 82.6187 393.592 82.3787C392.979 82.1387 392.499 81.872 392.152 81.5787C391.832 81.2587 391.672 80.8987 391.672 80.4987C391.672 80.0454 391.832 79.712 392.152 79.4987C392.499 79.2587 392.966 79.1387 393.552 79.1387C394.432 79.1387 395.326 79.3654 396.232 79.8187C397.166 80.272 397.966 80.8587 398.632 81.5787L400.912 78.3787C400.326 77.792 399.646 77.2854 398.872 76.8587C398.099 76.4054 397.259 76.0454 396.352 75.7787C395.446 75.512 394.472 75.3787 393.432 75.3787C392.206 75.3787 391.086 75.5787 390.072 75.9787C389.086 76.352 388.299 76.9254 387.712 77.6987C387.126 78.4454 386.832 79.3654 386.832 80.4587C386.832 81.6054 387.086 82.552 387.592 83.2987C388.126 84.0187 388.792 84.6054 389.592 85.0587C390.392 85.4854 391.219 85.8587 392.072 86.1787C392.979 86.472 393.726 86.752 394.312 87.0187C394.899 87.2854 395.339 87.592 395.632 87.9387C395.952 88.2587 396.112 88.6587 396.112 89.1387C396.112 89.672 395.926 90.0987 395.552 90.4187C395.179 90.712 394.646 90.8587 393.952 90.8587C393.419 90.8587 392.846 90.752 392.232 90.5387C391.646 90.3254 391.019 90.0054 390.352 89.5787C389.686 89.1254 388.966 88.5387 388.192 87.8187Z" fill="white"/>
<path d="M9.61573 75.9199L15.7588 73.5069L7.42156 99.8563L6.15961 103.845L10.0454 105.394C13.666 106.837 17.5511 108.176 21.6963 109.413L21.7095 109.417L21.7226 109.421C26.0699 110.689 30.8077 111.701 35.9251 112.467C41.1276 113.246 46.7599 113.627 52.8106 113.627C57.8707 113.627 62.9964 112.976 68.1793 111.693C73.5659 110.382 78.545 108.305 83.0897 105.452C87.889 102.497 91.7809 98.6212 94.7166 93.8558C97.7971 88.8552 99.234 83.0046 99.234 76.5016C99.234 68.933 97.6329 62.2567 94.1366 56.7389C90.8135 51.4944 86.5239 47.446 81.263 44.7349C76.1618 42.1061 70.7844 40.7642 65.1814 40.7642C61.6063 40.7642 58.1502 41.0068 54.8171 41.4989C54.6972 41.5138 54.5776 41.5293 54.4581 41.5455L54.7753 40.7401H91.71H96.21V36.2401V9.86182V5.36182H91.71H29.8558H26.2956L25.4765 8.82656L11.5937 67.5529L9.61573 75.9199ZM31.1355 74.313C28.7168 73.4973 26.1477 72.367 23.4256 70.9001C24.6258 70.5917 25.8454 70.3251 27.0847 70.1004C30.5016 69.481 33.7096 69.089 36.7129 68.9156L36.772 68.9122L36.831 68.9073C40.0664 68.635 42.6315 68.5066 44.5634 68.5066C46.857 68.5066 49.1555 68.7133 51.462 69.1293L51.5398 69.1434L51.6181 69.1547C53.6479 69.4476 55.1078 70.0339 56.1627 70.7629L56.231 70.8101L56.301 70.8548L56.3136 70.8628C56.5268 70.9983 56.8327 71.1928 56.8327 72.3366C56.8327 73.6402 56.4932 74.2751 56.1235 74.6714C55.5025 75.2317 54.4273 75.8359 52.5892 76.2583C50.4819 76.6454 47.823 76.8607 44.5634 76.8607C43.2288 76.8607 41.3819 76.7096 38.9624 76.3629C36.6669 75.9444 34.0619 75.2685 31.1355 74.313Z" fill="black" stroke="white" stroke-width="9"/>
</svg>
