<svg width="526" height="119" viewBox="0 0 526 119" fill="none" xmlns="http://www.w3.org/2000/svg">
<path d="M67.5166 9.74182L525.04 9.74182L525.04 109.007L67.5166 109.007L81.504 43.5823L67.5166 9.74182Z" fill="#642424"/>
<path d="M180.704 61.5854H188.744C188.504 62.4387 188.157 63.2254 187.704 63.9454C187.25 64.6654 186.69 65.3054 186.024 65.8654C185.384 66.4254 184.61 66.8654 183.704 67.1854C182.797 67.4787 181.77 67.6254 180.624 67.6254C178.89 67.6254 177.33 67.2254 175.944 66.4254C174.584 65.6254 173.504 64.5054 172.704 63.0654C171.904 61.5987 171.504 59.9054 171.504 57.9854C171.504 56.0387 171.904 54.3587 172.704 52.9454C173.53 51.532 174.637 50.452 176.024 49.7053C177.41 48.932 178.944 48.5454 180.624 48.5454C182.41 48.5454 183.917 48.932 185.144 49.7053C186.397 50.452 187.37 51.4387 188.064 52.6654L192.944 49.8254C192.09 48.5187 191.064 47.3987 189.864 46.4654C188.69 45.5054 187.33 44.7587 185.784 44.2254C184.264 43.692 182.544 43.4253 180.624 43.4253C178.464 43.4253 176.464 43.772 174.624 44.4654C172.784 45.1587 171.184 46.1453 169.824 47.4254C168.464 48.7054 167.397 50.252 166.624 52.0654C165.877 53.852 165.504 55.8254 165.504 57.9854C165.504 60.1454 165.864 62.132 166.584 63.9454C167.33 65.7587 168.37 67.3187 169.704 68.6254C171.064 69.932 172.65 70.9454 174.464 71.6654C176.304 72.3854 178.304 72.7454 180.464 72.7454C182.757 72.7454 184.797 72.332 186.584 71.5054C188.37 70.6787 189.864 69.5454 191.064 68.1054C192.29 66.6387 193.184 64.9587 193.744 63.0654C194.33 61.172 194.584 59.1587 194.504 57.0254H180.704V61.5854ZM203.774 53.5854H198.694V71.9854H203.774V53.5854ZM209.174 58.9854L211.534 54.5854C211.161 54.1054 210.667 53.7454 210.054 53.5054C209.467 53.2654 208.841 53.1454 208.174 53.1454C207.214 53.1454 206.281 53.492 205.374 54.1854C204.467 54.852 203.734 55.7587 203.174 56.9054C202.614 58.0254 202.334 59.3187 202.334 60.7854L203.774 62.2254C203.774 61.3454 203.881 60.5987 204.094 59.9854C204.334 59.3454 204.681 58.852 205.134 58.5054C205.587 58.1587 206.134 57.9854 206.774 57.9854C207.307 57.9854 207.747 58.0787 208.094 58.2654C208.467 58.4254 208.827 58.6654 209.174 58.9854ZM217.96 66.2654C217.96 65.732 218.08 65.292 218.32 64.9454C218.56 64.572 218.933 64.292 219.44 64.1054C219.947 63.892 220.6 63.7854 221.4 63.7854C222.387 63.7854 223.32 63.9187 224.2 64.1854C225.107 64.452 225.92 64.852 226.64 65.3854V62.9854C226.373 62.6654 225.933 62.332 225.32 61.9854C224.707 61.6387 223.947 61.3454 223.04 61.1054C222.16 60.8654 221.133 60.7454 219.96 60.7454C217.667 60.7454 215.893 61.2654 214.64 62.3054C213.387 63.3454 212.76 64.7587 212.76 66.5454C212.76 67.7987 213.053 68.8654 213.64 69.7454C214.253 70.5987 215.053 71.252 216.04 71.7054C217.027 72.1587 218.093 72.3854 219.24 72.3854C220.36 72.3854 221.427 72.1854 222.44 71.7854C223.48 71.3854 224.32 70.7854 224.96 69.9854C225.627 69.1854 225.96 68.1987 225.96 67.0254L225.32 64.6254C225.32 65.5054 225.12 66.2654 224.72 66.9054C224.32 67.5187 223.8 67.9987 223.16 68.3454C222.52 68.6654 221.8 68.8254 221 68.8254C220.44 68.8254 219.92 68.732 219.44 68.5454C218.987 68.332 218.627 68.0387 218.36 67.6654C218.093 67.2654 217.96 66.7987 217.96 66.2654ZM215.96 58.7854C216.227 58.5987 216.64 58.372 217.2 58.1054C217.76 57.8387 218.427 57.612 219.2 57.4254C219.973 57.2387 220.787 57.1454 221.64 57.1454C222.2 57.1454 222.707 57.1987 223.16 57.3054C223.613 57.412 224 57.5854 224.32 57.8254C224.667 58.0654 224.92 58.372 225.08 58.7454C225.24 59.092 225.32 59.5187 225.32 60.0254V71.9854H230.32V58.9454C230.32 57.692 229.973 56.6387 229.28 55.7854C228.587 54.9054 227.627 54.2387 226.4 53.7854C225.173 53.332 223.773 53.1054 222.2 53.1054C220.493 53.1054 218.947 53.3454 217.56 53.8254C216.173 54.2787 215 54.7587 214.04 55.2654L215.96 58.7854ZM232.304 53.5854L242.384 73.9054L252.464 53.5854H246.904L242.384 64.6654L237.864 53.5854H232.304ZM258.624 66.2654C258.624 65.732 258.744 65.292 258.984 64.9454C259.224 64.572 259.597 64.292 260.104 64.1054C260.611 63.892 261.264 63.7854 262.064 63.7854C263.051 63.7854 263.984 63.9187 264.864 64.1854C265.771 64.452 266.584 64.852 267.304 65.3854V62.9854C267.037 62.6654 266.597 62.332 265.984 61.9854C265.371 61.6387 264.611 61.3454 263.704 61.1054C262.824 60.8654 261.797 60.7454 260.624 60.7454C258.331 60.7454 256.557 61.2654 255.304 62.3054C254.051 63.3454 253.424 64.7587 253.424 66.5454C253.424 67.7987 253.717 68.8654 254.304 69.7454C254.917 70.5987 255.717 71.252 256.704 71.7054C257.691 72.1587 258.757 72.3854 259.904 72.3854C261.024 72.3854 262.091 72.1854 263.104 71.7854C264.144 71.3854 264.984 70.7854 265.624 69.9854C266.291 69.1854 266.624 68.1987 266.624 67.0254L265.984 64.6254C265.984 65.5054 265.784 66.2654 265.384 66.9054C264.984 67.5187 264.464 67.9987 263.824 68.3454C263.184 68.6654 262.464 68.8254 261.664 68.8254C261.104 68.8254 260.584 68.732 260.104 68.5454C259.651 68.332 259.291 68.0387 259.024 67.6654C258.757 67.2654 258.624 66.7987 258.624 66.2654ZM256.624 58.7854C256.891 58.5987 257.304 58.372 257.864 58.1054C258.424 57.8387 259.091 57.612 259.864 57.4254C260.637 57.2387 261.451 57.1454 262.304 57.1454C262.864 57.1454 263.371 57.1987 263.824 57.3054C264.277 57.412 264.664 57.5854 264.984 57.8254C265.331 58.0654 265.584 58.372 265.744 58.7454C265.904 59.092 265.984 59.5187 265.984 60.0254V71.9854H270.984V58.9454C270.984 57.692 270.637 56.6387 269.944 55.7854C269.251 54.9054 268.291 54.2387 267.064 53.7854C265.837 53.332 264.437 53.1054 262.864 53.1054C261.157 53.1054 259.611 53.3454 258.224 53.8254C256.837 54.2787 255.664 54.7587 254.704 55.2654L256.624 58.7854ZM279.723 62.7854C279.723 61.7454 279.963 60.8254 280.443 60.0254C280.923 59.2254 281.563 58.5987 282.363 58.1454C283.19 57.6654 284.097 57.4254 285.083 57.4254C285.83 57.4254 286.577 57.5454 287.323 57.7854C288.07 58.0254 288.75 58.372 289.363 58.8254C290.003 59.252 290.483 59.7587 290.803 60.3454V55.0254C290.163 54.4654 289.323 54.0254 288.283 53.7054C287.27 53.3587 286.083 53.1854 284.723 53.1854C282.777 53.1854 281.017 53.5854 279.443 54.3854C277.897 55.1854 276.67 56.3054 275.763 57.7454C274.883 59.1854 274.443 60.8654 274.443 62.7854C274.443 64.6787 274.883 66.3587 275.763 67.8254C276.67 69.2654 277.897 70.3854 279.443 71.1854C281.017 71.9854 282.777 72.3854 284.723 72.3854C286.083 72.3854 287.27 72.2254 288.283 71.9054C289.323 71.5587 290.163 71.092 290.803 70.5054V65.1854C290.483 65.772 290.017 66.292 289.403 66.7454C288.817 67.172 288.15 67.5187 287.403 67.7854C286.657 68.0254 285.883 68.1454 285.083 68.1454C284.097 68.1454 283.19 67.9187 282.363 67.4654C281.563 67.012 280.923 66.3854 280.443 65.5854C279.963 64.7854 279.723 63.852 279.723 62.7854ZM283.003 69.5854L279.523 77.0254C280.11 76.732 280.697 76.5454 281.283 76.4654C281.897 76.3854 282.297 76.3454 282.483 76.3454C283.15 76.3454 283.697 76.4387 284.123 76.6254C284.577 76.8387 284.803 77.1987 284.803 77.7054C284.803 78.1854 284.617 78.5454 284.243 78.7854C283.897 79.0254 283.377 79.1454 282.683 79.1454C282.257 79.1454 281.79 79.0654 281.283 78.9054C280.777 78.772 280.283 78.532 279.803 78.1854L278.123 80.5454C278.95 81.132 279.75 81.532 280.523 81.7454C281.323 81.9854 282.217 82.1054 283.203 82.1054C284.03 82.1054 284.817 81.9454 285.563 81.6254C286.31 81.3054 286.923 80.8387 287.403 80.2254C287.883 79.612 288.123 78.852 288.123 77.9454C288.123 77.1187 287.95 76.4387 287.603 75.9054C287.257 75.3987 286.817 75.012 286.283 74.7454C285.75 74.4787 285.23 74.3454 284.723 74.3454C284.537 74.3454 284.35 74.3454 284.163 74.3454C283.977 74.3454 283.79 74.372 283.603 74.4254L286.763 69.6654L283.003 69.5854ZM299.054 66.5054C299.054 65.9454 299.187 65.4654 299.454 65.0654C299.747 64.6654 300.174 64.3454 300.734 64.1054C301.294 63.8654 301.974 63.7454 302.774 63.7454C303.867 63.7454 304.814 63.8787 305.614 64.1454C306.414 64.412 307.187 64.8254 307.934 65.3854V62.8654C307.694 62.572 307.28 62.2654 306.694 61.9454C306.107 61.6254 305.387 61.3454 304.534 61.1054C303.68 60.8654 302.76 60.7454 301.774 60.7454C300.254 60.7454 298.894 60.9854 297.694 61.4654C296.494 61.9454 295.547 62.6387 294.854 63.5454C294.187 64.452 293.854 65.572 293.854 66.9054C293.854 68.052 294.12 69.0387 294.654 69.8654C295.187 70.6654 295.947 71.292 296.934 71.7454C297.947 72.172 299.107 72.3854 300.414 72.3854C301.694 72.3854 302.84 72.172 303.854 71.7454C304.894 71.292 305.72 70.652 306.334 69.8254C306.947 68.972 307.254 67.9587 307.254 66.7854L306.614 64.6254C306.614 65.6387 306.414 66.452 306.014 67.0654C305.614 67.6787 305.067 68.1187 304.374 68.3854C303.68 68.652 302.92 68.7854 302.094 68.7854C301.454 68.7854 300.907 68.7054 300.454 68.5454C300 68.3587 299.654 68.1054 299.414 67.7854C299.174 67.4387 299.054 67.012 299.054 66.5054ZM297.414 58.8254C297.707 58.6387 298.134 58.412 298.694 58.1454C299.28 57.8787 299.947 57.652 300.694 57.4654C301.467 57.252 302.294 57.1454 303.174 57.1454C304.187 57.1454 305.014 57.3854 305.654 57.8654C306.294 58.3187 306.614 58.9587 306.614 59.7854V71.9854H311.614V58.9454C311.614 57.692 311.267 56.6387 310.574 55.7854C309.88 54.9054 308.92 54.2387 307.694 53.7854C306.494 53.332 305.094 53.1054 303.494 53.1054C301.84 53.1054 300.334 53.3454 298.974 53.8254C297.614 54.2787 296.467 54.7587 295.534 55.2654L297.414 58.8254ZM296.054 48.4253L298.694 50.5854C298.694 50.372 298.734 50.1054 298.814 49.7854C298.92 49.4654 299.107 49.1854 299.374 48.9454C299.667 48.6787 300.08 48.5454 300.614 48.5454C301.254 48.5454 301.827 48.7187 302.334 49.0654C302.867 49.412 303.414 49.7587 303.974 50.1053C304.56 50.452 305.214 50.6253 305.934 50.6253C306.734 50.6253 307.467 50.452 308.134 50.1053C308.827 49.7587 309.414 49.332 309.894 48.8253C310.4 48.3187 310.76 47.8253 310.974 47.3453L308.454 44.7854C308.054 45.4254 307.654 45.932 307.254 46.3054C306.854 46.652 306.414 46.8254 305.934 46.8254C305.374 46.8254 304.907 46.732 304.534 46.5454C304.16 46.332 303.8 46.092 303.454 45.8253C303.107 45.5587 302.707 45.332 302.254 45.1454C301.827 44.932 301.294 44.8254 300.654 44.8254C299.88 44.8254 299.16 44.9987 298.494 45.3454C297.854 45.6654 297.32 46.092 296.894 46.6254C296.467 47.1587 296.187 47.7587 296.054 48.4253ZM315.188 62.7854C315.188 64.6787 315.628 66.3587 316.508 67.8254C317.415 69.2654 318.628 70.3854 320.148 71.1854C321.695 71.9854 323.442 72.3854 325.388 72.3854C327.335 72.3854 329.068 71.9854 330.588 71.1854C332.135 70.3854 333.348 69.2654 334.228 67.8254C335.135 66.3587 335.588 64.6787 335.588 62.7854C335.588 60.8654 335.135 59.1854 334.228 57.7454C333.348 56.3054 332.135 55.1854 330.588 54.3854C329.068 53.5854 327.335 53.1854 325.388 53.1854C323.442 53.1854 321.695 53.5854 320.148 54.3854C318.628 55.1854 317.415 56.3054 316.508 57.7454C315.628 59.1854 315.188 60.8654 315.188 62.7854ZM320.468 62.7854C320.468 61.7454 320.682 60.8254 321.108 60.0254C321.562 59.2254 322.162 58.612 322.908 58.1854C323.655 57.7587 324.482 57.5454 325.388 57.5454C326.295 57.5454 327.122 57.7587 327.868 58.1854C328.615 58.612 329.202 59.2254 329.628 60.0254C330.082 60.8254 330.308 61.7454 330.308 62.7854C330.308 63.8254 330.082 64.7454 329.628 65.5454C329.202 66.3187 328.615 66.932 327.868 67.3854C327.122 67.812 326.295 68.0254 325.388 68.0254C324.482 68.0254 323.655 67.812 322.908 67.3854C322.162 66.932 321.562 66.3187 321.108 65.5454C320.682 64.7454 320.468 63.8254 320.468 62.7854ZM355.147 66.2654C355.147 65.732 355.267 65.292 355.507 64.9454C355.747 64.572 356.121 64.292 356.627 64.1054C357.134 63.892 357.787 63.7854 358.587 63.7854C359.574 63.7854 360.507 63.9187 361.387 64.1854C362.294 64.452 363.107 64.852 363.827 65.3854V62.9854C363.561 62.6654 363.121 62.332 362.507 61.9854C361.894 61.6387 361.134 61.3454 360.227 61.1054C359.347 60.8654 358.321 60.7454 357.147 60.7454C354.854 60.7454 353.081 61.2654 351.827 62.3054C350.574 63.3454 349.947 64.7587 349.947 66.5454C349.947 67.7987 350.241 68.8654 350.827 69.7454C351.441 70.5987 352.241 71.252 353.227 71.7054C354.214 72.1587 355.281 72.3854 356.427 72.3854C357.547 72.3854 358.614 72.1854 359.627 71.7854C360.667 71.3854 361.507 70.7854 362.147 69.9854C362.814 69.1854 363.147 68.1987 363.147 67.0254L362.507 64.6254C362.507 65.5054 362.307 66.2654 361.907 66.9054C361.507 67.5187 360.987 67.9987 360.347 68.3454C359.707 68.6654 358.987 68.8254 358.187 68.8254C357.627 68.8254 357.107 68.732 356.627 68.5454C356.174 68.332 355.814 68.0387 355.547 67.6654C355.281 67.2654 355.147 66.7987 355.147 66.2654ZM353.147 58.7854C353.414 58.5987 353.827 58.372 354.387 58.1054C354.947 57.8387 355.614 57.612 356.387 57.4254C357.161 57.2387 357.974 57.1454 358.827 57.1454C359.387 57.1454 359.894 57.1987 360.347 57.3054C360.801 57.412 361.187 57.5854 361.507 57.8254C361.854 58.0654 362.107 58.372 362.267 58.7454C362.427 59.092 362.507 59.5187 362.507 60.0254V71.9854H367.507V58.9454C367.507 57.692 367.161 56.6387 366.467 55.7854C365.774 54.9054 364.814 54.2387 363.587 53.7854C362.361 53.332 360.961 53.1054 359.387 53.1054C357.681 53.1054 356.134 53.3454 354.747 53.8254C353.361 54.2787 352.187 54.7587 351.227 55.2654L353.147 58.7854ZM384.799 43.9853V71.9854H401.679V66.9854H390.519V43.9853H384.799ZM408.155 66.2654C408.155 65.732 408.275 65.292 408.515 64.9454C408.755 64.572 409.128 64.292 409.635 64.1054C410.142 63.892 410.795 63.7854 411.595 63.7854C412.582 63.7854 413.515 63.9187 414.395 64.1854C415.302 64.452 416.115 64.852 416.835 65.3854V62.9854C416.568 62.6654 416.128 62.332 415.515 61.9854C414.902 61.6387 414.142 61.3454 413.235 61.1054C412.355 60.8654 411.328 60.7454 410.155 60.7454C407.862 60.7454 406.088 61.2654 404.835 62.3054C403.582 63.3454 402.955 64.7587 402.955 66.5454C402.955 67.7987 403.248 68.8654 403.835 69.7454C404.448 70.5987 405.248 71.252 406.235 71.7054C407.222 72.1587 408.288 72.3854 409.435 72.3854C410.555 72.3854 411.622 72.1854 412.635 71.7854C413.675 71.3854 414.515 70.7854 415.155 69.9854C415.822 69.1854 416.155 68.1987 416.155 67.0254L415.515 64.6254C415.515 65.5054 415.315 66.2654 414.915 66.9054C414.515 67.5187 413.995 67.9987 413.355 68.3454C412.715 68.6654 411.995 68.8254 411.195 68.8254C410.635 68.8254 410.115 68.732 409.635 68.5454C409.182 68.332 408.822 68.0387 408.555 67.6654C408.288 67.2654 408.155 66.7987 408.155 66.2654ZM406.155 58.7854C406.422 58.5987 406.835 58.372 407.395 58.1054C407.955 57.8387 408.622 57.612 409.395 57.4254C410.168 57.2387 410.982 57.1454 411.835 57.1454C412.395 57.1454 412.902 57.1987 413.355 57.3054C413.808 57.412 414.195 57.5854 414.515 57.8254C414.862 58.0654 415.115 58.372 415.275 58.7454C415.435 59.092 415.515 59.5187 415.515 60.0254V71.9854H420.515V58.9454C420.515 57.692 420.168 56.6387 419.475 55.7854C418.782 54.9054 417.822 54.2387 416.595 53.7854C415.368 53.332 413.968 53.1054 412.395 53.1054C410.688 53.1054 409.142 53.3454 407.755 53.8254C406.368 54.2787 405.195 54.7587 404.235 55.2654L406.155 58.7854ZM426.255 65.6254L423.735 68.8654C424.428 69.532 425.201 70.1587 426.055 70.7454C426.935 71.3054 427.908 71.7587 428.975 72.1054C430.068 72.452 431.268 72.6254 432.575 72.6254C434.681 72.6254 436.335 72.1187 437.535 71.1054C438.735 70.0654 439.335 68.6254 439.335 66.7854C439.335 65.6654 439.081 64.7587 438.575 64.0654C438.068 63.372 437.388 62.7987 436.535 62.3454C435.708 61.8654 434.801 61.4387 433.815 61.0654C433.015 60.7187 432.295 60.4254 431.655 60.1854C431.041 59.9454 430.561 59.6787 430.215 59.3854C429.895 59.0654 429.735 58.7054 429.735 58.3054C429.735 57.852 429.895 57.5187 430.215 57.3054C430.561 57.0654 431.028 56.9454 431.615 56.9454C432.495 56.9454 433.388 57.172 434.295 57.6254C435.228 58.0787 436.028 58.6654 436.695 59.3854L438.975 56.1854C438.388 55.5987 437.708 55.092 436.935 54.6654C436.161 54.212 435.321 53.852 434.415 53.5854C433.508 53.3187 432.535 53.1854 431.495 53.1854C430.268 53.1854 429.148 53.3854 428.135 53.7854C427.148 54.1587 426.361 54.732 425.775 55.5054C425.188 56.252 424.895 57.172 424.895 58.2654C424.895 59.412 425.148 60.3587 425.655 61.1054C426.188 61.8254 426.855 62.412 427.655 62.8654C428.455 63.292 429.281 63.6654 430.135 63.9854C431.041 64.2787 431.788 64.5587 432.375 64.8254C432.961 65.092 433.401 65.3987 433.695 65.7454C434.015 66.0654 434.175 66.4654 434.175 66.9454C434.175 67.4787 433.988 67.9054 433.615 68.2254C433.241 68.5187 432.708 68.6654 432.015 68.6654C431.481 68.6654 430.908 68.5587 430.295 68.3454C429.708 68.132 429.081 67.812 428.415 67.3854C427.748 66.932 427.028 66.3454 426.255 65.6254ZM451.593 72.3854C453.806 72.3854 455.699 71.9587 457.273 71.1054C458.873 70.2254 460.153 68.9187 461.113 67.1854L456.593 65.7854C456.059 66.6654 455.379 67.332 454.553 67.7854C453.753 68.212 452.779 68.4254 451.633 68.4254C450.619 68.4254 449.753 68.1987 449.033 67.7454C448.313 67.292 447.766 66.6387 447.393 65.7854C447.046 64.932 446.873 63.892 446.873 62.6654C446.899 61.3854 447.086 60.3187 447.433 59.4654C447.806 58.5854 448.326 57.932 448.993 57.5054C449.686 57.052 450.539 56.8254 451.553 56.8254C452.379 56.8254 453.099 57.012 453.713 57.3854C454.326 57.7587 454.793 58.2654 455.113 58.9054C455.459 59.5454 455.633 60.3187 455.633 61.2254C455.633 61.412 455.579 61.652 455.473 61.9454C455.393 62.212 455.299 62.4254 455.193 62.5854L456.593 60.7454H444.633V63.9454H461.113C461.139 63.7854 461.153 63.572 461.153 63.3054C461.179 63.0387 461.193 62.7854 461.193 62.5454C461.193 60.572 460.819 58.892 460.073 57.5054C459.326 56.092 458.233 55.0254 456.793 54.3054C455.379 53.5587 453.659 53.1854 451.633 53.1854C449.606 53.1854 447.846 53.5854 446.353 54.3854C444.859 55.1587 443.699 56.2654 442.873 57.7054C442.073 59.1187 441.673 60.812 441.673 62.7854C441.673 64.732 442.073 66.4254 442.873 67.8654C443.699 69.2787 444.859 70.3854 446.353 71.1854C447.846 71.9854 449.593 72.3854 451.593 72.3854ZM470.18 53.5854H465.1V71.9854H470.18V53.5854ZM475.58 58.9854L477.94 54.5854C477.567 54.1054 477.073 53.7454 476.46 53.5054C475.873 53.2654 475.247 53.1454 474.58 53.1454C473.62 53.1454 472.687 53.492 471.78 54.1854C470.873 54.852 470.14 55.7587 469.58 56.9054C469.02 58.0254 468.74 59.3187 468.74 60.7854L470.18 62.2254C470.18 61.3454 470.287 60.5987 470.5 59.9854C470.74 59.3454 471.087 58.852 471.54 58.5054C471.993 58.1587 472.54 57.9854 473.18 57.9854C473.713 57.9854 474.153 58.0787 474.5 58.2654C474.873 58.4254 475.233 58.6654 475.58 58.9854Z" fill="white"/>
<path d="M19.1856 105.854L11.6684 113.507H22.396H112.637H117.137V109.007V81.2795V76.7795H112.637H90.3483L97.3147 71.391L97.3169 71.3893C102.069 67.709 105.971 63.6098 108.949 59.07L108.962 59.0507L108.974 59.0313C112.146 54.0856 113.688 48.4678 113.688 42.322C113.688 37.4884 112.617 32.8248 110.513 28.3729C108.485 23.8834 105.474 19.9309 101.569 16.5131C97.6644 12.9214 92.9029 10.1989 87.3909 8.27968C81.8451 6.22334 75.6574 5.24182 68.8965 5.24182C58.921 5.24182 50.2105 7.25664 43.0031 11.5571C36.0829 15.649 30.7784 21.0997 27.2355 27.9051L31.227 29.9831L27.2355 27.9051C23.7657 34.57 22.0355 41.7548 22.0355 49.3926V53.8926H26.5355H56.202H60.702V49.3926C60.702 47.3808 61.0514 45.6653 61.68 44.1832C62.3844 42.7307 63.2611 41.7332 64.2706 41.0392L64.3356 40.9946L64.3989 40.9477C65.3257 40.2615 66.3979 39.89 67.7926 39.89C69.0897 39.89 69.8725 40.0991 70.315 40.3043L70.4982 40.3892L70.6882 40.4574C71.4514 40.7313 71.9072 41.0509 72.1922 41.3372L75.3817 38.1628L72.1922 41.3372C72.5305 41.6772 72.757 42.0467 72.9044 42.4912C73.1165 43.1304 73.2275 43.8064 73.2275 44.5402C73.2275 46.3452 72.8345 48.0152 72.0429 49.6059C71.1552 51.3897 69.7932 53.3787 67.8647 55.5691L67.857 55.5778C65.8699 57.8467 63.4706 60.5308 60.6563 63.6326L19.1856 105.854Z" fill="black" stroke="white" stroke-width="9"/>
</svg>
