<svg width="618" height="118" viewBox="0 0 618 118" fill="none" xmlns="http://www.w3.org/2000/svg">
<rect x="100" y="9" width="518" height="100" fill="#642424"/>
<path d="M200.291 31.16H207.811V54H213.531V31.16H221.091V26H200.291V31.16ZM225.738 35.6H220.658V54H225.738V35.6ZM231.138 41L233.498 36.6C233.124 36.12 232.631 35.76 232.018 35.52C231.431 35.28 230.804 35.16 230.138 35.16C229.178 35.16 228.244 35.5067 227.338 36.2C226.431 36.8667 225.698 37.7733 225.138 38.92C224.578 40.04 224.298 41.3333 224.298 42.8L225.738 44.24C225.738 43.36 225.844 42.6133 226.058 42C226.298 41.36 226.644 40.8667 227.098 40.52C227.551 40.1733 228.098 40 228.738 40C229.271 40 229.711 40.0933 230.058 40.28C230.431 40.44 230.791 40.68 231.138 41ZM244.338 54.4C246.551 54.4 248.444 53.9733 250.018 53.12C251.618 52.24 252.898 50.9333 253.858 49.2L249.338 47.8C248.804 48.68 248.124 49.3467 247.298 49.8C246.498 50.2267 245.524 50.44 244.378 50.44C243.364 50.44 242.498 50.2133 241.778 49.76C241.058 49.3067 240.511 48.6533 240.138 47.8C239.791 46.9467 239.618 45.9067 239.618 44.68C239.644 43.4 239.831 42.3333 240.178 41.48C240.551 40.6 241.071 39.9467 241.738 39.52C242.431 39.0667 243.284 38.84 244.298 38.84C245.124 38.84 245.844 39.0267 246.458 39.4C247.071 39.7733 247.538 40.28 247.858 40.92C248.204 41.56 248.378 42.3333 248.378 43.24C248.378 43.4267 248.324 43.6667 248.218 43.96C248.138 44.2267 248.044 44.44 247.938 44.6L249.338 42.76H237.378V45.96H253.858C253.884 45.8 253.898 45.5867 253.898 45.32C253.924 45.0533 253.938 44.8 253.938 44.56C253.938 42.5867 253.564 40.9067 252.818 39.52C252.071 38.1067 250.978 37.04 249.538 36.32C248.124 35.5733 246.404 35.2 244.378 35.2C242.351 35.2 240.591 35.6 239.098 36.4C237.604 37.1733 236.444 38.28 235.618 39.72C234.818 41.1333 234.418 42.8267 234.418 44.8C234.418 46.7467 234.818 48.44 235.618 49.88C236.444 51.2933 237.604 52.4 239.098 53.2C240.591 54 242.338 54.4 244.338 54.4ZM257.605 28.48C257.605 29.3067 257.912 30 258.525 30.56C259.138 31.12 259.872 31.4 260.725 31.4C261.578 31.4 262.298 31.12 262.885 30.56C263.498 30 263.805 29.3067 263.805 28.48C263.805 27.6267 263.498 26.9333 262.885 26.4C262.298 25.84 261.578 25.56 260.725 25.56C259.872 25.56 259.138 25.84 258.525 26.4C257.912 26.9333 257.605 27.6267 257.605 28.48ZM258.165 35.6V54H263.205V35.6H258.165ZM280.585 42.8V54H285.945V42.24C285.945 40.0267 285.411 38.3067 284.345 37.08C283.278 35.8267 281.651 35.2 279.465 35.2C278.158 35.2 277.038 35.48 276.105 36.04C275.198 36.5733 274.465 37.36 273.905 38.4V35.6H268.705V54H273.905V42.8C273.905 42.0267 274.051 41.36 274.345 40.8C274.638 40.24 275.065 39.8133 275.625 39.52C276.185 39.2 276.825 39.04 277.545 39.04C278.611 39.04 279.385 39.36 279.865 40C280.345 40.64 280.585 41.5733 280.585 42.8ZM294.728 48.28C294.728 47.7467 294.848 47.3067 295.088 46.96C295.328 46.5867 295.702 46.3067 296.208 46.12C296.715 45.9067 297.368 45.8 298.168 45.8C299.155 45.8 300.088 45.9333 300.968 46.2C301.875 46.4667 302.688 46.8667 303.408 47.4V45C303.142 44.68 302.702 44.3467 302.088 44C301.475 43.6533 300.715 43.36 299.808 43.12C298.928 42.88 297.902 42.76 296.728 42.76C294.435 42.76 292.662 43.28 291.408 44.32C290.155 45.36 289.528 46.7733 289.528 48.56C289.528 49.8133 289.822 50.88 290.408 51.76C291.022 52.6133 291.822 53.2667 292.808 53.72C293.795 54.1733 294.862 54.4 296.008 54.4C297.128 54.4 298.195 54.2 299.208 53.8C300.248 53.4 301.088 52.8 301.728 52C302.395 51.2 302.728 50.2133 302.728 49.04L302.088 46.64C302.088 47.52 301.888 48.28 301.488 48.92C301.088 49.5333 300.568 50.0133 299.928 50.36C299.288 50.68 298.568 50.84 297.768 50.84C297.208 50.84 296.688 50.7467 296.208 50.56C295.755 50.3467 295.395 50.0533 295.128 49.68C294.862 49.28 294.728 48.8133 294.728 48.28ZM292.728 40.8C292.995 40.6133 293.408 40.3867 293.968 40.12C294.528 39.8533 295.195 39.6267 295.968 39.44C296.742 39.2533 297.555 39.16 298.408 39.16C298.968 39.16 299.475 39.2133 299.928 39.32C300.382 39.4267 300.768 39.6 301.088 39.84C301.435 40.08 301.688 40.3867 301.848 40.76C302.008 41.1067 302.088 41.5333 302.088 42.04V54H307.088V40.96C307.088 39.7067 306.742 38.6533 306.048 37.8C305.355 36.92 304.395 36.2533 303.168 35.8C301.942 35.3467 300.542 35.12 298.968 35.12C297.262 35.12 295.715 35.36 294.328 35.84C292.942 36.2933 291.768 36.7733 290.808 37.28L292.728 40.8ZM339.108 42.24C339.108 40.7467 338.894 39.48 338.468 38.44C338.068 37.3733 337.441 36.5733 336.588 36.04C335.734 35.48 334.628 35.2 333.268 35.2C332.014 35.2 330.894 35.4667 329.908 36C328.948 36.5333 328.134 37.32 327.468 38.36C327.068 37.32 326.428 36.5333 325.548 36C324.668 35.4667 323.548 35.2 322.188 35.2C320.961 35.2 319.908 35.4667 319.028 36C318.148 36.5333 317.441 37.3067 316.908 38.32V35.6H311.908V54H316.908V42.8C316.908 42 317.041 41.32 317.308 40.76C317.574 40.1733 317.948 39.7467 318.428 39.48C318.908 39.1867 319.468 39.04 320.108 39.04C321.068 39.04 321.761 39.36 322.188 40C322.614 40.6133 322.828 41.5467 322.828 42.8V54H327.988V42.8C327.988 42 328.121 41.32 328.388 40.76C328.654 40.1733 329.028 39.7467 329.508 39.48C329.988 39.1867 330.548 39.04 331.188 39.04C332.148 39.04 332.841 39.36 333.268 40C333.694 40.6133 333.908 41.5467 333.908 42.8V54H339.108V42.24ZM352.892 54.4C355.106 54.4 356.999 53.9733 358.572 53.12C360.172 52.24 361.452 50.9333 362.412 49.2L357.892 47.8C357.359 48.68 356.679 49.3467 355.852 49.8C355.052 50.2267 354.079 50.44 352.932 50.44C351.919 50.44 351.052 50.2133 350.332 49.76C349.612 49.3067 349.066 48.6533 348.692 47.8C348.346 46.9467 348.172 45.9067 348.172 44.68C348.199 43.4 348.386 42.3333 348.732 41.48C349.106 40.6 349.626 39.9467 350.292 39.52C350.986 39.0667 351.839 38.84 352.852 38.84C353.679 38.84 354.399 39.0267 355.012 39.4C355.626 39.7733 356.092 40.28 356.412 40.92C356.759 41.56 356.932 42.3333 356.932 43.24C356.932 43.4267 356.879 43.6667 356.772 43.96C356.692 44.2267 356.599 44.44 356.492 44.6L357.892 42.76H345.932V45.96H362.412C362.439 45.8 362.452 45.5867 362.452 45.32C362.479 45.0533 362.492 44.8 362.492 44.56C362.492 42.5867 362.119 40.9067 361.372 39.52C360.626 38.1067 359.532 37.04 358.092 36.32C356.679 35.5733 354.959 35.2 352.932 35.2C350.906 35.2 349.146 35.6 347.652 36.4C346.159 37.1733 344.999 38.28 344.172 39.72C343.372 41.1333 342.972 42.8267 342.972 44.8C342.972 46.7467 343.372 48.44 344.172 49.88C344.999 51.2933 346.159 52.4 347.652 53.2C349.146 54 350.892 54.4 352.892 54.4ZM378.28 42.8V54H383.64V42.24C383.64 40.0267 383.107 38.3067 382.04 37.08C380.973 35.8267 379.347 35.2 377.16 35.2C375.853 35.2 374.733 35.48 373.8 36.04C372.893 36.5733 372.16 37.36 371.6 38.4V35.6H366.4V54H371.6V42.8C371.6 42.0267 371.747 41.36 372.04 40.8C372.333 40.24 372.76 39.8133 373.32 39.52C373.88 39.2 374.52 39.04 375.24 39.04C376.307 39.04 377.08 39.36 377.56 40C378.04 40.64 378.28 41.5733 378.28 42.8ZM386.384 35.6V39.96H397.744V35.6H386.384ZM389.544 29.2V54H394.544V29.2H389.544ZM399.261 44.8C399.261 46.6933 399.701 48.3733 400.581 49.84C401.488 51.28 402.701 52.4 404.221 53.2C405.768 54 407.515 54.4 409.461 54.4C411.408 54.4 413.141 54 414.661 53.2C416.208 52.4 417.421 51.28 418.301 49.84C419.208 48.3733 419.661 46.6933 419.661 44.8C419.661 42.88 419.208 41.2 418.301 39.76C417.421 38.32 416.208 37.2 414.661 36.4C413.141 35.6 411.408 35.2 409.461 35.2C407.515 35.2 405.768 35.6 404.221 36.4C402.701 37.2 401.488 38.32 400.581 39.76C399.701 41.2 399.261 42.88 399.261 44.8ZM404.541 44.8C404.541 43.76 404.755 42.84 405.181 42.04C405.635 41.24 406.235 40.6267 406.981 40.2C407.728 39.7733 408.555 39.56 409.461 39.56C410.368 39.56 411.195 39.7733 411.941 40.2C412.688 40.6267 413.275 41.24 413.701 42.04C414.155 42.84 414.381 43.76 414.381 44.8C414.381 45.84 414.155 46.76 413.701 47.56C413.275 48.3333 412.688 48.9467 411.941 49.4C411.195 49.8267 410.368 50.04 409.461 50.04C408.555 50.04 407.728 49.8267 406.981 49.4C406.235 48.9467 405.635 48.3333 405.181 47.56C404.755 46.76 404.541 45.84 404.541 44.8ZM433.22 31.16H440.74V54H446.46V31.16H454.02V26H433.22V31.16ZM461.486 54.4C463.699 54.4 465.593 53.9733 467.166 53.12C468.766 52.24 470.046 50.9333 471.006 49.2L466.486 47.8C465.953 48.68 465.273 49.3467 464.446 49.8C463.646 50.2267 462.673 50.44 461.526 50.44C460.513 50.44 459.646 50.2133 458.926 49.76C458.206 49.3067 457.659 48.6533 457.286 47.8C456.939 46.9467 456.766 45.9067 456.766 44.68C456.793 43.4 456.979 42.3333 457.326 41.48C457.699 40.6 458.219 39.9467 458.886 39.52C459.579 39.0667 460.433 38.84 461.446 38.84C462.273 38.84 462.993 39.0267 463.606 39.4C464.219 39.7733 464.686 40.28 465.006 40.92C465.353 41.56 465.526 42.3333 465.526 43.24C465.526 43.4267 465.473 43.6667 465.366 43.96C465.286 44.2267 465.193 44.44 465.086 44.6L466.486 42.76H454.526V45.96H471.006C471.033 45.8 471.046 45.5867 471.046 45.32C471.073 45.0533 471.086 44.8 471.086 44.56C471.086 42.5867 470.713 40.9067 469.966 39.52C469.219 38.1067 468.126 37.04 466.686 36.32C465.273 35.5733 463.553 35.2 461.526 35.2C459.499 35.2 457.739 35.6 456.246 36.4C454.753 37.1733 453.593 38.28 452.766 39.72C451.966 41.1333 451.566 42.8267 451.566 44.8C451.566 46.7467 451.966 48.44 452.766 49.88C453.593 51.2933 454.753 52.4 456.246 53.2C457.739 54 459.486 54.4 461.486 54.4ZM475.914 47.64L473.394 50.88C474.087 51.5467 474.86 52.1733 475.714 52.76C476.594 53.32 477.567 53.7733 478.634 54.12C479.727 54.4667 480.927 54.64 482.234 54.64C484.34 54.64 485.994 54.1333 487.194 53.12C488.394 52.08 488.994 50.64 488.994 48.8C488.994 47.68 488.74 46.7733 488.234 46.08C487.727 45.3867 487.047 44.8133 486.194 44.36C485.367 43.88 484.46 43.4533 483.474 43.08C482.674 42.7333 481.954 42.44 481.314 42.2C480.7 41.96 480.22 41.6933 479.874 41.4C479.554 41.08 479.394 40.72 479.394 40.32C479.394 39.8667 479.554 39.5333 479.874 39.32C480.22 39.08 480.687 38.96 481.274 38.96C482.154 38.96 483.047 39.1867 483.954 39.64C484.887 40.0933 485.687 40.68 486.354 41.4L488.634 38.2C488.047 37.6133 487.367 37.1067 486.594 36.68C485.82 36.2267 484.98 35.8667 484.074 35.6C483.167 35.3333 482.194 35.2 481.154 35.2C479.927 35.2 478.807 35.4 477.794 35.8C476.807 36.1733 476.02 36.7467 475.434 37.52C474.847 38.2667 474.554 39.1867 474.554 40.28C474.554 41.4267 474.807 42.3733 475.314 43.12C475.847 43.84 476.514 44.4267 477.314 44.88C478.114 45.3067 478.94 45.68 479.794 46C480.7 46.2933 481.447 46.5733 482.034 46.84C482.62 47.1067 483.06 47.4133 483.354 47.76C483.674 48.08 483.834 48.48 483.834 48.96C483.834 49.4933 483.647 49.92 483.274 50.24C482.9 50.5333 482.367 50.68 481.674 50.68C481.14 50.68 480.567 50.5733 479.954 50.36C479.367 50.1467 478.74 49.8267 478.074 49.4C477.407 48.9467 476.687 48.36 475.914 47.64ZM490.212 35.6V39.96H501.572V35.6H490.212ZM493.372 29.2V54H498.372V29.2H493.372ZM513.01 54.4C515.223 54.4 517.116 53.9733 518.69 53.12C520.29 52.24 521.57 50.9333 522.53 49.2L518.01 47.8C517.476 48.68 516.796 49.3467 515.97 49.8C515.17 50.2267 514.196 50.44 513.05 50.44C512.036 50.44 511.17 50.2133 510.45 49.76C509.73 49.3067 509.183 48.6533 508.81 47.8C508.463 46.9467 508.29 45.9067 508.29 44.68C508.316 43.4 508.503 42.3333 508.85 41.48C509.223 40.6 509.743 39.9467 510.41 39.52C511.103 39.0667 511.956 38.84 512.97 38.84C513.796 38.84 514.516 39.0267 515.13 39.4C515.743 39.7733 516.21 40.28 516.53 40.92C516.876 41.56 517.05 42.3333 517.05 43.24C517.05 43.4267 516.996 43.6667 516.89 43.96C516.81 44.2267 516.716 44.44 516.61 44.6L518.01 42.76H506.05V45.96H522.53C522.556 45.8 522.57 45.5867 522.57 45.32C522.596 45.0533 522.61 44.8 522.61 44.56C522.61 42.5867 522.236 40.9067 521.49 39.52C520.743 38.1067 519.65 37.04 518.21 36.32C516.796 35.5733 515.076 35.2 513.05 35.2C511.023 35.2 509.263 35.6 507.77 36.4C506.276 37.1733 505.116 38.28 504.29 39.72C503.49 41.1333 503.09 42.8267 503.09 44.8C503.09 46.7467 503.49 48.44 504.29 49.88C505.116 51.2933 506.276 52.4 507.77 53.2C509.263 54 511.01 54.4 513.01 54.4ZM194.095 72H206.615V67H194.095V72ZM194.095 83.04H206.215V78.28H194.095V83.04ZM190.415 67V95H195.935V67H190.415ZM215.959 87.8V76.6H210.599V88.36C210.599 90.5467 211.132 92.2667 212.199 93.52C213.292 94.7733 214.932 95.4 217.119 95.4C218.426 95.4 219.532 95.1333 220.439 94.6C221.346 94.04 222.092 93.24 222.679 92.2V95H227.839V76.6H222.679V87.8C222.679 88.5733 222.519 89.24 222.199 89.8C221.906 90.36 221.479 90.8 220.919 91.12C220.386 91.4133 219.746 91.56 218.999 91.56C217.932 91.56 217.159 91.24 216.679 90.6C216.199 89.9333 215.959 89 215.959 87.8ZM244.823 83.8V95H250.183V83.24C250.183 81.0267 249.649 79.3067 248.583 78.08C247.516 76.8267 245.889 76.2 243.703 76.2C242.396 76.2 241.276 76.48 240.343 77.04C239.436 77.5733 238.703 78.36 238.143 79.4V76.6H232.943V95H238.143V83.8C238.143 83.0267 238.289 82.36 238.583 81.8C238.876 81.24 239.303 80.8133 239.863 80.52C240.423 80.2 241.063 80.04 241.783 80.04C242.849 80.04 243.623 80.36 244.103 81C244.583 81.64 244.823 82.5733 244.823 83.8ZM259.207 85.8C259.207 84.76 259.447 83.84 259.927 83.04C260.407 82.24 261.047 81.6133 261.847 81.16C262.673 80.68 263.58 80.44 264.567 80.44C265.313 80.44 266.06 80.56 266.807 80.8C267.553 81.04 268.233 81.3867 268.847 81.84C269.487 82.2667 269.967 82.7733 270.287 83.36V78.04C269.647 77.48 268.807 77.04 267.767 76.72C266.753 76.3733 265.567 76.2 264.207 76.2C262.26 76.2 260.5 76.6 258.927 77.4C257.38 78.2 256.153 79.32 255.247 80.76C254.367 82.2 253.927 83.88 253.927 85.8C253.927 87.6933 254.367 89.3733 255.247 90.84C256.153 92.28 257.38 93.4 258.927 94.2C260.5 95 262.26 95.4 264.207 95.4C265.567 95.4 266.753 95.24 267.767 94.92C268.807 94.5733 269.647 94.1067 270.287 93.52V88.2C269.967 88.7867 269.5 89.3067 268.887 89.76C268.3 90.1867 267.633 90.5333 266.887 90.8C266.14 91.04 265.367 91.16 264.567 91.16C263.58 91.16 262.673 90.9333 261.847 90.48C261.047 90.0267 260.407 89.4 259.927 88.6C259.447 87.8 259.207 86.8667 259.207 85.8ZM262.487 92.6L259.007 100.04C259.593 99.7467 260.18 99.56 260.767 99.48C261.38 99.4 261.78 99.36 261.967 99.36C262.633 99.36 263.18 99.4533 263.607 99.64C264.06 99.8533 264.287 100.213 264.287 100.72C264.287 101.2 264.1 101.56 263.727 101.8C263.38 102.04 262.86 102.16 262.167 102.16C261.74 102.16 261.273 102.08 260.767 101.92C260.26 101.787 259.767 101.547 259.287 101.2L257.607 103.56C258.433 104.147 259.233 104.547 260.007 104.76C260.807 105 261.7 105.12 262.687 105.12C263.513 105.12 264.3 104.96 265.047 104.64C265.793 104.32 266.407 103.853 266.887 103.24C267.367 102.627 267.607 101.867 267.607 100.96C267.607 100.133 267.433 99.4533 267.087 98.92C266.74 98.4133 266.3 98.0267 265.767 97.76C265.233 97.4933 264.713 97.36 264.207 97.36C264.02 97.36 263.833 97.36 263.647 97.36C263.46 97.36 263.273 97.3867 263.087 97.44L266.247 92.68L262.487 92.6ZM278.537 89.52C278.537 88.96 278.67 88.48 278.937 88.08C279.23 87.68 279.657 87.36 280.217 87.12C280.777 86.88 281.457 86.76 282.257 86.76C283.35 86.76 284.297 86.8933 285.097 87.16C285.897 87.4267 286.67 87.84 287.417 88.4V85.88C287.177 85.5867 286.764 85.28 286.177 84.96C285.59 84.64 284.87 84.36 284.017 84.12C283.164 83.88 282.244 83.76 281.257 83.76C279.737 83.76 278.377 84 277.177 84.48C275.977 84.96 275.03 85.6533 274.337 86.56C273.67 87.4667 273.337 88.5867 273.337 89.92C273.337 91.0667 273.604 92.0533 274.137 92.88C274.67 93.68 275.43 94.3067 276.417 94.76C277.43 95.1867 278.59 95.4 279.897 95.4C281.177 95.4 282.324 95.1867 283.337 94.76C284.377 94.3067 285.204 93.6667 285.817 92.84C286.43 91.9867 286.737 90.9733 286.737 89.8L286.097 87.64C286.097 88.6533 285.897 89.4667 285.497 90.08C285.097 90.6933 284.55 91.1333 283.857 91.4C283.164 91.6667 282.404 91.8 281.577 91.8C280.937 91.8 280.39 91.72 279.937 91.56C279.484 91.3733 279.137 91.12 278.897 90.8C278.657 90.4533 278.537 90.0267 278.537 89.52ZM276.897 81.84C277.19 81.6533 277.617 81.4267 278.177 81.16C278.764 80.8933 279.43 80.6667 280.177 80.48C280.95 80.2667 281.777 80.16 282.657 80.16C283.67 80.16 284.497 80.4 285.137 80.88C285.777 81.3333 286.097 81.9733 286.097 82.8V95H291.097V81.96C291.097 80.7067 290.75 79.6533 290.057 78.8C289.364 77.92 288.404 77.2533 287.177 76.8C285.977 76.3467 284.577 76.12 282.977 76.12C281.324 76.12 279.817 76.36 278.457 76.84C277.097 77.2933 275.95 77.7733 275.017 78.28L276.897 81.84ZM275.537 71.44L278.177 73.6C278.177 73.3867 278.217 73.12 278.297 72.8C278.404 72.48 278.59 72.2 278.857 71.96C279.15 71.6933 279.564 71.56 280.097 71.56C280.737 71.56 281.31 71.7333 281.817 72.08C282.35 72.4267 282.897 72.7733 283.457 73.12C284.044 73.4667 284.697 73.64 285.417 73.64C286.217 73.64 286.95 73.4667 287.617 73.12C288.31 72.7733 288.897 72.3467 289.377 71.84C289.884 71.3333 290.244 70.84 290.457 70.36L287.937 67.8C287.537 68.44 287.137 68.9467 286.737 69.32C286.337 69.6667 285.897 69.84 285.417 69.84C284.857 69.84 284.39 69.7467 284.017 69.56C283.644 69.3467 283.284 69.1067 282.937 68.84C282.59 68.5733 282.19 68.3467 281.737 68.16C281.31 67.9467 280.777 67.84 280.137 67.84C279.364 67.84 278.644 68.0133 277.977 68.36C277.337 68.68 276.804 69.1067 276.377 69.64C275.95 70.1733 275.67 70.7733 275.537 71.44ZM294.672 85.8C294.672 87.6933 295.112 89.3733 295.992 90.84C296.898 92.28 298.112 93.4 299.632 94.2C301.178 95 302.925 95.4 304.872 95.4C306.818 95.4 308.552 95 310.072 94.2C311.618 93.4 312.832 92.28 313.712 90.84C314.618 89.3733 315.072 87.6933 315.072 85.8C315.072 83.88 314.618 82.2 313.712 80.76C312.832 79.32 311.618 78.2 310.072 77.4C308.552 76.6 306.818 76.2 304.872 76.2C302.925 76.2 301.178 76.6 299.632 77.4C298.112 78.2 296.898 79.32 295.992 80.76C295.112 82.2 294.672 83.88 294.672 85.8ZM299.952 85.8C299.952 84.76 300.165 83.84 300.592 83.04C301.045 82.24 301.645 81.6267 302.392 81.2C303.138 80.7733 303.965 80.56 304.872 80.56C305.778 80.56 306.605 80.7733 307.352 81.2C308.098 81.6267 308.685 82.24 309.112 83.04C309.565 83.84 309.792 84.76 309.792 85.8C309.792 86.84 309.565 87.76 309.112 88.56C308.685 89.3333 308.098 89.9467 307.352 90.4C306.605 90.8267 305.778 91.04 304.872 91.04C303.965 91.04 303.138 90.8267 302.392 90.4C301.645 89.9467 301.045 89.3333 300.592 88.56C300.165 87.76 299.952 86.84 299.952 85.8ZM330.711 69.48C330.711 70.3067 331.017 71 331.631 71.56C332.244 72.12 332.977 72.4 333.831 72.4C334.684 72.4 335.404 72.12 335.991 71.56C336.604 71 336.911 70.3067 336.911 69.48C336.911 68.6267 336.604 67.9333 335.991 67.4C335.404 66.84 334.684 66.56 333.831 66.56C332.977 66.56 332.244 66.84 331.631 67.4C331.017 67.9333 330.711 68.6267 330.711 69.48ZM331.271 76.6V95H336.311V76.6H331.271ZM353.69 83.8V95H359.05V83.24C359.05 81.0267 358.517 79.3067 357.45 78.08C356.383 76.8267 354.757 76.2 352.57 76.2C351.263 76.2 350.143 76.48 349.21 77.04C348.303 77.5733 347.57 78.36 347.01 79.4V76.6H341.81V95H347.01V83.8C347.01 83.0267 347.157 82.36 347.45 81.8C347.743 81.24 348.17 80.8133 348.73 80.52C349.29 80.2 349.93 80.04 350.65 80.04C351.717 80.04 352.49 80.36 352.97 81C353.45 81.64 353.69 82.5733 353.69 83.8ZM365.074 88.64L362.554 91.88C363.247 92.5467 364.02 93.1733 364.874 93.76C365.754 94.32 366.727 94.7733 367.794 95.12C368.887 95.4667 370.087 95.64 371.394 95.64C373.5 95.64 375.154 95.1333 376.354 94.12C377.554 93.08 378.154 91.64 378.154 89.8C378.154 88.68 377.9 87.7733 377.394 87.08C376.887 86.3867 376.207 85.8133 375.354 85.36C374.527 84.88 373.62 84.4533 372.634 84.08C371.834 83.7333 371.114 83.44 370.474 83.2C369.86 82.96 369.38 82.6933 369.034 82.4C368.714 82.08 368.554 81.72 368.554 81.32C368.554 80.8667 368.714 80.5333 369.034 80.32C369.38 80.08 369.847 79.96 370.434 79.96C371.314 79.96 372.207 80.1867 373.114 80.64C374.047 81.0933 374.847 81.68 375.514 82.4L377.794 79.2C377.207 78.6133 376.527 78.1067 375.754 77.68C374.98 77.2267 374.14 76.8667 373.234 76.6C372.327 76.3333 371.354 76.2 370.314 76.2C369.087 76.2 367.967 76.4 366.954 76.8C365.967 77.1733 365.18 77.7467 364.594 78.52C364.007 79.2667 363.714 80.1867 363.714 81.28C363.714 82.4267 363.967 83.3733 364.474 84.12C365.007 84.84 365.674 85.4267 366.474 85.88C367.274 86.3067 368.1 86.68 368.954 87C369.86 87.2933 370.607 87.5733 371.194 87.84C371.78 88.1067 372.22 88.4133 372.514 88.76C372.834 89.08 372.994 89.48 372.994 89.96C372.994 90.4933 372.807 90.92 372.434 91.24C372.06 91.5333 371.527 91.68 370.834 91.68C370.3 91.68 369.727 91.5733 369.114 91.36C368.527 91.1467 367.9 90.8267 367.234 90.4C366.567 89.9467 365.847 89.36 365.074 88.64ZM379.372 76.6V80.96H390.732V76.6H379.372ZM382.532 70.2V95H387.532V70.2H382.532ZM398.57 76.6H393.49V95H398.57V76.6ZM403.97 82L406.33 77.6C405.956 77.12 405.463 76.76 404.85 76.52C404.263 76.28 403.636 76.16 402.97 76.16C402.01 76.16 401.076 76.5067 400.17 77.2C399.263 77.8667 398.53 78.7733 397.97 79.92C397.41 81.04 397.13 82.3333 397.13 83.8L398.57 85.24C398.57 84.36 398.676 83.6133 398.89 83C399.13 82.36 399.476 81.8667 399.93 81.52C400.383 81.1733 400.93 81 401.57 81C402.103 81 402.543 81.0933 402.89 81.28C403.263 81.44 403.623 81.68 403.97 82ZM414.436 87.8V76.6H409.076V88.36C409.076 90.5467 409.609 92.2667 410.676 93.52C411.769 94.7733 413.409 95.4 415.596 95.4C416.902 95.4 418.009 95.1333 418.916 94.6C419.822 94.04 420.569 93.24 421.156 92.2V95H426.316V76.6H421.156V87.8C421.156 88.5733 420.996 89.24 420.676 89.8C420.382 90.36 419.956 90.8 419.396 91.12C418.862 91.4133 418.222 91.56 417.476 91.56C416.409 91.56 415.636 91.24 415.156 90.6C414.676 89.9333 414.436 89 414.436 87.8ZM458.619 83.24C458.619 81.7467 458.406 80.48 457.979 79.44C457.579 78.3733 456.953 77.5733 456.099 77.04C455.246 76.48 454.139 76.2 452.779 76.2C451.526 76.2 450.406 76.4667 449.419 77C448.459 77.5333 447.646 78.32 446.979 79.36C446.579 78.32 445.939 77.5333 445.059 77C444.179 76.4667 443.059 76.2 441.699 76.2C440.473 76.2 439.419 76.4667 438.539 77C437.659 77.5333 436.953 78.3067 436.419 79.32V76.6H431.419V95H436.419V83.8C436.419 83 436.553 82.32 436.819 81.76C437.086 81.1733 437.459 80.7467 437.939 80.48C438.419 80.1867 438.979 80.04 439.619 80.04C440.579 80.04 441.273 80.36 441.699 81C442.126 81.6133 442.339 82.5467 442.339 83.8V95H447.499V83.8C447.499 83 447.633 82.32 447.899 81.76C448.166 81.1733 448.539 80.7467 449.019 80.48C449.499 80.1867 450.059 80.04 450.699 80.04C451.659 80.04 452.353 80.36 452.779 81C453.206 81.6133 453.419 82.5467 453.419 83.8V95H458.619V83.24ZM472.404 95.4C474.617 95.4 476.511 94.9733 478.084 94.12C479.684 93.24 480.964 91.9333 481.924 90.2L477.404 88.8C476.871 89.68 476.191 90.3467 475.364 90.8C474.564 91.2267 473.591 91.44 472.444 91.44C471.431 91.44 470.564 91.2133 469.844 90.76C469.124 90.3067 468.577 89.6533 468.204 88.8C467.857 87.9467 467.684 86.9067 467.684 85.68C467.711 84.4 467.897 83.3333 468.244 82.48C468.617 81.6 469.137 80.9467 469.804 80.52C470.497 80.0667 471.351 79.84 472.364 79.84C473.191 79.84 473.911 80.0267 474.524 80.4C475.137 80.7733 475.604 81.28 475.924 81.92C476.271 82.56 476.444 83.3333 476.444 84.24C476.444 84.4267 476.391 84.6667 476.284 84.96C476.204 85.2267 476.111 85.44 476.004 85.6L477.404 83.76H465.444V86.96H481.924C481.951 86.8 481.964 86.5867 481.964 86.32C481.991 86.0533 482.004 85.8 482.004 85.56C482.004 83.5867 481.631 81.9067 480.884 80.52C480.137 79.1067 479.044 78.04 477.604 77.32C476.191 76.5733 474.471 76.2 472.444 76.2C470.417 76.2 468.657 76.6 467.164 77.4C465.671 78.1733 464.511 79.28 463.684 80.72C462.884 82.1333 462.484 83.8267 462.484 85.8C462.484 87.7467 462.884 89.44 463.684 90.88C464.511 92.2933 465.671 93.4 467.164 94.2C468.657 95 470.404 95.4 472.404 95.4ZM497.792 83.8V95H503.152V83.24C503.152 81.0267 502.618 79.3067 501.552 78.08C500.485 76.8267 498.858 76.2 496.672 76.2C495.365 76.2 494.245 76.48 493.312 77.04C492.405 77.5733 491.672 78.36 491.112 79.4V76.6H485.912V95H491.112V83.8C491.112 83.0267 491.258 82.36 491.552 81.8C491.845 81.24 492.272 80.8133 492.832 80.52C493.392 80.2 494.032 80.04 494.752 80.04C495.818 80.04 496.592 80.36 497.072 81C497.552 81.64 497.792 82.5733 497.792 83.8ZM505.895 76.6V80.96H517.255V76.6H505.895ZM509.055 70.2V95H514.055V70.2H509.055ZM523.693 89.28C523.693 88.7467 523.813 88.3067 524.053 87.96C524.293 87.5867 524.666 87.3067 525.173 87.12C525.68 86.9067 526.333 86.8 527.133 86.8C528.12 86.8 529.053 86.9333 529.933 87.2C530.84 87.4667 531.653 87.8667 532.373 88.4V86C532.106 85.68 531.666 85.3467 531.053 85C530.44 84.6533 529.68 84.36 528.773 84.12C527.893 83.88 526.866 83.76 525.693 83.76C523.4 83.76 521.626 84.28 520.373 85.32C519.12 86.36 518.493 87.7733 518.493 89.56C518.493 90.8133 518.786 91.88 519.373 92.76C519.986 93.6133 520.786 94.2667 521.773 94.72C522.76 95.1733 523.826 95.4 524.973 95.4C526.093 95.4 527.16 95.2 528.173 94.8C529.213 94.4 530.053 93.8 530.693 93C531.36 92.2 531.693 91.2133 531.693 90.04L531.053 87.64C531.053 88.52 530.853 89.28 530.453 89.92C530.053 90.5333 529.533 91.0133 528.893 91.36C528.253 91.68 527.533 91.84 526.733 91.84C526.173 91.84 525.653 91.7467 525.173 91.56C524.72 91.3467 524.36 91.0533 524.093 90.68C523.826 90.28 523.693 89.8133 523.693 89.28ZM521.693 81.8C521.96 81.6133 522.373 81.3867 522.933 81.12C523.493 80.8533 524.16 80.6267 524.933 80.44C525.706 80.2533 526.52 80.16 527.373 80.16C527.933 80.16 528.44 80.2133 528.893 80.32C529.346 80.4267 529.733 80.6 530.053 80.84C530.4 81.08 530.653 81.3867 530.813 81.76C530.973 82.1067 531.053 82.5333 531.053 83.04V95H536.053V81.96C536.053 80.7067 535.706 79.6533 535.013 78.8C534.32 77.92 533.36 77.2533 532.133 76.8C530.906 76.3467 529.506 76.12 527.933 76.12C526.226 76.12 524.68 76.36 523.293 76.84C521.906 77.2933 520.733 77.7733 519.773 78.28L521.693 81.8ZM540.873 63.8V95H546.073V63.8H540.873Z" fill="white"/>
<path d="M14.6595 89.6877L9.58939 96.7999H18.3237H65.8884V108.608V113.108H70.3884H102.929H107.429V108.608V96.7999H118.492H122.992V92.2999V66.0654V61.5654H118.492H107.429V9.34229V4.84229H102.929H77.4624H75.144L73.7982 6.73013L14.6595 89.6877ZM70.1328 61.9056V66.5287H66.4961L70.1328 61.9056Z" fill="black" stroke="white" stroke-width="9"/>
</svg>
