<svg width="589" height="121" viewBox="0 0 589 121" fill="none" xmlns="http://www.w3.org/2000/svg">
<rect x="45" y="12" width="544" height="99" fill="#642424"/>
<path d="M95.3236 39C95.3236 37.1333 95.7369 35.52 96.5636 34.16C97.4169 32.8 98.5236 31.76 99.8836 31.04C101.244 30.2933 102.724 29.92 104.324 29.92C105.657 29.92 106.844 30.0933 107.884 30.44C108.924 30.7867 109.857 31.2533 110.684 31.84C111.537 32.4267 112.27 33.0667 112.884 33.76V27.32C111.737 26.4133 110.484 25.7067 109.124 25.2C107.79 24.6933 106.097 24.44 104.044 24.44C101.91 24.44 99.9236 24.7867 98.0836 25.48C96.2703 26.1733 94.6836 27.1733 93.3236 28.48C91.9903 29.7867 90.9503 31.3333 90.2036 33.12C89.4836 34.88 89.1236 36.84 89.1236 39C89.1236 41.16 89.4836 43.1333 90.2036 44.92C90.9503 46.68 91.9903 48.2133 93.3236 49.52C94.6836 50.8267 96.2703 51.8267 98.0836 52.52C99.9236 53.2133 101.91 53.56 104.044 53.56C106.097 53.56 107.79 53.3067 109.124 52.8C110.484 52.2933 111.737 51.5867 112.884 50.68V44.24C112.27 44.9333 111.537 45.5733 110.684 46.16C109.857 46.7467 108.924 47.2133 107.884 47.56C106.844 47.9067 105.657 48.08 104.324 48.08C102.724 48.08 101.244 47.72 99.8836 47C98.5236 46.2533 97.4169 45.2 96.5636 43.84C95.7369 42.4533 95.3236 40.84 95.3236 39ZM116.855 43.8C116.855 45.6933 117.295 47.3733 118.175 48.84C119.082 50.28 120.295 51.4 121.815 52.2C123.362 53 125.108 53.4 127.055 53.4C129.002 53.4 130.735 53 132.255 52.2C133.802 51.4 135.015 50.28 135.895 48.84C136.802 47.3733 137.255 45.6933 137.255 43.8C137.255 41.88 136.802 40.2 135.895 38.76C135.015 37.32 133.802 36.2 132.255 35.4C130.735 34.6 129.002 34.2 127.055 34.2C125.108 34.2 123.362 34.6 121.815 35.4C120.295 36.2 119.082 37.32 118.175 38.76C117.295 40.2 116.855 41.88 116.855 43.8ZM122.135 43.8C122.135 42.76 122.348 41.84 122.775 41.04C123.228 40.24 123.828 39.6267 124.575 39.2C125.322 38.7733 126.148 38.56 127.055 38.56C127.962 38.56 128.788 38.7733 129.535 39.2C130.282 39.6267 130.868 40.24 131.295 41.04C131.748 41.84 131.975 42.76 131.975 43.8C131.975 44.84 131.748 45.76 131.295 46.56C130.868 47.3333 130.282 47.9467 129.535 48.4C128.788 48.8267 127.962 49.04 127.055 49.04C126.148 49.04 125.322 48.8267 124.575 48.4C123.828 47.9467 123.228 47.3333 122.775 46.56C122.348 45.76 122.135 44.84 122.135 43.8ZM153.022 41.8V53H158.382V41.24C158.382 39.0267 157.849 37.3067 156.782 36.08C155.715 34.8267 154.089 34.2 151.902 34.2C150.595 34.2 149.475 34.48 148.542 35.04C147.635 35.5733 146.902 36.36 146.342 37.4V34.6H141.142V53H146.342V41.8C146.342 41.0267 146.489 40.36 146.782 39.8C147.075 39.24 147.502 38.8133 148.062 38.52C148.622 38.2 149.262 38.04 149.982 38.04C151.049 38.04 151.822 38.36 152.302 39C152.782 39.64 153.022 40.5733 153.022 41.8ZM161.126 34.6V38.96H172.486V34.6H161.126ZM164.286 28.2V53H169.286V28.2H164.286ZM180.324 34.6H175.244V53H180.324V34.6ZM185.724 40L188.084 35.6C187.71 35.12 187.217 34.76 186.604 34.52C186.017 34.28 185.39 34.16 184.724 34.16C183.764 34.16 182.83 34.5067 181.924 35.2C181.017 35.8667 180.284 36.7733 179.724 37.92C179.164 39.04 178.884 40.3333 178.884 41.8L180.324 43.24C180.324 42.36 180.43 41.6133 180.644 41C180.884 40.36 181.23 39.8667 181.684 39.52C182.137 39.1733 182.684 39 183.324 39C183.857 39 184.297 39.0933 184.644 39.28C185.017 39.44 185.377 39.68 185.724 40ZM194.51 47.28C194.51 46.7467 194.63 46.3067 194.87 45.96C195.11 45.5867 195.483 45.3067 195.99 45.12C196.496 44.9067 197.15 44.8 197.95 44.8C198.936 44.8 199.87 44.9333 200.75 45.2C201.656 45.4667 202.47 45.8667 203.19 46.4V44C202.923 43.68 202.483 43.3467 201.87 43C201.256 42.6533 200.496 42.36 199.59 42.12C198.71 41.88 197.683 41.76 196.51 41.76C194.216 41.76 192.443 42.28 191.19 43.32C189.936 44.36 189.31 45.7733 189.31 47.56C189.31 48.8133 189.603 49.88 190.19 50.76C190.803 51.6133 191.603 52.2667 192.59 52.72C193.576 53.1733 194.643 53.4 195.79 53.4C196.91 53.4 197.976 53.2 198.99 52.8C200.03 52.4 200.87 51.8 201.51 51C202.176 50.2 202.51 49.2133 202.51 48.04L201.87 45.64C201.87 46.52 201.67 47.28 201.27 47.92C200.87 48.5333 200.35 49.0133 199.71 49.36C199.07 49.68 198.35 49.84 197.55 49.84C196.99 49.84 196.47 49.7467 195.99 49.56C195.536 49.3467 195.176 49.0533 194.91 48.68C194.643 48.28 194.51 47.8133 194.51 47.28ZM192.51 39.8C192.776 39.6133 193.19 39.3867 193.75 39.12C194.31 38.8533 194.976 38.6267 195.75 38.44C196.523 38.2533 197.336 38.16 198.19 38.16C198.75 38.16 199.256 38.2133 199.71 38.32C200.163 38.4267 200.55 38.6 200.87 38.84C201.216 39.08 201.47 39.3867 201.63 39.76C201.79 40.1067 201.87 40.5333 201.87 41.04V53H206.87V39.96C206.87 38.7067 206.523 37.6533 205.83 36.8C205.136 35.92 204.176 35.2533 202.95 34.8C201.723 34.3467 200.323 34.12 198.75 34.12C197.043 34.12 195.496 34.36 194.11 34.84C192.723 35.2933 191.55 35.7733 190.59 36.28L192.51 39.8ZM209.329 34.6V38.96H220.689V34.6H209.329ZM212.489 28.2V53H217.489V28.2H212.489ZM222.207 43.8C222.207 45.6933 222.647 47.3733 223.527 48.84C224.433 50.28 225.647 51.4 227.167 52.2C228.713 53 230.46 53.4 232.407 53.4C234.353 53.4 236.087 53 237.607 52.2C239.153 51.4 240.367 50.28 241.247 48.84C242.153 47.3733 242.607 45.6933 242.607 43.8C242.607 41.88 242.153 40.2 241.247 38.76C240.367 37.32 239.153 36.2 237.607 35.4C236.087 34.6 234.353 34.2 232.407 34.2C230.46 34.2 228.713 34.6 227.167 35.4C225.647 36.2 224.433 37.32 223.527 38.76C222.647 40.2 222.207 41.88 222.207 43.8ZM227.487 43.8C227.487 42.76 227.7 41.84 228.127 41.04C228.58 40.24 229.18 39.6267 229.927 39.2C230.673 38.7733 231.5 38.56 232.407 38.56C233.313 38.56 234.14 38.7733 234.887 39.2C235.633 39.6267 236.22 40.24 236.647 41.04C237.1 41.84 237.327 42.76 237.327 43.8C237.327 44.84 237.1 45.76 236.647 46.56C236.22 47.3333 235.633 47.9467 234.887 48.4C234.14 48.8267 233.313 49.04 232.407 49.04C231.5 49.04 230.673 48.8267 229.927 48.4C229.18 47.9467 228.58 47.3333 228.127 46.56C227.7 45.76 227.487 44.84 227.487 43.8ZM272.366 21.8V53H277.566V21.8H272.366ZM257.246 43.8C257.246 45.8267 257.659 47.56 258.486 49C259.312 50.44 260.406 51.5333 261.766 52.28C263.126 53.0267 264.566 53.4 266.086 53.4C267.632 53.4 268.992 53.0133 270.166 52.24C271.366 51.4667 272.299 50.36 272.966 48.92C273.659 47.48 274.006 45.7733 274.006 43.8C274.006 41.8 273.659 40.0933 272.966 38.68C272.299 37.24 271.366 36.1333 270.166 35.36C268.992 34.5867 267.632 34.2 266.086 34.2C264.566 34.2 263.126 34.5733 261.766 35.32C260.406 36.0667 259.312 37.16 258.486 38.6C257.659 40.0133 257.246 41.7467 257.246 43.8ZM262.606 43.8C262.606 42.7067 262.832 41.76 263.286 40.96C263.739 40.16 264.352 39.5467 265.126 39.12C265.899 38.6933 266.726 38.48 267.606 38.48C268.379 38.48 269.126 38.6933 269.846 39.12C270.592 39.52 271.192 40.12 271.646 40.92C272.126 41.72 272.366 42.68 272.366 43.8C272.366 44.92 272.126 45.88 271.646 46.68C271.192 47.48 270.592 48.0933 269.846 48.52C269.126 48.92 268.379 49.12 267.606 49.12C266.726 49.12 265.899 48.9067 265.126 48.48C264.352 48.0533 263.739 47.44 263.286 46.64C262.832 45.84 262.606 44.8933 262.606 43.8ZM291.228 53.4C293.442 53.4 295.335 52.9733 296.908 52.12C298.508 51.24 299.788 49.9333 300.748 48.2L296.228 46.8C295.695 47.68 295.015 48.3467 294.188 48.8C293.388 49.2267 292.415 49.44 291.268 49.44C290.255 49.44 289.388 49.2133 288.668 48.76C287.948 48.3067 287.402 47.6533 287.028 46.8C286.682 45.9467 286.508 44.9067 286.508 43.68C286.535 42.4 286.722 41.3333 287.068 40.48C287.442 39.6 287.962 38.9467 288.628 38.52C289.322 38.0667 290.175 37.84 291.188 37.84C292.015 37.84 292.735 38.0267 293.348 38.4C293.962 38.7733 294.428 39.28 294.748 39.92C295.095 40.56 295.268 41.3333 295.268 42.24C295.268 42.4267 295.215 42.6667 295.108 42.96C295.028 43.2267 294.935 43.44 294.828 43.6L296.228 41.76H284.268V44.96H300.748C300.775 44.8 300.788 44.5867 300.788 44.32C300.815 44.0533 300.828 43.8 300.828 43.56C300.828 41.5867 300.455 39.9067 299.708 38.52C298.962 37.1067 297.868 36.04 296.428 35.32C295.015 34.5733 293.295 34.2 291.268 34.2C289.242 34.2 287.482 34.6 285.988 35.4C284.495 36.1733 283.335 37.28 282.508 38.72C281.708 40.1333 281.308 41.8267 281.308 43.8C281.308 45.7467 281.708 47.44 282.508 48.88C283.335 50.2933 284.495 51.4 285.988 52.2C287.482 53 289.228 53.4 291.228 53.4ZM323.368 37.28L331.488 50.4L339.608 37.28L341.408 53H347.368L343.208 23.6L331.488 41.68L319.768 23.6L315.608 53H321.568L323.368 37.28ZM355.056 47.28C355.056 46.7467 355.176 46.3067 355.416 45.96C355.656 45.5867 356.03 45.3067 356.536 45.12C357.043 44.9067 357.696 44.8 358.496 44.8C359.483 44.8 360.416 44.9333 361.296 45.2C362.203 45.4667 363.016 45.8667 363.736 46.4V44C363.47 43.68 363.03 43.3467 362.416 43C361.803 42.6533 361.043 42.36 360.136 42.12C359.256 41.88 358.23 41.76 357.056 41.76C354.763 41.76 352.99 42.28 351.736 43.32C350.483 44.36 349.856 45.7733 349.856 47.56C349.856 48.8133 350.15 49.88 350.736 50.76C351.35 51.6133 352.15 52.2667 353.136 52.72C354.123 53.1733 355.19 53.4 356.336 53.4C357.456 53.4 358.523 53.2 359.536 52.8C360.576 52.4 361.416 51.8 362.056 51C362.723 50.2 363.056 49.2133 363.056 48.04L362.416 45.64C362.416 46.52 362.216 47.28 361.816 47.92C361.416 48.5333 360.896 49.0133 360.256 49.36C359.616 49.68 358.896 49.84 358.096 49.84C357.536 49.84 357.016 49.7467 356.536 49.56C356.083 49.3467 355.723 49.0533 355.456 48.68C355.19 48.28 355.056 47.8133 355.056 47.28ZM353.056 39.8C353.323 39.6133 353.736 39.3867 354.296 39.12C354.856 38.8533 355.523 38.6267 356.296 38.44C357.07 38.2533 357.883 38.16 358.736 38.16C359.296 38.16 359.803 38.2133 360.256 38.32C360.71 38.4267 361.096 38.6 361.416 38.84C361.763 39.08 362.016 39.3867 362.176 39.76C362.336 40.1067 362.416 40.5333 362.416 41.04V53H367.416V39.96C367.416 38.7067 367.07 37.6533 366.376 36.8C365.683 35.92 364.723 35.2533 363.496 34.8C362.27 34.3467 360.87 34.12 359.296 34.12C357.59 34.12 356.043 34.36 354.656 34.84C353.27 35.2933 352.096 35.7733 351.136 36.28L353.056 39.8ZM384.116 41.8V53H389.476V41.24C389.476 39.0267 388.942 37.3067 387.876 36.08C386.809 34.8267 385.182 34.2 382.996 34.2C381.689 34.2 380.569 34.48 379.636 35.04C378.729 35.5733 377.996 36.36 377.436 37.4V34.6H372.236V53H377.436V41.8C377.436 41.0267 377.582 40.36 377.876 39.8C378.169 39.24 378.596 38.8133 379.156 38.52C379.716 38.2 380.356 38.04 381.076 38.04C382.142 38.04 382.916 38.36 383.396 39C383.876 39.64 384.116 40.5733 384.116 41.8ZM399.94 45.8V34.6H394.58V46.36C394.58 48.5467 395.113 50.2667 396.18 51.52C397.273 52.7733 398.913 53.4 401.1 53.4C402.406 53.4 403.513 53.1333 404.42 52.6C405.326 52.04 406.073 51.24 406.66 50.2V53H411.82V34.6H406.66V45.8C406.66 46.5733 406.5 47.24 406.18 47.8C405.886 48.36 405.46 48.8 404.9 49.12C404.366 49.4133 403.726 49.56 402.98 49.56C401.913 49.56 401.14 49.24 400.66 48.6C400.18 47.9333 399.94 47 399.94 45.8ZM414.563 34.6V38.96H425.923V34.6H414.563ZM417.723 28.2V53H422.723V28.2H417.723ZM437.361 53.4C439.574 53.4 441.468 52.9733 443.041 52.12C444.641 51.24 445.921 49.9333 446.881 48.2L442.361 46.8C441.828 47.68 441.148 48.3467 440.321 48.8C439.521 49.2267 438.548 49.44 437.401 49.44C436.388 49.44 435.521 49.2133 434.801 48.76C434.081 48.3067 433.534 47.6533 433.161 46.8C432.814 45.9467 432.641 44.9067 432.641 43.68C432.668 42.4 432.854 41.3333 433.201 40.48C433.574 39.6 434.094 38.9467 434.761 38.52C435.454 38.0667 436.308 37.84 437.321 37.84C438.148 37.84 438.868 38.0267 439.481 38.4C440.094 38.7733 440.561 39.28 440.881 39.92C441.228 40.56 441.401 41.3333 441.401 42.24C441.401 42.4267 441.348 42.6667 441.241 42.96C441.161 43.2267 441.068 43.44 440.961 43.6L442.361 41.76H430.401V44.96H446.881C446.908 44.8 446.921 44.5867 446.921 44.32C446.948 44.0533 446.961 43.8 446.961 43.56C446.961 41.5867 446.588 39.9067 445.841 38.52C445.094 37.1067 444.001 36.04 442.561 35.32C441.148 34.5733 439.428 34.2 437.401 34.2C435.374 34.2 433.614 34.6 432.121 35.4C430.628 36.1733 429.468 37.28 428.641 38.72C427.841 40.1333 427.441 41.8267 427.441 43.8C427.441 45.7467 427.841 47.44 428.641 48.88C429.468 50.2933 430.628 51.4 432.121 52.2C433.614 53 435.361 53.4 437.361 53.4ZM462.749 41.8V53H468.109V41.24C468.109 39.0267 467.575 37.3067 466.509 36.08C465.442 34.8267 463.815 34.2 461.629 34.2C460.322 34.2 459.202 34.48 458.269 35.04C457.362 35.5733 456.629 36.36 456.069 37.4V34.6H450.869V53H456.069V41.8C456.069 41.0267 456.215 40.36 456.509 39.8C456.802 39.24 457.229 38.8133 457.789 38.52C458.349 38.2 458.989 38.04 459.709 38.04C460.775 38.04 461.549 38.36 462.029 39C462.509 39.64 462.749 40.5733 462.749 41.8ZM477.132 43.8C477.132 42.76 477.372 41.84 477.852 41.04C478.332 40.24 478.972 39.6133 479.772 39.16C480.599 38.68 481.506 38.44 482.492 38.44C483.239 38.44 483.986 38.56 484.732 38.8C485.479 39.04 486.159 39.3867 486.772 39.84C487.412 40.2667 487.892 40.7733 488.212 41.36V36.04C487.572 35.48 486.732 35.04 485.692 34.72C484.679 34.3733 483.492 34.2 482.132 34.2C480.186 34.2 478.426 34.6 476.852 35.4C475.306 36.2 474.079 37.32 473.172 38.76C472.292 40.2 471.852 41.88 471.852 43.8C471.852 45.6933 472.292 47.3733 473.172 48.84C474.079 50.28 475.306 51.4 476.852 52.2C478.426 53 480.186 53.4 482.132 53.4C483.492 53.4 484.679 53.24 485.692 52.92C486.732 52.5733 487.572 52.1067 488.212 51.52V46.2C487.892 46.7867 487.426 47.3067 486.812 47.76C486.226 48.1867 485.559 48.5333 484.812 48.8C484.066 49.04 483.292 49.16 482.492 49.16C481.506 49.16 480.599 48.9333 479.772 48.48C478.972 48.0267 478.332 47.4 477.852 46.6C477.372 45.8 477.132 44.8667 477.132 43.8ZM480.412 50.6L476.932 58.04C477.519 57.7467 478.106 57.56 478.692 57.48C479.306 57.4 479.706 57.36 479.892 57.36C480.559 57.36 481.106 57.4533 481.532 57.64C481.986 57.8533 482.212 58.2133 482.212 58.72C482.212 59.2 482.026 59.56 481.652 59.8C481.306 60.04 480.786 60.16 480.092 60.16C479.666 60.16 479.199 60.08 478.692 59.92C478.186 59.7867 477.692 59.5467 477.212 59.2L475.532 61.56C476.359 62.1467 477.159 62.5467 477.932 62.76C478.732 63 479.626 63.12 480.612 63.12C481.439 63.12 482.226 62.96 482.972 62.64C483.719 62.32 484.332 61.8533 484.812 61.24C485.292 60.6267 485.532 59.8667 485.532 58.96C485.532 58.1333 485.359 57.4533 485.012 56.92C484.666 56.4133 484.226 56.0267 483.692 55.76C483.159 55.4933 482.639 55.36 482.132 55.36C481.946 55.36 481.759 55.36 481.572 55.36C481.386 55.36 481.199 55.3867 481.012 55.44L484.172 50.68L480.412 50.6ZM496.463 47.52C496.463 46.96 496.596 46.48 496.863 46.08C497.156 45.68 497.583 45.36 498.143 45.12C498.703 44.88 499.383 44.76 500.183 44.76C501.276 44.76 502.223 44.8933 503.023 45.16C503.823 45.4267 504.596 45.84 505.343 46.4V43.88C505.103 43.5867 504.689 43.28 504.103 42.96C503.516 42.64 502.796 42.36 501.943 42.12C501.089 41.88 500.169 41.76 499.183 41.76C497.663 41.76 496.303 42 495.103 42.48C493.903 42.96 492.956 43.6533 492.263 44.56C491.596 45.4667 491.263 46.5867 491.263 47.92C491.263 49.0667 491.529 50.0533 492.063 50.88C492.596 51.68 493.356 52.3067 494.343 52.76C495.356 53.1867 496.516 53.4 497.823 53.4C499.103 53.4 500.249 53.1867 501.263 52.76C502.303 52.3067 503.129 51.6667 503.743 50.84C504.356 49.9867 504.663 48.9733 504.663 47.8L504.023 45.64C504.023 46.6533 503.823 47.4667 503.423 48.08C503.023 48.6933 502.476 49.1333 501.783 49.4C501.089 49.6667 500.329 49.8 499.503 49.8C498.863 49.8 498.316 49.72 497.863 49.56C497.409 49.3733 497.063 49.12 496.823 48.8C496.583 48.4533 496.463 48.0267 496.463 47.52ZM494.823 39.84C495.116 39.6533 495.543 39.4267 496.103 39.16C496.689 38.8933 497.356 38.6667 498.103 38.48C498.876 38.2667 499.703 38.16 500.583 38.16C501.596 38.16 502.423 38.4 503.063 38.88C503.703 39.3333 504.023 39.9733 504.023 40.8V53H509.023V39.96C509.023 38.7067 508.676 37.6533 507.983 36.8C507.289 35.92 506.329 35.2533 505.103 34.8C503.903 34.3467 502.503 34.12 500.903 34.12C499.249 34.12 497.743 34.36 496.383 34.84C495.023 35.2933 493.876 35.7733 492.943 36.28L494.823 39.84ZM493.463 29.44L496.103 31.6C496.103 31.3867 496.143 31.12 496.223 30.8C496.329 30.48 496.516 30.2 496.783 29.96C497.076 29.6933 497.489 29.56 498.023 29.56C498.663 29.56 499.236 29.7333 499.743 30.08C500.276 30.4267 500.823 30.7733 501.383 31.12C501.969 31.4667 502.623 31.64 503.343 31.64C504.143 31.64 504.876 31.4667 505.543 31.12C506.236 30.7733 506.823 30.3467 507.303 29.84C507.809 29.3333 508.169 28.84 508.383 28.36L505.863 25.8C505.463 26.44 505.063 26.9467 504.663 27.32C504.263 27.6667 503.823 27.84 503.343 27.84C502.783 27.84 502.316 27.7467 501.943 27.56C501.569 27.3467 501.209 27.1067 500.863 26.84C500.516 26.5733 500.116 26.3467 499.663 26.16C499.236 25.9467 498.703 25.84 498.063 25.84C497.289 25.84 496.569 26.0133 495.903 26.36C495.263 26.68 494.729 27.1067 494.303 27.64C493.876 28.1733 493.596 28.7733 493.463 29.44ZM512.597 43.8C512.597 45.6933 513.037 47.3733 513.917 48.84C514.824 50.28 516.037 51.4 517.557 52.2C519.104 53 520.851 53.4 522.797 53.4C524.744 53.4 526.477 53 527.997 52.2C529.544 51.4 530.757 50.28 531.637 48.84C532.544 47.3733 532.997 45.6933 532.997 43.8C532.997 41.88 532.544 40.2 531.637 38.76C530.757 37.32 529.544 36.2 527.997 35.4C526.477 34.6 524.744 34.2 522.797 34.2C520.851 34.2 519.104 34.6 517.557 35.4C516.037 36.2 514.824 37.32 513.917 38.76C513.037 40.2 512.597 41.88 512.597 43.8ZM517.877 43.8C517.877 42.76 518.091 41.84 518.517 41.04C518.971 40.24 519.571 39.6267 520.317 39.2C521.064 38.7733 521.891 38.56 522.797 38.56C523.704 38.56 524.531 38.7733 525.277 39.2C526.024 39.6267 526.611 40.24 527.037 41.04C527.491 41.84 527.717 42.76 527.717 43.8C527.717 44.84 527.491 45.76 527.037 46.56C526.611 47.3333 526.024 47.9467 525.277 48.4C524.531 48.8267 523.704 49.04 522.797 49.04C521.891 49.04 521.064 48.8267 520.317 48.4C519.571 47.9467 518.971 47.3333 518.517 46.56C518.091 45.76 517.877 44.84 517.877 43.8ZM119.786 66V94H125.506V66H119.786ZM123.266 70.84H128.826C130.346 70.84 131.546 71.1867 132.426 71.88C133.306 72.5467 133.746 73.56 133.746 74.92C133.746 76.2533 133.306 77.2667 132.426 77.96C131.546 78.6533 130.346 79 128.826 79H123.266V83.84H128.826C131.039 83.84 132.919 83.48 134.466 82.76C136.039 82.04 137.239 81.0133 138.066 79.68C138.893 78.32 139.306 76.7333 139.306 74.92C139.306 73.08 138.893 71.4933 138.066 70.16C137.239 68.8267 136.039 67.8 134.466 67.08C132.919 66.36 131.039 66 128.826 66H123.266V70.84ZM147.55 75.6H142.47V94H147.55V75.6ZM152.95 81L155.31 76.6C154.937 76.12 154.443 75.76 153.83 75.52C153.243 75.28 152.617 75.16 151.95 75.16C150.99 75.16 150.057 75.5067 149.15 76.2C148.243 76.8667 147.51 77.7733 146.95 78.92C146.39 80.04 146.11 81.3333 146.11 82.8L147.55 84.24C147.55 83.36 147.657 82.6133 147.87 82C148.11 81.36 148.457 80.8667 148.91 80.52C149.363 80.1733 149.91 80 150.55 80C151.083 80 151.523 80.0933 151.87 80.28C152.243 80.44 152.603 80.68 152.95 81ZM166.15 94.4C168.363 94.4 170.257 93.9733 171.83 93.12C173.43 92.24 174.71 90.9333 175.67 89.2L171.15 87.8C170.617 88.68 169.937 89.3467 169.11 89.8C168.31 90.2267 167.337 90.44 166.19 90.44C165.177 90.44 164.31 90.2133 163.59 89.76C162.87 89.3067 162.323 88.6533 161.95 87.8C161.603 86.9467 161.43 85.9067 161.43 84.68C161.457 83.4 161.643 82.3333 161.99 81.48C162.363 80.6 162.883 79.9467 163.55 79.52C164.243 79.0667 165.097 78.84 166.11 78.84C166.937 78.84 167.657 79.0267 168.27 79.4C168.883 79.7733 169.35 80.28 169.67 80.92C170.017 81.56 170.19 82.3333 170.19 83.24C170.19 83.4267 170.137 83.6667 170.03 83.96C169.95 84.2267 169.857 84.44 169.75 84.6L171.15 82.76H159.19V85.96H175.67C175.697 85.8 175.71 85.5867 175.71 85.32C175.737 85.0533 175.75 84.8 175.75 84.56C175.75 82.5867 175.377 80.9067 174.63 79.52C173.883 78.1067 172.79 77.04 171.35 76.32C169.937 75.5733 168.217 75.2 166.19 75.2C164.163 75.2 162.403 75.6 160.91 76.4C159.417 77.1733 158.257 78.28 157.43 79.72C156.63 81.1333 156.23 82.8267 156.23 84.8C156.23 86.7467 156.63 88.44 157.43 89.88C158.257 91.2933 159.417 92.4 160.91 93.2C162.403 94 164.15 94.4 166.15 94.4ZM176.432 75.6L186.512 95.92L196.592 75.6H191.032L186.512 86.68L181.992 75.6H176.432ZM207.166 94.4C209.379 94.4 211.272 93.9733 212.846 93.12C214.446 92.24 215.726 90.9333 216.686 89.2L212.166 87.8C211.632 88.68 210.952 89.3467 210.126 89.8C209.326 90.2267 208.352 90.44 207.206 90.44C206.192 90.44 205.326 90.2133 204.606 89.76C203.886 89.3067 203.339 88.6533 202.966 87.8C202.619 86.9467 202.446 85.9067 202.446 84.68C202.472 83.4 202.659 82.3333 203.006 81.48C203.379 80.6 203.899 79.9467 204.566 79.52C205.259 79.0667 206.112 78.84 207.126 78.84C207.952 78.84 208.672 79.0267 209.286 79.4C209.899 79.7733 210.366 80.28 210.686 80.92C211.032 81.56 211.206 82.3333 211.206 83.24C211.206 83.4267 211.152 83.6667 211.046 83.96C210.966 84.2267 210.872 84.44 210.766 84.6L212.166 82.76H200.206V85.96H216.686C216.712 85.8 216.726 85.5867 216.726 85.32C216.752 85.0533 216.766 84.8 216.766 84.56C216.766 82.5867 216.392 80.9067 215.646 79.52C214.899 78.1067 213.806 77.04 212.366 76.32C210.952 75.5733 209.232 75.2 207.206 75.2C205.179 75.2 203.419 75.6 201.926 76.4C200.432 77.1733 199.272 78.28 198.446 79.72C197.646 81.1333 197.246 82.8267 197.246 84.8C197.246 86.7467 197.646 88.44 198.446 89.88C199.272 91.2933 200.432 92.4 201.926 93.2C203.419 94 205.166 94.4 207.166 94.4ZM232.553 82.8V94H237.913V82.24C237.913 80.0267 237.38 78.3067 236.313 77.08C235.247 75.8267 233.62 75.2 231.433 75.2C230.127 75.2 229.007 75.48 228.073 76.04C227.167 76.5733 226.433 77.36 225.873 78.4V75.6H220.673V94H225.873V82.8C225.873 82.0267 226.02 81.36 226.313 80.8C226.607 80.24 227.033 79.8133 227.593 79.52C228.153 79.2 228.793 79.04 229.513 79.04C230.58 79.04 231.353 79.36 231.833 80C232.313 80.64 232.553 81.5733 232.553 82.8ZM240.657 75.6V79.96H252.017V75.6H240.657ZM243.817 69.2V94H248.817V69.2H243.817ZM254.535 68.48C254.535 69.3067 254.842 70 255.455 70.56C256.068 71.12 256.802 71.4 257.655 71.4C258.508 71.4 259.228 71.12 259.815 70.56C260.428 70 260.735 69.3067 260.735 68.48C260.735 67.6267 260.428 66.9333 259.815 66.4C259.228 65.84 258.508 65.56 257.655 65.56C256.802 65.56 256.068 65.84 255.455 66.4C254.842 66.9333 254.535 67.6267 254.535 68.48ZM255.095 75.6V94H260.135V75.6H255.095ZM262.994 75.6L273.074 95.92L283.154 75.6H277.594L273.074 86.68L268.554 75.6H262.994ZM289.314 88.28C289.314 87.7467 289.434 87.3067 289.674 86.96C289.914 86.5867 290.288 86.3067 290.794 86.12C291.301 85.9067 291.954 85.8 292.754 85.8C293.741 85.8 294.674 85.9333 295.554 86.2C296.461 86.4667 297.274 86.8667 297.994 87.4V85C297.728 84.68 297.288 84.3467 296.674 84C296.061 83.6533 295.301 83.36 294.394 83.12C293.514 82.88 292.488 82.76 291.314 82.76C289.021 82.76 287.248 83.28 285.994 84.32C284.741 85.36 284.114 86.7733 284.114 88.56C284.114 89.8133 284.408 90.88 284.994 91.76C285.608 92.6133 286.408 93.2667 287.394 93.72C288.381 94.1733 289.448 94.4 290.594 94.4C291.714 94.4 292.781 94.2 293.794 93.8C294.834 93.4 295.674 92.8 296.314 92C296.981 91.2 297.314 90.2133 297.314 89.04L296.674 86.64C296.674 87.52 296.474 88.28 296.074 88.92C295.674 89.5333 295.154 90.0133 294.514 90.36C293.874 90.68 293.154 90.84 292.354 90.84C291.794 90.84 291.274 90.7467 290.794 90.56C290.341 90.3467 289.981 90.0533 289.714 89.68C289.448 89.28 289.314 88.8133 289.314 88.28ZM287.314 80.8C287.581 80.6133 287.994 80.3867 288.554 80.12C289.114 79.8533 289.781 79.6267 290.554 79.44C291.328 79.2533 292.141 79.16 292.994 79.16C293.554 79.16 294.061 79.2133 294.514 79.32C294.968 79.4267 295.354 79.6 295.674 79.84C296.021 80.08 296.274 80.3867 296.434 80.76C296.594 81.1067 296.674 81.5333 296.674 82.04V94H301.674V80.96C301.674 79.7067 301.328 78.6533 300.634 77.8C299.941 76.92 298.981 76.2533 297.754 75.8C296.528 75.3467 295.128 75.12 293.554 75.12C291.848 75.12 290.301 75.36 288.914 75.84C287.528 76.2933 286.354 76.7733 285.394 77.28L287.314 80.8ZM327.166 94.4C329.379 94.4 331.272 93.9733 332.846 93.12C334.446 92.24 335.726 90.9333 336.686 89.2L332.166 87.8C331.632 88.68 330.952 89.3467 330.126 89.8C329.326 90.2267 328.352 90.44 327.206 90.44C326.192 90.44 325.326 90.2133 324.606 89.76C323.886 89.3067 323.339 88.6533 322.966 87.8C322.619 86.9467 322.446 85.9067 322.446 84.68C322.472 83.4 322.659 82.3333 323.006 81.48C323.379 80.6 323.899 79.9467 324.566 79.52C325.259 79.0667 326.112 78.84 327.126 78.84C327.952 78.84 328.672 79.0267 329.286 79.4C329.899 79.7733 330.366 80.28 330.686 80.92C331.032 81.56 331.206 82.3333 331.206 83.24C331.206 83.4267 331.152 83.6667 331.046 83.96C330.966 84.2267 330.872 84.44 330.766 84.6L332.166 82.76H320.206V85.96H336.686C336.712 85.8 336.726 85.5867 336.726 85.32C336.752 85.0533 336.766 84.8 336.766 84.56C336.766 82.5867 336.392 80.9067 335.646 79.52C334.899 78.1067 333.806 77.04 332.366 76.32C330.952 75.5733 329.232 75.2 327.206 75.2C325.179 75.2 323.419 75.6 321.926 76.4C320.432 77.1733 319.272 78.28 318.446 79.72C317.646 81.1333 317.246 82.8267 317.246 84.8C317.246 86.7467 317.646 88.44 318.446 89.88C319.272 91.2933 320.432 92.4 321.926 93.2C323.419 94 325.166 94.4 327.166 94.4ZM357.745 80C357.745 78.1333 358.159 76.52 358.985 75.16C359.839 73.8 360.945 72.76 362.305 72.04C363.665 71.2933 365.145 70.92 366.745 70.92C368.079 70.92 369.265 71.0933 370.305 71.44C371.345 71.7867 372.279 72.2533 373.105 72.84C373.959 73.4267 374.692 74.0667 375.305 74.76V68.32C374.159 67.4133 372.905 66.7067 371.545 66.2C370.212 65.6933 368.519 65.44 366.465 65.44C364.332 65.44 362.345 65.7867 360.505 66.48C358.692 67.1733 357.105 68.1733 355.745 69.48C354.412 70.7867 353.372 72.3333 352.625 74.12C351.905 75.88 351.545 77.84 351.545 80C351.545 82.16 351.905 84.1333 352.625 85.92C353.372 87.68 354.412 89.2133 355.745 90.52C357.105 91.8267 358.692 92.8267 360.505 93.52C362.345 94.2133 364.332 94.56 366.465 94.56C368.519 94.56 370.212 94.3067 371.545 93.8C372.905 93.2933 374.159 92.5867 375.305 91.68V85.24C374.692 85.9333 373.959 86.5733 373.105 87.16C372.279 87.7467 371.345 88.2133 370.305 88.56C369.265 88.9067 368.079 89.08 366.745 89.08C365.145 89.08 363.665 88.72 362.305 88C360.945 87.2533 359.839 86.2 358.985 84.84C358.159 83.4533 357.745 81.84 357.745 80ZM379.277 84.8C379.277 86.6933 379.717 88.3733 380.597 89.84C381.504 91.28 382.717 92.4 384.237 93.2C385.784 94 387.53 94.4 389.477 94.4C391.424 94.4 393.157 94 394.677 93.2C396.224 92.4 397.437 91.28 398.317 89.84C399.224 88.3733 399.677 86.6933 399.677 84.8C399.677 82.88 399.224 81.2 398.317 79.76C397.437 78.32 396.224 77.2 394.677 76.4C393.157 75.6 391.424 75.2 389.477 75.2C387.53 75.2 385.784 75.6 384.237 76.4C382.717 77.2 381.504 78.32 380.597 79.76C379.717 81.2 379.277 82.88 379.277 84.8ZM384.557 84.8C384.557 83.76 384.77 82.84 385.197 82.04C385.65 81.24 386.25 80.6267 386.997 80.2C387.744 79.7733 388.57 79.56 389.477 79.56C390.384 79.56 391.21 79.7733 391.957 80.2C392.704 80.6267 393.29 81.24 393.717 82.04C394.17 82.84 394.397 83.76 394.397 84.8C394.397 85.84 394.17 86.76 393.717 87.56C393.29 88.3333 392.704 88.9467 391.957 89.4C391.21 89.8267 390.384 90.04 389.477 90.04C388.57 90.04 387.744 89.8267 386.997 89.4C386.25 88.9467 385.65 88.3333 385.197 87.56C384.77 86.76 384.557 85.84 384.557 84.8ZM408.644 75.6H403.564V94H408.644V75.6ZM414.044 81L416.404 76.6C416.031 76.12 415.537 75.76 414.924 75.52C414.337 75.28 413.711 75.16 413.044 75.16C412.084 75.16 411.151 75.5067 410.244 76.2C409.337 76.8667 408.604 77.7733 408.044 78.92C407.484 80.04 407.204 81.3333 407.204 82.8L408.644 84.24C408.644 83.36 408.751 82.6133 408.964 82C409.204 81.36 409.551 80.8667 410.004 80.52C410.457 80.1733 411.004 80 411.644 80C412.177 80 412.617 80.0933 412.964 80.28C413.337 80.44 413.697 80.68 414.044 81ZM424.23 75.6H419.15V94H424.23V75.6ZM429.63 81L431.99 76.6C431.617 76.12 431.123 75.76 430.51 75.52C429.923 75.28 429.297 75.16 428.63 75.16C427.67 75.16 426.737 75.5067 425.83 76.2C424.923 76.8667 424.19 77.7733 423.63 78.92C423.07 80.04 422.79 81.3333 422.79 82.8L424.23 84.24C424.23 83.36 424.337 82.6133 424.55 82C424.79 81.36 425.137 80.8667 425.59 80.52C426.043 80.1733 426.59 80 427.23 80C427.763 80 428.203 80.0933 428.55 80.28C428.923 80.44 429.283 80.68 429.63 81ZM442.83 94.4C445.043 94.4 446.937 93.9733 448.51 93.12C450.11 92.24 451.39 90.9333 452.35 89.2L447.83 87.8C447.297 88.68 446.617 89.3467 445.79 89.8C444.99 90.2267 444.017 90.44 442.87 90.44C441.857 90.44 440.99 90.2133 440.27 89.76C439.55 89.3067 439.003 88.6533 438.63 87.8C438.283 86.9467 438.11 85.9067 438.11 84.68C438.137 83.4 438.323 82.3333 438.67 81.48C439.043 80.6 439.563 79.9467 440.23 79.52C440.923 79.0667 441.777 78.84 442.79 78.84C443.617 78.84 444.337 79.0267 444.95 79.4C445.563 79.7733 446.03 80.28 446.35 80.92C446.697 81.56 446.87 82.3333 446.87 83.24C446.87 83.4267 446.817 83.6667 446.71 83.96C446.63 84.2267 446.537 84.44 446.43 84.6L447.83 82.76H435.87V85.96H452.35C452.377 85.8 452.39 85.5867 452.39 85.32C452.417 85.0533 452.43 84.8 452.43 84.56C452.43 82.5867 452.057 80.9067 451.31 79.52C450.563 78.1067 449.47 77.04 448.03 76.32C446.617 75.5733 444.897 75.2 442.87 75.2C440.843 75.2 439.083 75.6 437.59 76.4C436.097 77.1733 434.937 78.28 434.11 79.72C433.31 81.1333 432.91 82.8267 432.91 84.8C432.91 86.7467 433.31 88.44 434.11 89.88C434.937 91.2933 436.097 92.4 437.59 93.2C439.083 94 440.83 94.4 442.83 94.4ZM453.977 75.6V79.96H465.337V75.6H453.977ZM457.137 69.2V94H462.137V69.2H457.137ZM467.855 68.48C467.855 69.3067 468.162 70 468.775 70.56C469.388 71.12 470.122 71.4 470.975 71.4C471.828 71.4 472.548 71.12 473.135 70.56C473.748 70 474.055 69.3067 474.055 68.48C474.055 67.6267 473.748 66.9333 473.135 66.4C472.548 65.84 471.828 65.56 470.975 65.56C470.122 65.56 469.388 65.84 468.775 66.4C468.162 66.9333 467.855 67.6267 467.855 68.48ZM468.415 75.6V94H473.455V75.6H468.415ZM476.315 75.6L486.395 95.92L496.475 75.6H490.915L486.395 86.68L481.875 75.6H476.315ZM502.635 88.28C502.635 87.7467 502.755 87.3067 502.995 86.96C503.235 86.5867 503.608 86.3067 504.115 86.12C504.621 85.9067 505.275 85.8 506.075 85.8C507.061 85.8 507.995 85.9333 508.875 86.2C509.781 86.4667 510.595 86.8667 511.315 87.4V85C511.048 84.68 510.608 84.3467 509.995 84C509.381 83.6533 508.621 83.36 507.715 83.12C506.835 82.88 505.808 82.76 504.635 82.76C502.341 82.76 500.568 83.28 499.315 84.32C498.061 85.36 497.435 86.7733 497.435 88.56C497.435 89.8133 497.728 90.88 498.315 91.76C498.928 92.6133 499.728 93.2667 500.715 93.72C501.701 94.1733 502.768 94.4 503.915 94.4C505.035 94.4 506.101 94.2 507.115 93.8C508.155 93.4 508.995 92.8 509.635 92C510.301 91.2 510.635 90.2133 510.635 89.04L509.995 86.64C509.995 87.52 509.795 88.28 509.395 88.92C508.995 89.5333 508.475 90.0133 507.835 90.36C507.195 90.68 506.475 90.84 505.675 90.84C505.115 90.84 504.595 90.7467 504.115 90.56C503.661 90.3467 503.301 90.0533 503.035 89.68C502.768 89.28 502.635 88.8133 502.635 88.28ZM500.635 80.8C500.901 80.6133 501.315 80.3867 501.875 80.12C502.435 79.8533 503.101 79.6267 503.875 79.44C504.648 79.2533 505.461 79.16 506.315 79.16C506.875 79.16 507.381 79.2133 507.835 79.32C508.288 79.4267 508.675 79.6 508.995 79.84C509.341 80.08 509.595 80.3867 509.755 80.76C509.915 81.1067 509.995 81.5333 509.995 82.04V94H514.995V80.96C514.995 79.7067 514.648 78.6533 513.955 77.8C513.261 76.92 512.301 76.2533 511.075 75.8C509.848 75.3467 508.448 75.12 506.875 75.12C505.168 75.12 503.621 75.36 502.235 75.84C500.848 76.2933 499.675 76.7733 498.715 77.28L500.635 80.8Z" fill="white"/>
<path d="M5.30957 43.9431L5.30957 51.0041L11.71 48.0222L21.3002 43.5541L21.3002 111.393L21.3002 115.893L25.8002 115.893L45.0037 115.893L49.5037 115.893L49.5037 111.393L49.5037 12.128L49.5037 6.10951L43.731 7.81173L8.53683 18.1895L5.30957 19.1411L5.30957 22.5057L5.30957 43.9431Z" fill="black" stroke="white" stroke-width="9"/>
</svg>
